Caveat.ufo
<glyph name="numbersign" format="2">
  <advance width="559"/>
  <unicode hex="0023"/>
  <outline>
    <contour>
      <point x="389" y="-140" type="qcurve" smooth="yes"/>
      <point x="370" y="-145"/>
      <point x="348" y="-119"/>
      <point x="343" y="-65"/>
      <point x="351" y="-28" type="qcurve" smooth="yes"/>
      <point x="356" y="-16"/>
      <point x="362" y="7"/>
      <point x="362" y="14" type="qcurve" smooth="yes"/>
      <point x="364" y="22"/>
      <point x="380" y="77"/>
      <point x="403" y="149"/>
      <point x="426" y="220"/>
      <point x="443" y="269"/>
      <point x="445" y="272" type="qcurve" smooth="yes"/>
      <point x="449" y="272"/>
      <point x="455" y="286"/>
      <point x="455" y="293" type="qcurve" smooth="yes"/>
      <point x="455" y="301"/>
      <point x="462" y="321"/>
      <point x="466" y="325" type="qcurve" smooth="yes"/>
      <point x="466" y="330"/>
      <point x="471" y="343"/>
      <point x="471" y="347" type="qcurve" smooth="yes"/>
      <point x="471" y="351"/>
      <point x="476" y="359"/>
      <point x="476" y="363" type="qcurve" smooth="yes"/>
      <point x="482" y="374"/>
      <point x="507" y="435"/>
      <point x="540" y="518"/>
      <point x="574" y="607"/>
      <point x="604" y="687"/>
      <point x="622" y="739"/>
      <point x="622" y="743" type="qcurve" smooth="yes"/>
      <point x="622" y="751"/>
      <point x="630" y="759"/>
      <point x="638" y="759" type="qcurve" smooth="yes"/>
      <point x="641" y="762"/>
      <point x="650" y="764"/>
      <point x="654" y="764" type="qcurve" smooth="yes"/>
      <point x="654" y="764"/>
      <point x="662" y="756"/>
      <point x="670" y="748" type="qcurve" smooth="yes"/>
      <point x="678" y="741"/>
      <point x="681" y="723"/>
      <point x="681" y="711" type="qcurve" smooth="yes"/>
      <point x="681" y="698"/>
      <point x="675" y="678"/>
      <point x="657" y="640"/>
      <point x="638" y="600" type="qcurve" smooth="yes"/>
      <point x="635" y="592"/>
      <point x="617" y="552"/>
      <point x="596" y="502"/>
      <point x="575" y="455"/>
      <point x="562" y="423"/>
      <point x="562" y="421" type="qcurve" smooth="yes"/>
      <point x="562" y="417"/>
      <point x="555" y="401"/>
      <point x="551" y="389" type="qcurve" smooth="yes"/>
      <point x="547" y="381"/>
      <point x="533" y="350"/>
      <point x="518" y="315"/>
      <point x="508" y="290"/>
      <point x="508" y="288" type="qcurve" smooth="yes"/>
      <point x="508" y="284"/>
      <point x="507" y="276"/>
      <point x="503" y="272" type="qcurve" smooth="yes"/>
      <point x="499" y="272"/>
      <point x="498" y="261"/>
      <point x="498" y="261" type="qcurve" smooth="yes"/>
      <point x="498" y="251"/>
      <point x="482" y="208" type="qcurve" smooth="yes"/>
      <point x="475" y="186"/>
      <point x="455" y="118"/>
      <point x="432" y="41"/>
      <point x="412" y="-31"/>
      <point x="399" y="-86"/>
      <point x="399" y="-97" type="qcurve" smooth="yes"/>
      <point x="399" y="-121"/>
      <point x="397" y="-136"/>
    </contour>
    <contour>
      <point x="146" y="178" type="qcurve" smooth="yes"/>
      <point x="140" y="178"/>
      <point x="122" y="179"/>
      <point x="111" y="183" type="qcurve"/>
      <point x="96" y="183"/>
      <point x="86" y="190"/>
      <point x="82" y="197" type="qcurve" smooth="yes"/>
      <point x="71" y="212"/>
      <point x="89" y="223"/>
      <point x="126" y="227" type="qcurve" smooth="yes"/>
      <point x="137" y="230"/>
      <point x="201" y="234"/>
      <point x="290" y="237"/>
      <point x="387" y="239"/>
      <point x="477" y="240"/>
      <point x="545" y="241"/>
      <point x="558" y="241" type="qcurve" smooth="yes"/>
      <point x="584" y="241"/>
      <point x="602" y="237"/>
      <point x="613" y="226" type="qcurve" smooth="yes"/>
      <point x="628" y="211"/>
      <point x="620" y="184"/>
      <point x="597" y="188" type="qcurve" smooth="yes"/>
      <point x="590" y="187"/>
      <point x="552" y="185"/>
      <point x="534" y="183" type="qcurve" smooth="yes"/>
      <point x="530" y="183"/>
      <point x="476" y="182"/>
      <point x="395" y="181"/>
      <point x="303" y="180"/>
      <point x="217" y="179"/>
      <point x="156" y="178"/>
    </contour>
    <contour>
      <point x="169" y="-140" type="qcurve" smooth="yes"/>
      <point x="150" y="-145"/>
      <point x="127" y="-119"/>
      <point x="123" y="-65"/>
      <point x="131" y="-28" type="qcurve" smooth="yes"/>
      <point x="136" y="-16"/>
      <point x="142" y="7"/>
      <point x="142" y="14" type="qcurve" smooth="yes"/>
      <point x="144" y="22"/>
      <point x="160" y="77"/>
      <point x="183" y="149"/>
      <point x="206" y="220"/>
      <point x="223" y="269"/>
      <point x="225" y="272" type="qcurve" smooth="yes"/>
      <point x="229" y="272"/>
      <point x="235" y="286"/>
      <point x="235" y="293" type="qcurve" smooth="yes"/>
      <point x="235" y="301"/>
      <point x="242" y="321"/>
      <point x="246" y="325" type="qcurve" smooth="yes"/>
      <point x="246" y="330"/>
      <point x="251" y="343"/>
      <point x="251" y="347" type="qcurve" smooth="yes"/>
      <point x="251" y="351"/>
      <point x="256" y="359"/>
      <point x="256" y="363" type="qcurve" smooth="yes"/>
      <point x="262" y="374"/>
      <point x="287" y="435"/>
      <point x="320" y="518"/>
      <point x="354" y="607"/>
      <point x="384" y="687"/>
      <point x="402" y="739"/>
      <point x="402" y="743" type="qcurve" smooth="yes"/>
      <point x="402" y="751"/>
      <point x="410" y="759"/>
      <point x="418" y="759" type="qcurve" smooth="yes"/>
      <point x="421" y="762"/>
      <point x="430" y="764"/>
      <point x="434" y="764" type="qcurve" smooth="yes"/>
      <point x="434" y="764"/>
      <point x="442" y="756"/>
      <point x="450" y="748" type="qcurve" smooth="yes"/>
      <point x="458" y="741"/>
      <point x="461" y="723"/>
      <point x="461" y="711" type="qcurve" smooth="yes"/>
      <point x="461" y="698"/>
      <point x="455" y="678"/>
      <point x="437" y="640"/>
      <point x="418" y="600" type="qcurve" smooth="yes"/>
      <point x="415" y="592"/>
      <point x="397" y="552"/>
      <point x="376" y="502"/>
      <point x="355" y="455"/>
      <point x="342" y="423"/>
      <point x="342" y="421" type="qcurve" smooth="yes"/>
      <point x="342" y="417"/>
      <point x="335" y="401"/>
      <point x="331" y="389" type="qcurve" smooth="yes"/>
      <point x="327" y="381"/>
      <point x="313" y="350"/>
      <point x="298" y="315"/>
      <point x="288" y="290"/>
      <point x="288" y="288" type="qcurve" smooth="yes"/>
      <point x="288" y="284"/>
      <point x="287" y="276"/>
      <point x="283" y="272" type="qcurve" smooth="yes"/>
      <point x="279" y="272"/>
      <point x="278" y="261"/>
      <point x="278" y="261" type="qcurve" smooth="yes"/>
      <point x="278" y="251"/>
      <point x="262" y="208" type="qcurve" smooth="yes"/>
      <point x="255" y="186"/>
      <point x="235" y="118"/>
      <point x="212" y="41"/>
      <point x="192" y="-31"/>
      <point x="179" y="-86"/>
      <point x="179" y="-97" type="qcurve" smooth="yes"/>
      <point x="179" y="-121"/>
      <point x="177" y="-136"/>
    </contour>
    <contour>
      <point x="207" y="378" type="qcurve" smooth="yes"/>
      <point x="201" y="378"/>
      <point x="183" y="379"/>
      <point x="172" y="383" type="qcurve"/>
      <point x="157" y="383"/>
      <point x="147" y="390"/>
      <point x="143" y="397" type="qcurve" smooth="yes"/>
      <point x="132" y="412"/>
      <point x="150" y="423"/>
      <point x="187" y="427" type="qcurve" smooth="yes"/>
      <point x="198" y="430"/>
      <point x="262" y="434"/>
      <point x="351" y="437"/>
      <point x="448" y="439"/>
      <point x="538" y="440"/>
      <point x="606" y="441"/>
      <point x="619" y="441" type="qcurve" smooth="yes"/>
      <point x="645" y="441"/>
      <point x="663" y="437"/>
      <point x="674" y="426" type="qcurve" smooth="yes"/>
      <point x="689" y="411"/>
      <point x="681" y="384"/>
      <point x="658" y="388" type="qcurve" smooth="yes"/>
      <point x="651" y="387"/>
      <point x="613" y="385"/>
      <point x="595" y="383" type="qcurve" smooth="yes"/>
      <point x="591" y="383"/>
      <point x="537" y="382"/>
      <point x="456" y="381"/>
      <point x="364" y="380"/>
      <point x="278" y="379"/>
      <point x="217" y="378"/>
    </contour>
  </outline>
</glyph>
<glyph name="dollar" format="2">
  <advance width="450"/>
  <unicode hex="0024"/>
  <outline>
    <contour>
      <point x="178" y="-124" type="qcurve" smooth="yes"/>
      <point x="150" y="-130"/>
      <point x="145" y="-66"/>
      <point x="161" y="-11" type="qcurve"/>
      <point x="170" y="2"/>
      <point x="177" y="26"/>
      <point x="178" y="33" type="qcurve" smooth="yes"/>
      <point x="181" y="41"/>
      <point x="203" y="93"/>
      <point x="233" y="161"/>
      <point x="262" y="228"/>
      <point x="284" y="275"/>
      <point x="286" y="278" type="qcurve" smooth="yes"/>
      <point x="288" y="278"/>
      <point x="291" y="280"/>
      <point x="295" y="285"/>
      <point x="298" y="290"/>
      <point x="301" y="296"/>
      <point x="301" y="299" type="qcurve" smooth="yes"/>
      <point x="304" y="319"/>
      <point x="321" y="344"/>
      <point x="328" y="363" type="qcurve" smooth="yes"/>
      <point x="335" y="374"/>
      <point x="365" y="433"/>
      <point x="405" y="513"/>
      <point x="446" y="599"/>
      <point x="481" y="675"/>
      <point x="503" y="726"/>
      <point x="503" y="730" type="qcurve" smooth="yes"/>
      <point x="504" y="733"/>
      <point x="506" y="737"/>
      <point x="509" y="740"/>
      <point x="512" y="742"/>
      <point x="516" y="743"/>
      <point x="520" y="744"/>
      <point x="523" y="743" type="qcurve" smooth="yes"/>
      <point x="529" y="749"/>
      <point x="539" y="745" type="qcurve"/>
      <point x="539" y="745"/>
      <point x="546" y="738"/>
      <point x="553" y="731" type="qcurve" smooth="yes"/>
      <point x="558" y="722"/>
      <point x="561" y="703"/>
      <point x="560" y="692" type="qcurve" smooth="yes"/>
      <point x="558" y="679"/>
      <point x="548" y="660"/>
      <point x="526" y="624"/>
      <point x="505" y="586" type="qcurve" smooth="yes"/>
      <point x="501" y="579"/>
      <point x="479" y="540"/>
      <point x="453" y="493"/>
      <point x="427" y="447"/>
      <point x="411" y="417"/>
      <point x="411" y="415" type="qcurve" smooth="yes"/>
      <point x="411" y="413"/>
      <point x="409" y="407"/>
      <point x="405" y="400"/>
      <point x="399" y="390"/>
      <point x="395" y="384" type="qcurve" smooth="yes"/>
      <point x="391" y="376"/>
      <point x="374" y="346"/>
      <point x="357" y="314"/>
      <point x="344" y="290"/>
      <point x="344" y="288" type="qcurve" smooth="yes"/>
      <point x="344" y="286"/>
      <point x="342" y="280"/>
      <point x="338" y="275"/>
      <point x="335" y="272" type="qcurve" smooth="yes"/>
      <point x="331" y="272"/>
      <point x="329" y="261"/>
      <point x="329" y="261" type="qcurve" smooth="yes"/>
      <point x="329" y="259"/>
      <point x="325" y="245"/>
      <point x="316" y="225"/>
      <point x="308" y="214" type="qcurve" smooth="yes"/>
      <point x="299" y="192"/>
      <point x="272" y="125"/>
      <point x="242" y="51"/>
      <point x="214" y="-19"/>
      <point x="196" y="-72"/>
      <point x="194" y="-83" type="qcurve" smooth="yes"/>
      <point x="193" y="-107"/>
      <point x="187" y="-122"/>
    </contour>
    <contour>
      <point x="120" y="55" type="qcurve" smooth="yes"/>
      <point x="115" y="57"/>
      <point x="106" y="62"/>
      <point x="99" y="67" type="qcurve" smooth="yes"/>
      <point x="86" y="74"/>
      <point x="67" y="89"/>
      <point x="56" y="111"/>
      <point x="55" y="126" type="qcurve" smooth="yes"/>
      <point x="55" y="130"/>
      <point x="73" y="148"/>
      <point x="100" y="157"/>
      <point x="115" y="149" type="qcurve"/>
      <point x="105" y="126"/>
      <point x="111" y="102"/>
      <point x="149" y="96" type="qcurve" smooth="yes"/>
      <point x="166" y="94"/>
      <point x="196" y="95"/>
      <point x="218" y="98" type="qcurve" smooth="yes"/>
      <point x="241" y="99"/>
      <point x="275" y="103"/>
      <point x="282" y="107" type="qcurve" smooth="yes"/>
      <point x="310" y="115"/>
      <point x="357" y="140"/>
      <point x="364" y="153" type="qcurve"/>
      <point x="376" y="164"/>
      <point x="378" y="178"/>
      <point x="378" y="194" type="qcurve" smooth="yes"/>
      <point x="377" y="206"/>
      <point x="375" y="220"/>
      <point x="370" y="233"/>
      <point x="359" y="253"/>
      <point x="348" y="269" type="qcurve" smooth="yes"/>
      <point x="348" y="274"/>
      <point x="318" y="299"/>
      <point x="304" y="310" type="qcurve"/>
      <point x="297" y="322"/>
      <point x="276" y="351"/>
      <point x="263" y="358" type="qcurve" smooth="yes"/>
      <point x="259" y="363"/>
      <point x="248" y="384"/>
      <point x="240" y="393" type="qcurve" smooth="yes"/>
      <point x="226" y="416"/>
      <point x="248" y="478"/>
      <point x="280" y="506" type="qcurve" smooth="yes"/>
      <point x="288" y="516"/>
      <point x="321" y="541"/>
      <point x="352" y="560"/>
      <point x="355" y="560" type="qcurve" smooth="yes"/>
      <point x="355" y="560"/>
      <point x="368" y="565"/>
      <point x="378" y="569" type="qcurve" smooth="yes"/>
      <point x="390" y="571"/>
      <point x="417" y="580"/>
      <point x="430" y="580" type="qcurve" smooth="yes"/>
      <point x="450" y="585"/>
      <point x="474" y="588"/>
      <point x="502" y="586" type="qcurve" smooth="yes"/>
      <point x="514" y="583"/>
      <point x="544" y="570"/>
      <point x="566" y="550"/>
      <point x="567" y="528"/>
      <point x="551" y="516" type="qcurve"/>
      <point x="540" y="514"/>
      <point x="515" y="526"/>
      <point x="481" y="540"/>
      <point x="458" y="538" type="qcurve" smooth="yes"/>
      <point x="425" y="537"/>
      <point x="360" y="513"/>
      <point x="339" y="489" type="qcurve"/>
      <point x="313" y="473"/>
      <point x="291" y="439"/>
      <point x="291" y="427" type="qcurve" smooth="yes"/>
      <point x="293" y="422"/>
      <point x="301" y="403"/>
      <point x="308" y="393" type="qcurve" smooth="yes"/>
      <point x="329" y="371"/>
      <point x="359" y="341"/>
      <point x="378" y="323"/>
      <point x="387" y="313"/>
      <point x="387" y="311" type="qcurve" smooth="yes"/>
      <point x="391" y="303"/>
      <point x="410" y="277"/>
      <point x="415" y="269" type="qcurve" smooth="yes"/>
      <point x="418" y="267"/>
      <point x="424" y="254"/>
      <point x="426" y="249" type="qcurve" smooth="yes"/>
      <point x="430" y="247"/>
      <point x="436" y="218"/>
      <point x="440" y="185"/>
      <point x="440" y="176" type="qcurve" smooth="yes"/>
      <point x="440" y="168"/>
      <point x="429" y="148"/>
      <point x="411" y="129"/>
      <point x="400" y="120" type="qcurve" smooth="yes"/>
      <point x="389" y="111"/>
      <point x="344" y="85"/>
      <point x="293" y="63"/>
      <point x="271" y="59" type="qcurve" smooth="yes"/>
      <point x="256" y="55"/>
      <point x="210" y="49"/>
      <point x="162" y="48"/>
      <point x="125" y="51"/>
    </contour>
  </outline>
</glyph>
<glyph name="percent" format="2">
  <advance width="600"/>
  <unicode hex="0025"/>
  <outline>
    <contour>
      <point x="125" y="-94" type="qcurve" smooth="yes"/>
      <point x="107" y="-91"/>
      <point x="96" y="-61"/>
      <point x="112" y="-13"/>
      <point x="133" y="17" type="qcurve" smooth="yes"/>
      <point x="142" y="25"/>
      <point x="156" y="38"/>
      <point x="158" y="45" type="qcurve" smooth="yes"/>
      <point x="163" y="52"/>
      <point x="197" y="93"/>
      <point x="243" y="145"/>
      <point x="288" y="195"/>
      <point x="320" y="231"/>
      <point x="321" y="234" type="qcurve" smooth="yes"/>
      <point x="325" y="233"/>
      <point x="335" y="244"/>
      <point x="337" y="251" type="qcurve" smooth="yes"/>
      <point x="340" y="259"/>
      <point x="354" y="272"/>
      <point x="361" y="273" type="qcurve"/>
      <point x="363" y="278"/>
      <point x="369" y="284"/>
      <point x="370" y="288" type="qcurve" smooth="yes"/>
      <point x="371" y="292"/>
      <point x="378" y="298"/>
      <point x="379" y="302" type="qcurve" smooth="yes"/>
      <point x="388" y="310"/>
      <point x="432" y="353"/>
      <point x="490" y="411"/>
      <point x="552" y="475"/>
      <point x="606" y="531"/>
      <point x="640" y="569"/>
      <point x="642" y="572" type="qcurve" smooth="yes"/>
      <point x="649" y="585"/>
      <point x="661" y="579" type="qcurve"/>
      <point x="668" y="583"/>
      <point x="677" y="579" type="qcurve"/>
      <point x="677" y="579"/>
      <point x="680" y="570"/>
      <point x="684" y="560" type="qcurve" smooth="yes"/>
      <point x="689" y="550"/>
      <point x="687" y="535"/>
      <point x="681" y="525" type="qcurve" smooth="yes"/>
      <point x="676" y="514"/>
      <point x="663" y="498"/>
      <point x="634" y="472"/>
      <point x="604" y="445" type="qcurve" smooth="yes"/>
      <point x="597" y="437"/>
      <point x="556" y="398"/>
      <point x="510" y="353"/>
      <point x="476" y="320"/>
      <point x="475" y="318" type="qcurve" smooth="yes"/>
      <point x="471" y="317"/>
      <point x="460" y="309"/>
      <point x="455" y="298" type="qcurve" smooth="yes"/>
      <point x="447" y="290"/>
      <point x="412" y="256"/>
      <point x="383" y="227"/>
      <point x="382" y="224" type="qcurve" smooth="yes"/>
      <point x="380" y="221"/>
      <point x="372" y="217"/>
      <point x="366" y="215" type="qcurve" smooth="yes"/>
      <point x="365" y="216"/>
      <point x="362" y="210"/>
      <point x="362" y="210" type="qcurve" smooth="yes"/>
      <point x="362" y="206"/>
      <point x="345" y="183"/>
      <point x="328" y="169" type="qcurve" smooth="yes"/>
      <point x="311" y="149"/>
      <point x="256" y="82"/>
      <point x="199" y="9"/>
      <point x="155" y="-50"/>
      <point x="149" y="-62" type="qcurve" smooth="yes"/>
      <point x="141" y="-81"/>
      <point x="132" y="-93"/>
    </contour>
    <contour>
      <point x="476" y="33" type="qcurve" smooth="yes"/>
      <point x="494" y="53"/>
      <point x="516" y="91"/>
      <point x="526" y="119" type="qcurve" smooth="yes"/>
      <point x="530" y="132"/>
      <point x="530" y="174"/>
      <point x="525" y="177" type="qcurve" smooth="yes"/>
      <point x="515" y="182"/>
      <point x="488" y="179"/>
      <point x="474" y="165" type="qcurve" smooth="yes"/>
      <point x="449" y="146"/>
      <point x="414" y="85"/>
      <point x="397" y="48" type="qcurve" smooth="yes"/>
      <point x="386" y="21"/>
      <point x="399" y="-12"/>
      <point x="443" y="-3"/>
    </contour>
    <contour>
      <point x="400" y="-58" type="qcurve" smooth="yes"/>
      <point x="390" y="-58"/>
      <point x="377" y="-50"/>
      <point x="369" y="-43" type="qcurve" smooth="yes"/>
      <point x="353" y="-27"/>
      <point x="341" y="3"/>
      <point x="344" y="16" type="qcurve" smooth="yes"/>
      <point x="346" y="23"/>
      <point x="345" y="34"/>
      <point x="345" y="34" type="qcurve" smooth="yes"/>
      <point x="341" y="39"/>
      <point x="345" y="41"/>
      <point x="346" y="44" type="qcurve" smooth="yes"/>
      <point x="351" y="44"/>
      <point x="349" y="53" type="qcurve" smooth="yes"/>
      <point x="348" y="59"/>
      <point x="364" y="103"/>
      <point x="376" y="122" type="qcurve" smooth="yes"/>
      <point x="381" y="130"/>
      <point x="399" y="156"/>
      <point x="422" y="182"/>
      <point x="432" y="190" type="qcurve" smooth="yes"/>
      <point x="452" y="207"/>
      <point x="482" y="223"/>
      <point x="500" y="227" type="qcurve" smooth="yes"/>
      <point x="518" y="232"/>
      <point x="532" y="231"/>
      <point x="544" y="218" type="qcurve"/>
      <point x="562" y="211"/>
      <point x="579" y="188"/>
      <point x="581" y="166" type="qcurve" smooth="yes"/>
      <point x="583" y="142"/>
      <point x="572" y="81"/>
      <point x="540" y="35" type="qcurve" smooth="yes"/>
      <point x="520" y="7"/>
      <point x="486" y="-21"/>
      <point x="463" y="-35" type="qcurve" smooth="yes"/>
      <point x="446" y="-46"/>
      <point x="418" y="-57"/>
    </contour>
    <contour>
      <point x="337" y="402" type="qcurve" smooth="yes"/>
      <point x="355" y="422"/>
      <point x="377" y="460"/>
      <point x="387" y="488" type="qcurve" smooth="yes"/>
      <point x="391" y="501"/>
      <point x="391" y="543"/>
      <point x="386" y="546" type="qcurve" smooth="yes"/>
      <point x="376" y="551"/>
      <point x="349" y="548"/>
      <point x="335" y="534" type="qcurve" smooth="yes"/>
      <point x="310" y="515"/>
      <point x="275" y="454"/>
      <point x="258" y="417" type="qcurve" smooth="yes"/>
      <point x="247" y="390"/>
      <point x="260" y="357"/>
      <point x="304" y="366"/>
    </contour>
    <contour>
      <point x="260" y="312" type="qcurve" smooth="yes"/>
      <point x="250" y="312"/>
      <point x="237" y="320"/>
      <point x="229" y="327" type="qcurve" smooth="yes"/>
      <point x="213" y="343"/>
      <point x="201" y="373"/>
      <point x="204" y="386" type="qcurve" smooth="yes"/>
      <point x="206" y="393"/>
      <point x="205" y="404"/>
      <point x="205" y="404" type="qcurve" smooth="yes"/>
      <point x="201" y="409"/>
      <point x="205" y="411"/>
      <point x="206" y="414" type="qcurve" smooth="yes"/>
      <point x="211" y="414"/>
      <point x="209" y="423" type="qcurve" smooth="yes"/>
      <point x="208" y="429"/>
      <point x="224" y="473"/>
      <point x="236" y="492" type="qcurve" smooth="yes"/>
      <point x="241" y="500"/>
      <point x="259" y="526"/>
      <point x="282" y="552"/>
      <point x="292" y="560" type="qcurve" smooth="yes"/>
      <point x="312" y="577"/>
      <point x="342" y="593"/>
      <point x="360" y="597" type="qcurve" smooth="yes"/>
      <point x="378" y="602"/>
      <point x="392" y="601"/>
      <point x="404" y="588" type="qcurve"/>
      <point x="422" y="581"/>
      <point x="439" y="558"/>
      <point x="441" y="536" type="qcurve" smooth="yes"/>
      <point x="443" y="512"/>
      <point x="432" y="451"/>
      <point x="400" y="405" type="qcurve" smooth="yes"/>
      <point x="380" y="377"/>
      <point x="346" y="349"/>
      <point x="323" y="335" type="qcurve" smooth="yes"/>
      <point x="306" y="324"/>
      <point x="278" y="313"/>
    </contour>
  </outline>
</glyph>
<glyph name="ampersand" format="2">
  <advance width="564"/>
  <unicode hex="0026"/>
  <outline>
    <contour>
      <point x="657" y="-54" type="qcurve" smooth="yes"/>
      <point x="658" y="-66"/>
      <point x="635" y="-69"/>
      <point x="598" y="-58"/>
      <point x="558" y="-39"/>
      <point x="543" y="-30" type="qcurve"/>
      <point x="524" y="-25"/>
      <point x="456" y="39"/>
      <point x="417" y="85" type="qcurve"/>
      <point x="377" y="63"/>
      <point x="327" y="36"/>
      <point x="286" y="19"/>
      <point x="258" y="11" type="qcurve"/>
      <point x="192" y="5"/>
      <point x="137" y="24" type="qcurve" smooth="yes"/>
      <point x="129" y="27"/>
      <point x="104" y="45"/>
      <point x="80" y="65"/>
      <point x="75" y="70" type="qcurve" smooth="yes"/>
      <point x="70" y="73"/>
      <point x="70" y="94"/>
      <point x="74" y="116"/>
      <point x="75" y="119" type="qcurve" smooth="yes"/>
      <point x="78" y="128"/>
      <point x="107" y="173"/>
      <point x="152" y="233"/>
      <point x="205" y="295"/>
      <point x="231" y="321" type="qcurve"/>
      <point x="207" y="356"/>
      <point x="189" y="419"/>
      <point x="208" y="493"/>
      <point x="236" y="543" type="qcurve" smooth="yes"/>
      <point x="246" y="559"/>
      <point x="276" y="594"/>
      <point x="307" y="625"/>
      <point x="330" y="642"/>
      <point x="331" y="640" type="qcurve" smooth="yes"/>
      <point x="335" y="633"/>
      <point x="343" y="637"/>
      <point x="347" y="637" type="qcurve" smooth="yes"/>
      <point x="351" y="639"/>
      <point x="373" y="638"/>
      <point x="402" y="634"/>
      <point x="415" y="629" type="qcurve" smooth="yes"/>
      <point x="451" y="625"/>
      <point x="480" y="617"/>
      <point x="492" y="603" type="qcurve"/>
      <point x="507" y="592"/>
      <point x="523" y="570"/>
      <point x="530" y="549"/>
      <point x="530" y="540" type="qcurve" smooth="yes"/>
      <point x="530" y="527"/>
      <point x="489" y="473"/>
      <point x="455" y="443" type="qcurve" smooth="yes"/>
      <point x="442" y="427"/>
      <point x="415" y="402"/>
      <point x="415" y="402" type="qcurve" smooth="yes"/>
      <point x="415" y="398"/>
      <point x="405" y="384"/>
      <point x="397" y="381" type="qcurve" smooth="yes"/>
      <point x="386" y="371"/>
      <point x="346" y="335"/>
      <point x="314" y="305"/>
      <point x="313" y="302" type="qcurve" smooth="yes"/>
      <point x="312" y="300"/>
      <point x="332" y="269"/>
      <point x="364" y="227"/>
      <point x="397" y="186"/>
      <point x="423" y="159"/>
      <point x="427" y="159" type="qcurve" smooth="yes"/>
      <point x="460" y="191"/>
      <point x="531" y="252"/>
      <point x="568" y="286" type="qcurve" smooth="yes"/>
      <point x="593" y="312"/>
      <point x="614" y="333"/>
      <point x="625" y="331"/>
      <point x="632" y="324" type="qcurve"/>
      <point x="645" y="322"/>
      <point x="647" y="301"/>
      <point x="639" y="282"/>
      <point x="638" y="281" type="qcurve" smooth="yes"/>
      <point x="625" y="264"/>
      <point x="579" y="220"/>
      <point x="527" y="173"/>
      <point x="481" y="131"/>
      <point x="466" y="116" type="qcurve"/>
      <point x="466" y="116"/>
      <point x="491" y="87"/>
      <point x="503" y="76" type="qcurve" smooth="yes"/>
      <point x="536" y="42"/>
      <point x="572" y="15"/>
      <point x="595" y="7" type="qcurve" smooth="yes"/>
      <point x="626" y="-3"/>
      <point x="656" y="-32"/>
    </contour>
    <contour>
      <point x="166" y="67" type="qcurve" smooth="yes"/>
      <point x="196" y="58"/>
      <point x="254" y="63"/>
      <point x="319" y="91"/>
      <point x="357" y="117" type="qcurve" smooth="yes"/>
      <point x="376" y="131" type="line"/>
      <point x="351" y="160" type="line" smooth="yes"/>
      <point x="344" y="168"/>
      <point x="316" y="206"/>
      <point x="302" y="223" type="qcurve" smooth="yes"/>
      <point x="287" y="237"/>
      <point x="271" y="263"/>
      <point x="271" y="263" type="qcurve" smooth="yes"/>
      <point x="268" y="263"/>
      <point x="247" y="243"/>
      <point x="224" y="216"/>
      <point x="218" y="206" type="qcurve"/>
      <point x="195" y="188"/>
      <point x="171" y="153"/>
      <point x="156" y="130" type="qcurve" smooth="yes"/>
      <point x="149" y="114"/>
      <point x="147" y="90"/>
      <point x="156" y="74"/>
    </contour>
    <contour>
      <point x="280" y="357" type="qcurve"/>
      <point x="291" y="369"/>
      <point x="336" y="406"/>
      <point x="389" y="451"/>
      <point x="435" y="498"/>
      <point x="462" y="541"/>
      <point x="457" y="558" type="qcurve" smooth="yes"/>
      <point x="455" y="562"/>
      <point x="426" y="576"/>
      <point x="391" y="588"/>
      <point x="379" y="587" type="qcurve" smooth="yes"/>
      <point x="359" y="589"/>
      <point x="308" y="543"/>
      <point x="285" y="510" type="qcurve" smooth="yes"/>
      <point x="260" y="473"/>
      <point x="250" y="392"/>
    </contour>
  </outline>
</glyph>
<glyph name="parenleft" format="2">
  <advance width="330"/>
  <unicode hex="0028"/>
  <outline>
    <contour>
      <point x="287" y="-128" type="qcurve" smooth="yes"/>
      <point x="246" y="-120"/>
      <point x="180" y="-60"/>
      <point x="166" y="-17" type="qcurve"/>
      <point x="147" y="25"/>
      <point x="149" y="160"/>
      <point x="168" y="230" type="qcurve" smooth="yes"/>
      <point x="173" y="249"/>
      <point x="181" y="289"/>
      <point x="182" y="296" type="qcurve" smooth="yes"/>
      <point x="185" y="306"/>
      <point x="205" y="352"/>
      <point x="231" y="411"/>
      <point x="256" y="470"/>
      <point x="265" y="493" type="qcurve" smooth="yes"/>
      <point x="276" y="518"/>
      <point x="319" y="586"/>
      <point x="366" y="654"/>
      <point x="405" y="704"/>
      <point x="413" y="710" type="qcurve" smooth="yes"/>
      <point x="418" y="715"/>
      <point x="436" y="731"/>
      <point x="443" y="732" type="qcurve"/>
      <point x="447" y="743"/>
      <point x="471" y="757"/>
      <point x="480" y="757" type="qcurve"/>
      <point x="503" y="769"/>
      <point x="530" y="759"/>
      <point x="538" y="729" type="qcurve" smooth="yes"/>
      <point x="541" y="715"/>
      <point x="536" y="707"/>
      <point x="516" y="698" type="qcurve" smooth="yes"/>
      <point x="506" y="694"/>
      <point x="476" y="679"/>
      <point x="469" y="671" type="qcurve" smooth="yes"/>
      <point x="460" y="660"/>
      <point x="438" y="638"/>
      <point x="432" y="634" type="qcurve" smooth="yes"/>
      <point x="414" y="627"/>
      <point x="414" y="618" type="qcurve"/>
      <point x="414" y="618"/>
      <point x="397" y="584"/>
      <point x="378" y="560" type="qcurve" smooth="yes"/>
      <point x="366" y="541"/>
      <point x="334" y="485"/>
      <point x="325" y="471" type="qcurve" smooth="yes"/>
      <point x="316" y="455"/>
      <point x="305" y="434"/>
      <point x="295" y="423" type="qcurve" smooth="yes"/>
      <point x="295" y="420"/>
      <point x="289" y="398"/>
      <point x="280" y="384" type="qcurve"/>
      <point x="274" y="362"/>
      <point x="256" y="325" type="qcurve" smooth="yes"/>
      <point x="249" y="309"/>
      <point x="230" y="257"/>
      <point x="217" y="209"/>
      <point x="217" y="199" type="qcurve"/>
      <point x="215" y="199"/>
      <point x="212" y="188"/>
      <point x="207" y="151"/>
      <point x="201" y="110" type="qcurve"/>
      <point x="200" y="65"/>
      <point x="207" y="7"/>
      <point x="229" y="-34"/>
      <point x="247" y="-54" type="qcurve" smooth="yes"/>
      <point x="258" y="-64"/>
      <point x="280" y="-74"/>
      <point x="295" y="-75" type="qcurve"/>
      <point x="329" y="-96" type="line"/>
      <point x="323" y="-119"/>
      <point x="304" y="-130"/>
    </contour>
  </outline>
</glyph>
<glyph name="asterisk" format="2">
  <advance width="363"/>
  <unicode hex="002A"/>
  <outline>
    <contour>
      <point x="422" y="407" type="qcurve" smooth="yes"/>
      <point x="412" y="400"/>
      <point x="384" y="426"/>
      <point x="374" y="444" type="qcurve" smooth="yes"/>
      <point x="371" y="451"/>
      <point x="362" y="478"/>
      <point x="356" y="494" type="qcurve" smooth="yes"/>
      <point x="355" y="507"/>
      <point x="354" y="531"/>
      <point x="354" y="531" type="qcurve" smooth="yes"/>
      <point x="353" y="532"/>
      <point x="297" y="490"/>
      <point x="252" y="445" type="qcurve" smooth="yes"/>
      <point x="224" y="419"/>
      <point x="206" y="409"/>
      <point x="200" y="410" type="qcurve" smooth="yes"/>
      <point x="193" y="411"/>
      <point x="189" y="420"/>
      <point x="189" y="421" type="qcurve" smooth="yes"/>
      <point x="188" y="424"/>
      <point x="188" y="445"/>
      <point x="191" y="452" type="qcurve" smooth="yes"/>
      <point x="196" y="458"/>
      <point x="228" y="492"/>
      <point x="267" y="530"/>
      <point x="297" y="560"/>
      <point x="301" y="563" type="qcurve" smooth="yes"/>
      <point x="309" y="571"/>
      <point x="309" y="577"/>
      <point x="301" y="584" type="qcurve" smooth="yes"/>
      <point x="297" y="589"/>
      <point x="292" y="594"/>
      <point x="296" y="594" type="qcurve"/>
      <point x="296" y="594"/>
      <point x="295" y="600"/>
      <point x="291" y="601" type="qcurve" smooth="yes"/>
      <point x="288" y="606"/>
      <point x="285" y="616"/>
      <point x="285" y="618" type="qcurve" smooth="yes"/>
      <point x="285" y="623"/>
      <point x="285" y="628"/>
      <point x="285" y="628" type="qcurve"/>
      <point x="281" y="631"/>
      <point x="278" y="648"/>
      <point x="280" y="665"/>
      <point x="282" y="667" type="qcurve" smooth="yes"/>
      <point x="282" y="667"/>
      <point x="287" y="666"/>
      <point x="291" y="662" type="qcurve" smooth="yes"/>
      <point x="295" y="662"/>
      <point x="304" y="649"/>
      <point x="311" y="638" type="qcurve" smooth="yes"/>
      <point x="319" y="622"/>
      <point x="332" y="607"/>
      <point x="339" y="607" type="qcurve"/>
      <point x="339" y="607"/>
      <point x="354" y="634"/>
      <point x="356" y="652" type="qcurve"/>
      <point x="370" y="671"/>
      <point x="390" y="706"/>
      <point x="395" y="713" type="qcurve" smooth="yes"/>
      <point x="397" y="719"/>
      <point x="405" y="729"/>
      <point x="405" y="729" type="qcurve"/>
      <point x="405" y="729"/>
      <point x="409" y="739"/>
      <point x="413" y="740" type="qcurve"/>
      <point x="413" y="740" type="line"/>
      <point x="413" y="740" type="line"/>
      <point x="420" y="748"/>
      <point x="425" y="751"/>
      <point x="427" y="749" type="qcurve" smooth="yes"/>
      <point x="431" y="744"/>
      <point x="440" y="737"/>
      <point x="442" y="729" type="qcurve" smooth="yes"/>
      <point x="452" y="713" type="line"/>
      <point x="439" y="696" type="line" smooth="yes"/>
      <point x="417" y="663"/>
      <point x="396" y="608"/>
      <point x="398" y="608" type="qcurve" smooth="yes"/>
      <point x="398" y="608"/>
      <point x="417" y="616"/>
      <point x="427" y="618" type="qcurve" smooth="yes"/>
      <point x="438" y="623"/>
      <point x="458" y="628"/>
      <point x="460" y="629" type="qcurve" smooth="yes"/>
      <point x="470" y="629"/>
      <point x="484" y="638" type="qcurve" smooth="yes"/>
      <point x="499" y="643"/>
      <point x="508" y="638" type="qcurve" smooth="yes"/>
      <point x="516" y="631"/>
      <point x="522" y="606"/>
      <point x="522" y="601" type="qcurve" smooth="yes"/>
      <point x="521" y="600"/>
      <point x="486" y="583"/>
      <point x="460" y="575" type="qcurve" smooth="yes"/>
      <point x="435" y="568"/>
      <point x="397" y="554"/>
      <point x="395" y="549" type="qcurve"/>
      <point x="383" y="549"/>
      <point x="395" y="532" type="qcurve" smooth="yes"/>
      <point x="397" y="526"/>
      <point x="397" y="508"/>
      <point x="398" y="497" type="qcurve" smooth="yes"/>
      <point x="403" y="478"/>
      <point x="408" y="453"/>
      <point x="409" y="453" type="qcurve" smooth="yes"/>
      <point x="413" y="453"/>
      <point x="413" y="459" type="qcurve" smooth="yes"/>
      <point x="413" y="463"/>
      <point x="422" y="463" type="qcurve" smooth="yes"/>
      <point x="425" y="463"/>
      <point x="432" y="454"/>
      <point x="437" y="444"/>
      <point x="435" y="442" type="qcurve" smooth="yes"/>
      <point x="435" y="442"/>
      <point x="435" y="436"/>
      <point x="435" y="436" type="qcurve"/>
      <point x="439" y="435"/>
      <point x="434" y="421"/>
      <point x="425" y="407"/>
    </contour>
  </outline>
</glyph>
<glyph name="plus" format="2">
  <advance width="446"/>
  <unicode hex="002B"/>
  <outline>
    <contour>
      <point x="178" y="178" type="qcurve" smooth="yes"/>
      <point x="172" y="178"/>
      <point x="154" y="179"/>
      <point x="143" y="183" type="qcurve"/>
      <point x="128" y="183"/>
      <point x="118" y="190"/>
      <point x="114" y="197" type="qcurve" smooth="yes"/>
      <point x="103" y="212"/>
      <point x="121" y="223"/>
      <point x="158" y="227" type="qcurve" smooth="yes"/>
      <point x="175" y="231"/>
      <point x="242" y="236"/>
      <point x="320" y="239"/>
      <point x="390" y="241"/>
      <point x="410" y="241" type="qcurve" smooth="yes"/>
      <point x="436" y="241"/>
      <point x="454" y="237"/>
      <point x="465" y="226" type="qcurve" smooth="yes"/>
      <point x="480" y="211"/>
      <point x="472" y="184"/>
      <point x="449" y="188" type="qcurve" smooth="yes"/>
      <point x="444" y="188"/>
      <point x="423" y="186"/>
      <point x="398" y="184"/>
      <point x="386" y="183" type="qcurve" smooth="yes"/>
      <point x="380" y="183"/>
      <point x="326" y="181"/>
      <point x="255" y="179"/>
      <point x="192" y="178"/>
    </contour>
    <contour>
      <point x="304" y="31" type="qcurve" smooth="yes"/>
      <point x="289" y="20"/>
      <point x="278" y="38"/>
      <point x="274" y="75" type="qcurve" smooth="yes"/>
      <point x="270" y="92"/>
      <point x="265" y="159"/>
      <point x="262" y="237"/>
      <point x="260" y="307"/>
      <point x="260" y="327" type="qcurve" smooth="yes"/>
      <point x="260" y="353"/>
      <point x="265" y="371"/>
      <point x="275" y="382" type="qcurve" smooth="yes"/>
      <point x="290" y="397"/>
      <point x="317" y="389"/>
      <point x="313" y="366" type="qcurve" smooth="yes"/>
      <point x="314" y="361"/>
      <point x="315" y="340"/>
      <point x="317" y="315"/>
      <point x="318" y="303" type="qcurve" smooth="yes"/>
      <point x="318" y="297"/>
      <point x="320" y="243"/>
      <point x="322" y="172"/>
      <point x="323" y="109"/>
      <point x="323" y="95" type="qcurve" smooth="yes"/>
      <point x="323" y="89"/>
      <point x="322" y="71"/>
      <point x="318" y="60" type="qcurve"/>
      <point x="318" y="45"/>
      <point x="311" y="35"/>
    </contour>
  </outline>
</glyph>
<glyph name="period" format="2">
  <advance width="198"/>
  <unicode hex="002E"/>
  <outline>
    <contour>
      <point x="153" y="52" type="qcurve" smooth="yes"/>
      <point x="134" y="45"/>
      <point x="109" y="46"/>
      <point x="94" y="57" type="qcurve" smooth="yes"/>
      <point x="75" y="75"/>
      <point x="88" y="112"/>
      <point x="114" y="130" type="qcurve" smooth="yes"/>
      <point x="132" y="141"/>
      <point x="149" y="143"/>
      <point x="167" y="135" type="qcurve" smooth="yes"/>
      <point x="197" y="116"/>
      <point x="190" y="70"/>
    </contour>
  </outline>
</glyph>
<glyph name="slash" format="2">
  <advance width="330"/>
  <unicode hex="002F"/>
  <outline>
    <contour>
      <point x="67" y="-94" type="qcurve" smooth="yes"/>
      <point x="37" y="-95"/>
      <point x="29" y="-29"/>
      <point x="53" y="23" type="qcurve" smooth="yes"/>
      <point x="59" y="34"/>
      <point x="71" y="55"/>
      <point x="72" y="62" type="qcurve" smooth="yes"/>
      <point x="75" y="68"/>
      <point x="102" y="119"/>
      <point x="141" y="191"/>
      <point x="184" y="269"/>
      <point x="222" y="338"/>
      <point x="248" y="384"/>
      <point x="250" y="386" type="qcurve" smooth="yes"/>
      <point x="254" y="385"/>
      <point x="263" y="398"/>
      <point x="264" y="405" type="qcurve" smooth="yes"/>
      <point x="266" y="413"/>
      <point x="277" y="431"/>
      <point x="281" y="433" type="qcurve" smooth="yes"/>
      <point x="283" y="438"/>
      <point x="290" y="450"/>
      <point x="291" y="454" type="qcurve" smooth="yes"/>
      <point x="292" y="458"/>
      <point x="298" y="465"/>
      <point x="299" y="469" type="qcurve" smooth="yes"/>
      <point x="307" y="478"/>
      <point x="333" y="517"/>
      <point x="366" y="567"/>
      <point x="399" y="619"/>
      <point x="427" y="665"/>
      <point x="445" y="697"/>
      <point x="446" y="701" type="qcurve" smooth="yes"/>
      <point x="449" y="716"/>
      <point x="466" y="713" type="qcurve"/>
      <point x="471" y="717"/>
      <point x="482" y="715" type="qcurve"/>
      <point x="482" y="715"/>
      <point x="487" y="706"/>
      <point x="494" y="696" type="qcurve" smooth="yes"/>
      <point x="501" y="687"/>
      <point x="500" y="669"/>
      <point x="497" y="658" type="qcurve" smooth="yes"/>
      <point x="495" y="645"/>
      <point x="485" y="626"/>
      <point x="459" y="593"/>
      <point x="432" y="558" type="qcurve" smooth="yes"/>
      <point x="426" y="549"/>
      <point x="413" y="532"/>
      <point x="402" y="519"/>
      <point x="396" y="510"/>
      <point x="396" y="508" type="qcurve" smooth="yes"/>
      <point x="395" y="504"/>
      <point x="384" y="489"/>
      <point x="378" y="478" type="qcurve" smooth="yes"/>
      <point x="372" y="471"/>
      <point x="352" y="443"/>
      <point x="331" y="413"/>
      <point x="315" y="390"/>
      <point x="315" y="388" type="qcurve" smooth="yes"/>
      <point x="314" y="385"/>
      <point x="311" y="377"/>
      <point x="306" y="374" type="qcurve" smooth="yes"/>
      <point x="302" y="375"/>
      <point x="299" y="364"/>
      <point x="299" y="364" type="qcurve" smooth="yes"/>
      <point x="299" y="356"/>
      <point x="273" y="315" type="qcurve" smooth="yes"/>
      <point x="262" y="295"/>
      <point x="219" y="215"/>
      <point x="168" y="118"/>
      <point x="120" y="25"/>
      <point x="87" y="-43"/>
      <point x="85" y="-54" type="qcurve" smooth="yes"/>
      <point x="81" y="-77"/>
      <point x="75" y="-92"/>
    </contour>
  </outline>
</glyph>
<glyph name="zero" format="2">
  <advance width="450"/>
  <unicode hex="0030"/>
  <outline>
    <contour>
      <point x="280" y="21" type="qcurve" smooth="yes"/>
      <point x="273" y="21"/>
      <point x="244" y="34"/>
      <point x="212" y="53"/>
      <point x="202" y="62" type="qcurve" smooth="yes"/>
      <point x="180" y="83"/>
      <point x="150" y="143"/>
      <point x="138" y="212"/>
      <point x="143" y="244" type="qcurve" smooth="yes"/>
      <point x="154" y="308"/>
      <point x="228" y="433"/>
      <point x="276" y="474" type="qcurve" smooth="yes"/>
      <point x="302" y="497"/>
      <point x="344" y="522"/>
      <point x="374" y="529" type="qcurve" smooth="yes"/>
      <point x="385" y="532"/>
      <point x="411" y="533"/>
      <point x="418" y="533" type="qcurve" smooth="yes"/>
      <point x="438" y="533"/>
      <point x="478" y="517"/>
      <point x="506" y="494"/>
      <point x="506" y="484" type="qcurve" smooth="yes"/>
      <point x="506" y="477"/>
      <point x="504" y="470"/>
      <point x="496" y="474" type="qcurve"/>
      <point x="486" y="474" type="line"/>
      <point x="496" y="445" type="line" smooth="yes"/>
      <point x="500" y="437"/>
      <point x="506" y="410"/>
      <point x="506" y="399" type="qcurve" smooth="yes"/>
      <point x="506" y="390"/>
      <point x="500" y="351"/>
      <point x="490" y="307"/>
      <point x="480" y="269"/>
      <point x="476" y="260" type="qcurve" smooth="yes"/>
      <point x="473" y="254"/>
      <point x="472" y="243"/>
      <point x="472" y="239" type="qcurve" smooth="yes"/>
      <point x="468" y="232"/>
      <point x="451" y="192"/>
      <point x="447" y="184" type="qcurve" smooth="yes"/>
      <point x="443" y="180"/>
      <point x="438" y="174"/>
      <point x="442" y="170" type="qcurve" smooth="yes"/>
      <point x="442" y="168"/>
      <point x="432" y="147"/>
      <point x="421" y="129"/>
      <point x="418" y="129" type="qcurve" smooth="yes"/>
      <point x="418" y="129"/>
      <point x="413" y="128"/>
      <point x="413" y="125" type="qcurve" smooth="yes"/>
      <point x="413" y="121"/>
      <point x="387" y="88"/>
      <point x="369" y="70" type="qcurve" smooth="yes"/>
      <point x="359" y="60"/>
      <point x="324" y="37"/>
      <point x="290" y="21"/>
    </contour>
    <contour>
      <point x="277" y="84" type="qcurve" smooth="yes"/>
      <point x="288" y="84"/>
      <point x="308" y="91"/>
      <point x="315" y="98" type="qcurve" smooth="yes"/>
      <point x="333" y="110"/>
      <point x="381" y="165"/>
      <point x="392" y="191" type="qcurve"/>
      <point x="403" y="206"/>
      <point x="416" y="239"/>
      <point x="430" y="279" type="qcurve" smooth="yes"/>
      <point x="438" y="290"/>
      <point x="444" y="322"/>
      <point x="444" y="333" type="qcurve" smooth="yes"/>
      <point x="444" y="344"/>
      <point x="445" y="382"/>
      <point x="449" y="395" type="qcurve"/>
      <point x="449" y="421"/>
      <point x="447" y="438"/>
      <point x="440" y="446" type="qcurve" smooth="yes"/>
      <point x="436" y="449"/>
      <point x="423" y="455"/>
      <point x="416" y="455" type="qcurve" smooth="yes"/>
      <point x="409" y="455"/>
      <point x="371" y="440"/>
      <point x="363" y="435" type="qcurve" smooth="yes"/>
      <point x="356" y="431"/>
      <point x="339" y="437"/>
      <point x="339" y="442" type="qcurve" smooth="yes"/>
      <point x="339" y="456"/>
      <point x="303" y="433"/>
      <point x="281" y="406" type="qcurve" smooth="yes"/>
      <point x="263" y="388"/>
      <point x="238" y="351"/>
      <point x="238" y="347" type="qcurve" smooth="yes"/>
      <point x="238" y="343"/>
      <point x="232" y="331"/>
      <point x="229" y="323" type="qcurve" smooth="yes"/>
      <point x="224" y="316"/>
      <point x="210" y="284"/>
      <point x="197" y="253"/>
      <point x="195" y="245" type="qcurve" smooth="yes"/>
      <point x="195" y="241"/>
      <point x="195" y="206"/>
      <point x="195" y="191" type="qcurve" smooth="yes"/>
      <point x="195" y="174"/>
      <point x="198" y="150"/>
      <point x="204" y="133"/>
      <point x="209" y="123" type="qcurve" smooth="yes"/>
      <point x="213" y="116"/>
      <point x="230" y="97"/>
      <point x="233" y="93" type="qcurve" smooth="yes"/>
      <point x="244" y="83"/>
      <point x="258" y="80"/>
    </contour>
  </outline>
</glyph>
<glyph name="five" format="2">
  <advance width="450"/>
  <unicode hex="0035"/>
  <outline>
    <contour>
      <point x="167" y="24" type="qcurve" smooth="yes"/>
      <point x="149" y="37"/>
      <point x="149" y="46" type="qcurve"/>
      <point x="145" y="52"/>
      <point x="140" y="52" type="qcurve" smooth="yes"/>
      <point x="137" y="51"/>
      <point x="132" y="65"/>
      <point x="129" y="84"/>
      <point x="130" y="88" type="qcurve" smooth="yes"/>
      <point x="134" y="96"/>
      <point x="150" y="99"/>
      <point x="165" y="92"/>
      <point x="166" y="84" type="qcurve" smooth="yes"/>
      <point x="168" y="76"/>
      <point x="195" y="66"/>
      <point x="217" y="67" type="qcurve" smooth="yes"/>
      <point x="245" y="68"/>
      <point x="306" y="94"/>
      <point x="359" y="134"/>
      <point x="375" y="155" type="qcurve" smooth="yes"/>
      <point x="382" y="169"/>
      <point x="394" y="215"/>
      <point x="398" y="251"/>
      <point x="393" y="251" type="qcurve"/>
      <point x="393" y="251"/>
      <point x="390" y="265"/>
      <point x="387" y="273" type="qcurve" smooth="yes"/>
      <point x="382" y="288"/>
      <point x="346" y="319"/>
      <point x="329" y="326" type="qcurve" smooth="yes"/>
      <point x="322" y="328"/>
      <point x="285" y="331"/>
      <point x="270" y="329" type="qcurve" smooth="yes"/>
      <point x="254" y="328"/>
      <point x="229" y="330"/>
      <point x="229" y="330" type="qcurve" smooth="yes"/>
      <point x="224" y="331"/>
      <point x="205" y="345"/>
      <point x="189" y="361"/>
      <point x="189" y="366" type="qcurve" smooth="yes"/>
      <point x="191" y="373"/>
      <point x="207" y="404"/>
      <point x="230" y="443"/>
      <point x="256" y="478"/>
      <point x="268" y="490" type="qcurve" smooth="yes"/>
      <point x="298" y="523"/>
      <point x="375" y="556"/>
      <point x="416" y="554" type="qcurve" smooth="yes"/>
      <point x="445" y="553"/>
      <point x="470" y="546"/>
      <point x="482" y="530" type="qcurve" smooth="yes"/>
      <point x="490" y="516"/>
      <point x="488" y="494"/>
      <point x="474" y="486"/>
      <point x="462" y="492" type="qcurve" smooth="yes"/>
      <point x="448" y="501"/>
      <point x="399" y="497"/>
      <point x="372" y="489" type="qcurve" smooth="yes"/>
      <point x="351" y="481"/>
      <point x="304" y="446"/>
      <point x="299" y="435" type="qcurve" smooth="yes"/>
      <point x="295" y="432"/>
      <point x="292" y="426"/>
      <point x="288" y="427" type="qcurve" smooth="yes"/>
      <point x="288" y="427"/>
      <point x="282" y="420"/>
      <point x="282" y="416" type="qcurve" smooth="yes"/>
      <point x="277" y="410"/>
      <point x="274" y="405"/>
      <point x="270" y="409" type="qcurve"/>
      <point x="270" y="409"/>
      <point x="270" y="403"/>
      <point x="269" y="399" type="qcurve" smooth="yes"/>
      <point x="268" y="392"/>
      <point x="273" y="383"/>
      <point x="292" y="381" type="qcurve" smooth="yes"/>
      <point x="317" y="377"/>
      <point x="343" y="370"/>
      <point x="368" y="355" type="qcurve" smooth="yes"/>
      <point x="396" y="339"/>
      <point x="430" y="286"/>
      <point x="443" y="220"/>
      <point x="438" y="186" type="qcurve" smooth="yes"/>
      <point x="435" y="164"/>
      <point x="429" y="140"/>
      <point x="415" y="119" type="qcurve" smooth="yes"/>
      <point x="392" y="87"/>
      <point x="326" y="38"/>
      <point x="254" y="11"/>
      <point x="189" y="9"/>
    </contour>
  </outline>
</glyph>
<glyph name="six" format="2">
  <advance width="450"/>
  <unicode hex="0036"/>
  <outline>
    <contour>
      <point x="253" y="31" type="qcurve" smooth="yes"/>
      <point x="220" y="22"/>
      <point x="176" y="27"/>
      <point x="155" y="47" type="qcurve" smooth="yes"/>
      <point x="141" y="58"/>
      <point x="127" y="78"/>
      <point x="124" y="98" type="qcurve" smooth="yes"/>
      <point x="119" y="113"/>
      <point x="117" y="131"/>
      <point x="122" y="157"/>
      <point x="127" y="184" type="qcurve" smooth="yes"/>
      <point x="135" y="220"/>
      <point x="147" y="261"/>
      <point x="165" y="286" type="qcurve"/>
      <point x="173" y="307"/>
      <point x="194" y="350"/>
      <point x="199" y="356" type="qcurve" smooth="yes"/>
      <point x="204" y="363"/>
      <point x="224" y="391"/>
      <point x="235" y="403" type="qcurve" smooth="yes"/>
      <point x="245" y="416"/>
      <point x="262" y="439"/>
      <point x="262" y="439" type="qcurve" smooth="yes"/>
      <point x="267" y="442"/>
      <point x="276" y="448"/>
      <point x="281" y="455" type="qcurve" smooth="yes"/>
      <point x="289" y="464"/>
      <point x="318" y="488"/>
      <point x="355" y="510"/>
      <point x="392" y="526"/>
      <point x="408" y="528" type="qcurve" smooth="yes"/>
      <point x="440" y="539"/>
      <point x="438" y="527" type="qcurve"/>
      <point x="438" y="527"/>
      <point x="444" y="521"/>
      <point x="452" y="519" type="qcurve" smooth="yes"/>
      <point x="456" y="518"/>
      <point x="461" y="507"/>
      <point x="464" y="502" type="qcurve" smooth="yes"/>
      <point x="466" y="494"/>
      <point x="461" y="482"/>
      <point x="447" y="469" type="qcurve" smooth="yes"/>
      <point x="433" y="459"/>
      <point x="422" y="457"/>
      <point x="418" y="461" type="qcurve" smooth="yes"/>
      <point x="419" y="465"/>
      <point x="409" y="468"/>
      <point x="409" y="468" type="qcurve" smooth="yes"/>
      <point x="403" y="470"/>
      <point x="363" y="448"/>
      <point x="318" y="414"/>
      <point x="303" y="398" type="qcurve" smooth="yes"/>
      <point x="294" y="390"/>
      <point x="280" y="374"/>
      <point x="278" y="370" type="qcurve" smooth="yes"/>
      <point x="265" y="357"/>
      <point x="245" y="332"/>
      <point x="245" y="332" type="qcurve"/>
      <point x="248" y="326"/>
      <point x="271" y="332"/>
      <point x="272" y="336" type="qcurve" smooth="yes"/>
      <point x="272" y="340"/>
      <point x="317" y="353"/>
      <point x="340" y="355" type="qcurve" smooth="yes"/>
      <point x="349" y="359"/>
      <point x="380" y="353"/>
      <point x="390" y="351" type="qcurve" smooth="yes"/>
      <point x="412" y="347"/>
      <point x="428" y="339"/>
      <point x="440" y="324" type="qcurve" smooth="yes"/>
      <point x="460" y="305"/>
      <point x="475" y="268"/>
      <point x="474" y="242" type="qcurve" smooth="yes"/>
      <point x="474" y="226"/>
      <point x="468" y="202"/>
      <point x="457" y="189" type="qcurve" smooth="yes"/>
      <point x="449" y="176"/>
      <point x="423" y="141"/>
      <point x="398" y="113"/>
      <point x="389" y="107" type="qcurve" smooth="yes"/>
      <point x="385" y="105"/>
      <point x="378" y="100"/>
      <point x="378" y="100" type="qcurve"/>
      <point x="377" y="94"/>
      <point x="350" y="75"/>
      <point x="310" y="53"/>
      <point x="269" y="35"/>
    </contour>
    <contour>
      <point x="186" y="80" type="qcurve" smooth="yes"/>
      <point x="204" y="76"/>
      <point x="224" y="77"/>
      <point x="249" y="87" type="qcurve" smooth="yes"/>
      <point x="257" y="89"/>
      <point x="271" y="93"/>
      <point x="275" y="92" type="qcurve" smooth="yes"/>
      <point x="275" y="92"/>
      <point x="303" y="111"/>
      <point x="322" y="122" type="qcurve" smooth="yes"/>
      <point x="375" y="156"/>
      <point x="433" y="239"/>
      <point x="428" y="266" type="qcurve" smooth="yes"/>
      <point x="429" y="274"/>
      <point x="422" y="289"/>
      <point x="423" y="293" type="qcurve"/>
      <point x="420" y="293"/>
      <point x="406" y="297"/>
      <point x="395" y="299" type="qcurve" smooth="yes"/>
      <point x="383" y="302"/>
      <point x="360" y="300"/>
      <point x="315" y="291"/>
      <point x="269" y="280" type="qcurve" smooth="yes"/>
      <point x="262" y="278"/>
      <point x="244" y="269"/>
      <point x="235" y="267" type="qcurve" smooth="yes"/>
      <point x="231" y="264"/>
      <point x="215" y="255"/>
      <point x="208" y="253" type="qcurve" smooth="yes"/>
      <point x="196" y="252"/>
      <point x="180" y="216"/>
      <point x="169" y="166" type="qcurve" smooth="yes"/>
      <point x="162" y="132"/>
      <point x="160" y="108"/>
      <point x="165" y="100" type="qcurve" smooth="yes"/>
      <point x="167" y="88"/>
      <point x="179" y="82"/>
    </contour>
  </outline>
</glyph>
<glyph name="seven" format="2">
  <advance width="450"/>
  <unicode hex="0037"/>
  <outline>
    <contour>
      <point x="221" y="-18" type="qcurve" smooth="yes"/>
      <point x="209" y="-16"/>
      <point x="191" y="6"/>
      <point x="185" y="20" type="qcurve" smooth="yes"/>
      <point x="181" y="39"/>
      <point x="221" y="134"/>
      <point x="255" y="198" type="qcurve" smooth="yes"/>
      <point x="277" y="234"/>
      <point x="275" y="246"/>
      <point x="257" y="246" type="qcurve" smooth="yes"/>
      <point x="248" y="248"/>
      <point x="224" y="253"/>
      <point x="221" y="257" type="qcurve" smooth="yes"/>
      <point x="205" y="265"/>
      <point x="200" y="284"/>
      <point x="209" y="285" type="qcurve" smooth="yes"/>
      <point x="213" y="287"/>
      <point x="211" y="294"/>
      <point x="212" y="297" type="qcurve" smooth="yes"/>
      <point x="215" y="298"/>
      <point x="224" y="296"/>
      <point x="229" y="295" type="qcurve" smooth="yes"/>
      <point x="243" y="295"/>
      <point x="257" y="295"/>
      <point x="268" y="295" type="qcurve" smooth="yes"/>
      <point x="273" y="295"/>
      <point x="288" y="295"/>
      <point x="294" y="294" type="qcurve" smooth="yes"/>
      <point x="308" y="292"/>
      <point x="318" y="301"/>
      <point x="332" y="319" type="qcurve" smooth="yes"/>
      <point x="340" y="333"/>
      <point x="374" y="380"/>
      <point x="387" y="405" type="qcurve" smooth="yes"/>
      <point x="435" y="473"/>
      <point x="446" y="519"/>
      <point x="417" y="517" type="qcurve" smooth="yes"/>
      <point x="401" y="516"/>
      <point x="362" y="504"/>
      <point x="324" y="490" type="qcurve" smooth="yes"/>
      <point x="287" y="474"/>
      <point x="258" y="467"/>
      <point x="247" y="473" type="qcurve" smooth="yes"/>
      <point x="241" y="474"/>
      <point x="234" y="485"/>
      <point x="233" y="500"/>
      <point x="234" y="507" type="qcurve" smooth="yes"/>
      <point x="236" y="518"/>
      <point x="314" y="544"/>
      <point x="365" y="557" type="qcurve" smooth="yes"/>
      <point x="388" y="561"/>
      <point x="430" y="563"/>
      <point x="461" y="557"/>
      <point x="465" y="549" type="qcurve" smooth="yes"/>
      <point x="465" y="549"/>
      <point x="470" y="544"/>
      <point x="471" y="548" type="qcurve"/>
      <point x="475" y="547"/>
      <point x="479" y="534"/>
      <point x="485" y="524" type="qcurve" smooth="yes"/>
      <point x="495" y="507"/>
      <point x="500" y="491"/>
      <point x="497" y="476" type="qcurve" smooth="yes"/>
      <point x="494" y="465"/>
      <point x="480" y="443"/>
      <point x="476" y="440" type="qcurve" smooth="yes"/>
      <point x="471" y="436"/>
      <point x="466" y="426"/>
      <point x="466" y="426" type="qcurve" smooth="yes"/>
      <point x="465" y="422"/>
      <point x="455" y="415"/>
      <point x="450" y="409" type="qcurve" smooth="yes"/>
      <point x="449" y="405"/>
      <point x="442" y="395"/>
      <point x="441" y="392" type="qcurve" smooth="yes"/>
      <point x="440" y="391"/>
      <point x="426" y="369"/>
      <point x="406" y="339"/>
      <point x="389" y="314"/>
      <point x="386" y="309" type="qcurve" smooth="yes"/>
      <point x="372" y="296"/>
      <point x="372" y="284"/>
      <point x="385" y="278" type="qcurve" smooth="yes"/>
      <point x="402" y="271"/>
      <point x="424" y="252"/>
      <point x="428" y="238" type="qcurve" smooth="yes"/>
      <point x="429" y="218"/>
      <point x="423" y="215" type="qcurve" smooth="yes"/>
      <point x="418" y="208"/>
      <point x="397" y="210"/>
      <point x="394" y="214" type="qcurve" smooth="yes"/>
      <point x="391" y="220"/>
      <point x="370" y="231"/>
      <point x="350" y="237"/>
      <point x="347" y="237" type="qcurve" smooth="yes"/>
      <point x="343" y="235"/>
      <point x="335" y="224"/>
      <point x="330" y="218" type="qcurve" smooth="yes"/>
      <point x="323" y="208"/>
      <point x="300" y="163"/>
      <point x="277" y="120"/>
      <point x="271" y="110" type="qcurve" smooth="yes"/>
      <point x="270" y="105"/>
      <point x="261" y="95"/>
      <point x="259" y="88" type="qcurve" smooth="yes"/>
      <point x="255" y="81"/>
      <point x="249" y="54"/>
      <point x="249" y="33"/>
      <point x="252" y="32" type="qcurve" smooth="yes"/>
      <point x="260" y="34"/>
      <point x="267" y="27"/>
      <point x="269" y="19" type="qcurve" smooth="yes"/>
      <point x="274" y="12"/>
      <point x="258" y="-7"/>
      <point x="232" y="-20"/>
    </contour>
  </outline>
</glyph>
<glyph name="nine" format="2">
  <advance width="450"/>
  <unicode hex="0039"/>
  <outline>
    <contour>
      <point x="313" y="-27" type="qcurve" smooth="yes"/>
      <point x="308" y="-26"/>
      <point x="296" y="-18"/>
      <point x="288" y="-8"/>
      <point x="288" y="-6" type="qcurve" smooth="yes"/>
      <point x="289" y="-1"/>
      <point x="284" y="-1" type="qcurve"/>
      <point x="284" y="-1"/>
      <point x="280" y="12"/>
      <point x="281" y="19" type="qcurve" smooth="yes"/>
      <point x="281" y="22"/>
      <point x="283" y="46"/>
      <point x="283" y="53" type="qcurve" smooth="yes"/>
      <point x="285" y="73"/>
      <point x="301" y="139"/>
      <point x="323" y="212"/>
      <point x="333" y="241" type="qcurve" smooth="yes"/>
      <point x="347" y="277"/>
      <point x="344" y="293"/>
      <point x="320" y="291" type="qcurve" smooth="yes"/>
      <point x="289" y="286"/>
      <point x="238" y="312"/>
      <point x="208" y="363"/>
      <point x="210" y="392" type="qcurve" smooth="yes"/>
      <point x="211" y="407"/>
      <point x="222" y="432"/>
      <point x="235" y="454" type="qcurve" smooth="yes"/>
      <point x="256" y="485"/>
      <point x="306" y="534"/>
      <point x="361" y="566"/>
      <point x="387" y="571" type="qcurve" smooth="yes"/>
      <point x="403" y="574"/>
      <point x="447" y="572"/>
      <point x="459" y="567" type="qcurve" smooth="yes"/>
      <point x="474" y="561"/>
      <point x="501" y="528"/>
      <point x="517" y="492"/>
      <point x="514" y="480" type="qcurve" smooth="yes"/>
      <point x="507" y="447"/>
      <point x="489" y="413"/>
      <point x="476" y="399" type="qcurve" smooth="yes"/>
      <point x="460" y="385"/>
      <point x="417" y="311"/>
      <point x="374" y="216"/>
      <point x="358" y="170" type="qcurve" smooth="yes"/>
      <point x="344" y="128"/>
      <point x="337" y="60"/>
      <point x="344" y="59" type="qcurve" smooth="yes"/>
      <point x="348" y="59"/>
      <point x="361" y="53"/>
      <point x="365" y="53" type="qcurve" smooth="yes"/>
      <point x="368" y="49"/>
      <point x="368" y="39"/>
      <point x="363" y="28" type="qcurve" smooth="yes"/>
      <point x="360" y="21"/>
      <point x="347" y="2"/>
      <point x="331" y="-16"/>
      <point x="317" y="-27"/>
    </contour>
    <contour>
      <point x="268" y="354" type="qcurve" smooth="yes"/>
      <point x="283" y="338"/>
      <point x="335" y="350"/>
      <point x="392" y="394"/>
      <point x="413" y="427" type="qcurve" smooth="yes"/>
      <point x="425" y="441"/>
      <point x="442" y="466"/>
      <point x="446" y="469" type="qcurve" smooth="yes"/>
      <point x="459" y="483"/>
      <point x="462" y="501"/>
      <point x="455" y="508" type="qcurve" smooth="yes"/>
      <point x="448" y="519"/>
      <point x="422" y="521"/>
      <point x="398" y="512" type="qcurve" smooth="yes"/>
      <point x="382" y="509"/>
      <point x="355" y="496"/>
      <point x="334" y="482" type="qcurve" smooth="yes"/>
      <point x="330" y="478"/>
      <point x="322" y="477"/>
      <point x="318" y="478" type="qcurve" smooth="yes"/>
      <point x="318" y="478"/>
      <point x="314" y="477"/>
      <point x="314" y="473" type="qcurve" smooth="yes"/>
      <point x="319" y="464"/>
      <point x="302" y="450" type="qcurve" smooth="yes"/>
      <point x="276" y="422"/>
      <point x="258" y="365"/>
    </contour>
  </outline>
</glyph>
<glyph name="semicolon" format="2">
  <advance width="198"/>
  <unicode hex="003B"/>
  <outline>
    <contour>
      <point x="59" y="-79" type="qcurve" smooth="yes"/>
      <point x="49" y="-79"/>
      <point x="44" y="-76"/>
      <point x="40" y="-69" type="qcurve" smooth="yes"/>
      <point x="40" y="-62"/>
      <point x="47" y="-52"/>
      <point x="54" y="-45" type="qcurve" smooth="yes"/>
      <point x="64" y="-35"/>
      <point x="90" y="-6"/>
      <point x="113" y="24"/>
      <point x="118" y="33" type="qcurve" smooth="yes"/>
      <point x="122" y="44"/>
      <point x="129" y="74"/>
      <point x="133" y="92" type="qcurve" smooth="yes"/>
      <point x="133" y="100"/>
      <point x="134" y="113"/>
      <point x="138" y="117" type="qcurve" smooth="yes"/>
      <point x="145" y="124"/>
      <point x="156" y="122"/>
      <point x="165" y="100"/>
      <point x="167" y="78" type="qcurve" smooth="yes"/>
      <point x="171" y="56"/>
      <point x="163" y="20"/>
      <point x="152" y="-6" type="qcurve" smooth="yes"/>
      <point x="150" y="-13"/>
      <point x="128" y="-41"/>
      <point x="106" y="-65"/>
      <point x="103" y="-65" type="qcurve" smooth="yes"/>
      <point x="99" y="-65"/>
      <point x="93" y="-70"/>
      <point x="89" y="-74" type="qcurve" smooth="yes"/>
      <point x="85" y="-78"/>
      <point x="70" y="-79"/>
    </contour>
    <contour>
      <point x="229" y="262" type="qcurve" smooth="yes"/>
      <point x="210" y="255"/>
      <point x="185" y="256"/>
      <point x="170" y="267" type="qcurve" smooth="yes"/>
      <point x="151" y="285"/>
      <point x="164" y="322"/>
      <point x="190" y="340" type="qcurve" smooth="yes"/>
      <point x="208" y="351"/>
      <point x="225" y="353"/>
      <point x="243" y="345" type="qcurve" smooth="yes"/>
      <point x="273" y="326"/>
      <point x="266" y="280"/>
    </contour>
  </outline>
</glyph>
<glyph name="less" format="2">
  <advance width="446"/>
  <unicode hex="003C"/>
  <outline>
    <contour>
      <point x="369" y="55" type="qcurve" smooth="yes"/>
      <point x="330" y="66"/>
      <point x="292" y="77"/>
      <point x="273" y="91" type="qcurve"/>
      <point x="236" y="103"/>
      <point x="190" y="138"/>
      <point x="167" y="163" type="qcurve" smooth="yes"/>
      <point x="130" y="207" type="line"/>
      <point x="123" y="237" type="line"/>
      <point x="131" y="239"/>
      <point x="161" y="258"/>
      <point x="163" y="259" type="qcurve" smooth="yes"/>
      <point x="174" y="268"/>
      <point x="202" y="287"/>
      <point x="250" y="315"/>
      <point x="290" y="337" type="qcurve" smooth="yes"/>
      <point x="332" y="357"/>
      <point x="364" y="379"/>
      <point x="376" y="387" type="qcurve" smooth="yes"/>
      <point x="383" y="392"/>
      <point x="402" y="404"/>
      <point x="406" y="403" type="qcurve" smooth="yes"/>
      <point x="412" y="404"/>
      <point x="418" y="401"/>
      <point x="422" y="397" type="qcurve" smooth="yes"/>
      <point x="430" y="387"/>
      <point x="451" y="382"/>
      <point x="451" y="374" type="qcurve" smooth="yes"/>
      <point x="451" y="374"/>
      <point x="443" y="359"/>
      <point x="435" y="354" type="qcurve" smooth="yes"/>
      <point x="420" y="346"/>
      <point x="386" y="330"/>
      <point x="334" y="302"/>
      <point x="289" y="275" type="qcurve" smooth="yes"/>
      <point x="262" y="259"/>
      <point x="221" y="237"/>
      <point x="200" y="218"/>
      <point x="202" y="205" type="qcurve" smooth="yes"/>
      <point x="211" y="185"/>
      <point x="306" y="135"/>
      <point x="382" y="112" type="qcurve" smooth="yes"/>
      <point x="409" y="106"/>
      <point x="449" y="86"/>
      <point x="463" y="66"/>
      <point x="449" y="58" type="qcurve" smooth="yes"/>
      <point x="444" y="57"/>
      <point x="423" y="52"/>
      <point x="392" y="51"/>
    </contour>
  </outline>
</glyph>
<glyph name="equal" format="2">
  <advance width="446"/>
  <unicode hex="003D"/>
  <outline>
    <contour>
      <point x="241" y="275" type="qcurve" smooth="yes"/>
      <point x="235" y="275"/>
      <point x="216" y="276"/>
      <point x="199" y="280" type="qcurve" smooth="yes"/>
      <point x="184" y="280"/>
      <point x="174" y="287"/>
      <point x="170" y="294" type="qcurve" smooth="yes"/>
      <point x="156" y="309"/>
      <point x="179" y="320"/>
      <point x="221" y="324" type="qcurve"/>
      <point x="260" y="332"/>
      <point x="348" y="338"/>
      <point x="394" y="338" type="qcurve" smooth="yes"/>
      <point x="425" y="338"/>
      <point x="445" y="334"/>
      <point x="456" y="323" type="qcurve" smooth="yes"/>
      <point x="474" y="308"/>
      <point x="464" y="281"/>
      <point x="440" y="285" type="qcurve" smooth="yes"/>
      <point x="430" y="284"/>
      <point x="386" y="282"/>
      <point x="363" y="280" type="qcurve" smooth="yes"/>
      <point x="356" y="280"/>
      <point x="315" y="277"/>
      <point x="264" y="275"/>
    </contour>
    <contour>
      <point x="186" y="133" type="qcurve" smooth="yes"/>
      <point x="180" y="133"/>
      <point x="161" y="134"/>
      <point x="145" y="138" type="qcurve" smooth="yes"/>
      <point x="129" y="138"/>
      <point x="119" y="145"/>
      <point x="115" y="152" type="qcurve" smooth="yes"/>
      <point x="101" y="167"/>
      <point x="123" y="178"/>
      <point x="166" y="182" type="qcurve"/>
      <point x="205" y="190"/>
      <point x="293" y="196"/>
      <point x="339" y="196" type="qcurve" smooth="yes"/>
      <point x="370" y="196"/>
      <point x="390" y="192"/>
      <point x="401" y="181" type="qcurve" smooth="yes"/>
      <point x="418" y="166"/>
      <point x="408" y="139"/>
      <point x="385" y="143" type="qcurve" smooth="yes"/>
      <point x="375" y="142"/>
      <point x="321" y="140"/>
      <point x="298" y="138" type="qcurve" smooth="yes"/>
      <point x="291" y="138"/>
      <point x="255" y="135"/>
      <point x="209" y="133"/>
    </contour>
  </outline>
</glyph>
<glyph name="greater" format="2">
  <advance width="446"/>
  <unicode hex="003E"/>
  <outline>
    <contour>
      <point x="186" y="43" type="qcurve" smooth="yes"/>
      <point x="180" y="42"/>
      <point x="174" y="47"/>
      <point x="171" y="51" type="qcurve" smooth="yes"/>
      <point x="162" y="61"/>
      <point x="141" y="68"/>
      <point x="144" y="75" type="qcurve" smooth="yes"/>
      <point x="144" y="75"/>
      <point x="152" y="89"/>
      <point x="159" y="95" type="qcurve" smooth="yes"/>
      <point x="176" y="103"/>
      <point x="211" y="116"/>
      <point x="266" y="140"/>
      <point x="312" y="163" type="qcurve" smooth="yes"/>
      <point x="340" y="178"/>
      <point x="381" y="196"/>
      <point x="404" y="215"/>
      <point x="403" y="228" type="qcurve" smooth="yes"/>
      <point x="395" y="248"/>
      <point x="305" y="304"/>
      <point x="229" y="332" type="qcurve" smooth="yes"/>
      <point x="204" y="341"/>
      <point x="164" y="363"/>
      <point x="152" y="384"/>
      <point x="167" y="391" type="qcurve" smooth="yes"/>
      <point x="173" y="392"/>
      <point x="193" y="395"/>
      <point x="226" y="394"/>
      <point x="248" y="387" type="qcurve" smooth="yes"/>
      <point x="285" y="374"/>
      <point x="322" y="362"/>
      <point x="341" y="346" type="qcurve"/>
      <point x="376" y="331"/>
      <point x="420" y="293"/>
      <point x="441" y="265" type="qcurve" smooth="yes"/>
      <point x="475" y="219" type="line"/>
      <point x="480" y="189" type="line"/>
      <point x="472" y="188"/>
      <point x="440" y="171"/>
      <point x="438" y="170" type="qcurve" smooth="yes"/>
      <point x="427" y="162"/>
      <point x="397" y="146"/>
      <point x="348" y="122"/>
      <point x="307" y="102" type="qcurve"/>
      <point x="263" y="86"/>
      <point x="231" y="64"/>
      <point x="217" y="57" type="qcurve" smooth="yes"/>
      <point x="210" y="52"/>
      <point x="191" y="42"/>
    </contour>
  </outline>
</glyph>
<glyph name="question" format="2">
  <advance width="374"/>
  <unicode hex="003F"/>
  <outline>
    <contour>
      <point x="250" y="191" type="qcurve" smooth="yes"/>
      <point x="234" y="193"/>
      <point x="220" y="216"/>
      <point x="220" y="228" type="qcurve" smooth="yes"/>
      <point x="220" y="230"/>
      <point x="221" y="242"/>
      <point x="223" y="250" type="qcurve" smooth="yes"/>
      <point x="223" y="256"/>
      <point x="235" y="282"/>
      <point x="242" y="300" type="qcurve" smooth="yes"/>
      <point x="253" y="320"/>
      <point x="299" y="370"/>
      <point x="315" y="382" type="qcurve" smooth="yes"/>
      <point x="324" y="389"/>
      <point x="332" y="394"/>
      <point x="332" y="394" type="qcurve" smooth="yes"/>
      <point x="332" y="398"/>
      <point x="360" y="421"/>
      <point x="370" y="425" type="qcurve" smooth="yes"/>
      <point x="370" y="425"/>
      <point x="396" y="443"/>
      <point x="403" y="450" type="qcurve" smooth="yes"/>
      <point x="426" y="473"/>
      <point x="448" y="512"/>
      <point x="460" y="562"/>
      <point x="467" y="599" type="qcurve"/>
      <point x="468" y="634"/>
      <point x="467" y="659"/>
      <point x="455" y="668" type="qcurve" smooth="yes"/>
      <point x="434" y="679"/>
      <point x="373" y="662"/>
      <point x="316" y="615"/>
      <point x="301" y="581" type="qcurve" smooth="yes"/>
      <point x="295" y="564"/>
      <point x="294" y="552"/>
      <point x="297" y="542" type="qcurve" smooth="yes"/>
      <point x="297" y="534"/>
      <point x="302" y="520"/>
      <point x="302" y="515" type="qcurve"/>
      <point x="298" y="514"/>
      <point x="277" y="514"/>
      <point x="255" y="516"/>
      <point x="248" y="519" type="qcurve"/>
      <point x="248" y="519"/>
      <point x="240" y="531"/>
      <point x="238" y="535" type="qcurve" smooth="yes"/>
      <point x="232" y="543"/>
      <point x="233" y="558"/>
      <point x="233" y="573" type="qcurve"/>
      <point x="240" y="593"/>
      <point x="264" y="640"/>
      <point x="302" y="682"/>
      <point x="327" y="695" type="qcurve" smooth="yes"/>
      <point x="348" y="704"/>
      <point x="377" y="719"/>
      <point x="377" y="719" type="qcurve"/>
      <point x="377" y="719"/>
      <point x="392" y="720"/>
      <point x="410" y="722" type="qcurve" smooth="yes"/>
      <point x="416" y="721"/>
      <point x="431" y="723"/>
      <point x="431" y="718" type="qcurve"/>
      <point x="434" y="718"/>
      <point x="452" y="718"/>
      <point x="460" y="718" type="qcurve" smooth="yes"/>
      <point x="472" y="715"/>
      <point x="498" y="702"/>
      <point x="521" y="687"/>
      <point x="528" y="679" type="qcurve"/>
      <point x="535" y="657"/>
      <point x="533" y="592"/>
      <point x="515" y="520"/>
      <point x="486" y="455"/>
      <point x="466" y="433" type="qcurve" smooth="yes"/>
      <point x="460" y="427"/>
      <point x="428" y="399"/>
      <point x="393" y="366"/>
      <point x="382" y="354" type="qcurve"/>
      <point x="348" y="335"/>
      <point x="296" y="259"/>
      <point x="283" y="223" type="qcurve" smooth="yes"/>
      <point x="272" y="199"/>
      <point x="264" y="191"/>
    </contour>
    <contour>
      <point x="222" y="10" type="qcurve" smooth="yes"/>
      <point x="203" y="3"/>
      <point x="178" y="4"/>
      <point x="163" y="15" type="qcurve" smooth="yes"/>
      <point x="144" y="33"/>
      <point x="157" y="70"/>
      <point x="183" y="88" type="qcurve" smooth="yes"/>
      <point x="201" y="99"/>
      <point x="218" y="101"/>
      <point x="236" y="93" type="qcurve" smooth="yes"/>
      <point x="266" y="74"/>
      <point x="259" y="28"/>
    </contour>
  </outline>
</glyph>
<glyph name="at" format="2">
  <advance width="643"/>
  <unicode hex="0040"/>
  <outline>
    <contour>
      <point x="307" y="-125" type="qcurve" smooth="yes"/>
      <point x="273" y="-125"/>
      <point x="204" y="-98"/>
      <point x="172" y="-73" type="qcurve" smooth="yes"/>
      <point x="155" y="-57"/>
      <point x="129" y="-24"/>
      <point x="117" y="-3" type="qcurve" smooth="yes"/>
      <point x="109" y="8"/>
      <point x="98" y="45"/>
      <point x="97" y="64" type="qcurve" smooth="yes"/>
      <point x="96" y="81"/>
      <point x="102" y="131"/>
      <point x="114" y="179"/>
      <point x="121" y="193" type="qcurve" smooth="yes"/>
      <point x="121" y="196"/>
      <point x="124" y="203"/>
      <point x="125" y="209" type="qcurve" smooth="yes"/>
      <point x="125" y="215"/>
      <point x="140" y="244"/>
      <point x="148" y="256" type="qcurve" smooth="yes"/>
      <point x="182" y="301"/>
      <point x="227" y="360"/>
      <point x="276" y="408"/>
      <point x="315" y="436" type="qcurve" smooth="yes"/>
      <point x="334" y="451"/>
      <point x="386" y="477"/>
      <point x="440" y="497"/>
      <point x="463" y="500" type="qcurve" smooth="yes"/>
      <point x="467" y="501"/>
      <point x="484" y="501"/>
      <point x="506" y="499" type="qcurve" smooth="yes"/>
      <point x="537" y="496"/>
      <point x="592" y="471"/>
      <point x="613" y="451" type="qcurve" smooth="yes"/>
      <point x="653" y="420"/>
      <point x="685" y="353"/>
      <point x="691" y="327" type="qcurve" smooth="yes"/>
      <point x="695" y="313"/>
      <point x="695" y="261"/>
      <point x="689" y="210"/>
      <point x="683" y="197" type="qcurve" smooth="yes"/>
      <point x="672" y="173"/>
      <point x="640" y="127"/>
      <point x="604" y="88"/>
      <point x="572" y="62"/>
      <point x="561" y="59" type="qcurve" smooth="yes"/>
      <point x="546" y="59"/>
      <point x="497" y="73"/>
      <point x="485" y="83" type="qcurve"/>
      <point x="487" y="83"/>
      <point x="466" y="95" type="qcurve"/>
      <point x="466" y="95"/>
      <point x="452" y="80"/>
      <point x="441" y="71" type="qcurve" smooth="yes"/>
      <point x="427" y="58"/>
      <point x="392" y="37"/>
      <point x="360" y="27"/>
      <point x="352" y="29" type="qcurve" smooth="yes"/>
      <point x="333" y="34"/>
      <point x="311" y="42"/>
      <point x="292" y="59"/>
      <point x="278" y="78" type="qcurve" smooth="yes"/>
      <point x="274" y="88"/>
      <point x="271" y="105"/>
      <point x="271" y="112" type="qcurve" smooth="yes"/>
      <point x="271" y="122"/>
      <point x="277" y="146"/>
      <point x="281" y="161" type="qcurve" smooth="yes"/>
      <point x="287" y="188"/>
      <point x="308" y="228"/>
      <point x="325" y="252" type="qcurve" smooth="yes"/>
      <point x="341" y="275"/>
      <point x="378" y="304"/>
      <point x="407" y="316" type="qcurve" smooth="yes"/>
      <point x="419" y="322"/>
      <point x="443" y="322" type="qcurve" smooth="yes"/>
      <point x="452" y="322"/>
      <point x="470" y="318"/>
      <point x="479" y="312" type="qcurve" smooth="yes"/>
      <point x="486" y="311"/>
      <point x="502" y="295"/>
      <point x="516" y="273"/>
      <point x="520" y="263" type="qcurve" smooth="yes"/>
      <point x="523" y="248"/>
      <point x="523" y="234"/>
      <point x="520" y="217" type="qcurve" smooth="yes"/>
      <point x="519" y="213"/>
      <point x="517" y="201"/>
      <point x="515" y="195" type="qcurve" smooth="yes"/>
      <point x="514" y="187"/>
      <point x="510" y="170"/>
      <point x="508" y="165" type="qcurve" smooth="yes"/>
      <point x="505" y="156"/>
      <point x="501" y="140"/>
      <point x="504" y="132" type="qcurve" smooth="yes"/>
      <point x="503" y="128"/>
      <point x="518" y="119"/>
      <point x="537" y="113"/>
      <point x="541" y="113" type="qcurve" smooth="yes"/>
      <point x="546" y="113"/>
      <point x="567" y="123"/>
      <point x="577" y="135" type="qcurve" smooth="yes"/>
      <point x="593" y="152"/>
      <point x="617" y="178"/>
      <point x="635" y="207"/>
      <point x="641" y="229" type="qcurve" smooth="yes"/>
      <point x="642" y="235"/>
      <point x="643" y="253"/>
      <point x="643" y="263" type="qcurve" smooth="yes"/>
      <point x="643" y="313"/>
      <point x="596" y="406"/>
      <point x="543" y="428" type="qcurve" smooth="yes"/>
      <point x="532" y="433"/>
      <point x="503" y="436"/>
      <point x="488" y="436" type="qcurve" smooth="yes"/>
      <point x="466" y="436"/>
      <point x="422" y="429"/>
      <point x="401" y="420" type="qcurve" smooth="yes"/>
      <point x="388" y="416"/>
      <point x="347" y="389"/>
      <point x="301" y="353"/>
      <point x="261" y="316"/>
      <point x="249" y="302" type="qcurve" smooth="yes"/>
      <point x="206" y="251"/>
      <point x="158" y="146"/>
      <point x="151" y="96" type="qcurve" smooth="yes"/>
      <point x="147" y="66"/>
      <point x="156" y="36"/>
      <point x="159" y="30" type="qcurve" smooth="yes"/>
      <point x="170" y="8"/>
      <point x="208" y="-31"/>
      <point x="230" y="-45" type="qcurve"/>
      <point x="253" y="-54"/>
      <point x="312" y="-66"/>
      <point x="350" y="-64" type="qcurve" smooth="yes"/>
      <point x="358" y="-66"/>
      <point x="363" y="-71"/>
      <point x="362" y="-80" type="qcurve" smooth="yes"/>
      <point x="362" y="-81"/>
      <point x="365" y="-85"/>
      <point x="370" y="-96" type="qcurve" smooth="yes"/>
      <point x="370" y="-105"/>
      <point x="362" y="-113"/>
      <point x="354" y="-117" type="qcurve" smooth="yes"/>
      <point x="348" y="-119"/>
      <point x="333" y="-123"/>
      <point x="316" y="-125"/>
    </contour>
    <contour>
      <point x="372" y="85" type="qcurve" smooth="yes"/>
      <point x="382" y="91"/>
      <point x="407" y="112"/>
      <point x="428" y="135"/>
      <point x="431" y="142" type="qcurve" smooth="yes"/>
      <point x="431" y="143"/>
      <point x="439" y="158" type="qcurve" smooth="yes"/>
      <point x="447" y="170"/>
      <point x="462" y="204"/>
      <point x="465" y="221" type="qcurve" smooth="yes"/>
      <point x="467" y="224"/>
      <point x="469" y="233"/>
      <point x="473" y="243" type="qcurve" smooth="yes"/>
      <point x="473" y="249"/>
      <point x="470" y="257"/>
      <point x="462" y="262" type="qcurve"/>
      <point x="463" y="262" type="line"/>
      <point x="451" y="265"/>
      <point x="418" y="268"/>
      <point x="406" y="262" type="qcurve" smooth="yes"/>
      <point x="391" y="256"/>
      <point x="360" y="218"/>
      <point x="335" y="169"/>
      <point x="320" y="121"/>
      <point x="322" y="104" type="qcurve"/>
      <point x="329" y="90"/>
      <point x="356" y="78"/>
    </contour>
  </outline>
</glyph>
<glyph name="H" format="2">
  <advance width="563"/>
  <unicode hex="0048"/>
  <anchor x="568" y="785" name="Anchor-4"/>
  <anchor x="242" y="-110" name="Anchor-1"/>
  <outline>
    <contour>
      <point x="130" y="-83" type="qcurve"/>
      <point x="130" y="-83"/>
      <point x="124" y="-80"/>
      <point x="115" y="-78"/>
      <point x="109" y="-78" type="qcurve" smooth="yes"/>
      <point x="93" y="-74"/>
      <point x="79" y="-47"/>
      <point x="83" y="-31" type="qcurve" smooth="yes"/>
      <point x="87" y="-27"/>
      <point x="91" y="-1"/>
      <point x="91" y="7" type="qcurve" smooth="yes"/>
      <point x="95" y="15"/>
      <point x="97" y="22"/>
      <point x="101" y="38" type="qcurve" smooth="yes"/>
      <point x="104" y="55"/>
      <point x="119" y="116"/>
      <point x="138" y="186"/>
      <point x="156" y="250"/>
      <point x="171" y="294"/>
      <point x="174" y="297" type="qcurve" smooth="yes"/>
      <point x="174" y="297"/>
      <point x="174" y="304"/>
      <point x="174" y="308" type="qcurve" smooth="yes"/>
      <point x="174" y="308"/>
      <point x="177" y="327"/>
      <point x="185" y="339" type="qcurve" smooth="yes"/>
      <point x="189" y="350"/>
      <point x="195" y="376"/>
      <point x="195" y="380" type="qcurve" smooth="yes"/>
      <point x="199" y="385"/>
      <point x="214" y="424"/>
      <point x="221" y="443" type="qcurve" smooth="yes"/>
      <point x="227" y="459"/>
      <point x="242" y="495"/>
      <point x="253" y="521"/>
      <point x="253" y="521" type="qcurve" smooth="yes"/>
      <point x="253" y="525"/>
      <point x="253" y="526"/>
      <point x="253" y="526" type="qcurve"/>
      <point x="257" y="530"/>
      <point x="288" y="603"/>
      <point x="315" y="661" type="qcurve" smooth="yes"/>
      <point x="319" y="669"/>
      <point x="331" y="689"/>
      <point x="331" y="693" type="qcurve" smooth="yes"/>
      <point x="336" y="701"/>
      <point x="354" y="700"/>
      <point x="373" y="688"/>
      <point x="378" y="677" type="qcurve" smooth="yes"/>
      <point x="388" y="661" type="line"/>
      <point x="352" y="589" type="line" smooth="yes"/>
      <point x="336" y="561"/>
      <point x="315" y="515"/>
      <point x="315" y="511" type="qcurve" smooth="yes"/>
      <point x="315" y="511"/>
      <point x="303" y="479"/>
      <point x="287" y="435"/>
      <point x="281" y="417" type="qcurve" smooth="yes"/>
      <point x="270" y="386"/>
      <point x="251" y="346"/>
      <point x="251" y="342" type="qcurve"/>
      <point x="251" y="344"/>
      <point x="295" y="346"/>
      <point x="363" y="346"/>
      <point x="434" y="347"/>
      <point x="489" y="348"/>
      <point x="499" y="350" type="qcurve" smooth="yes"/>
      <point x="551" y="355" type="line"/>
      <point x="585" y="458" type="line" smooth="yes"/>
      <point x="593" y="486"/>
      <point x="619" y="566"/>
      <point x="629" y="594" type="qcurve" smooth="yes"/>
      <point x="645" y="640"/>
      <point x="663" y="662"/>
      <point x="675" y="662" type="qcurve" smooth="yes"/>
      <point x="678" y="662"/>
      <point x="689" y="659"/>
      <point x="700" y="652"/>
      <point x="702" y="646" type="qcurve" smooth="yes"/>
      <point x="714" y="635"/>
      <point x="713" y="607"/>
      <point x="697" y="584" type="qcurve" smooth="yes"/>
      <point x="681" y="557"/>
      <point x="660" y="494"/>
      <point x="652" y="474" type="qcurve"/>
      <point x="652" y="462"/>
      <point x="646" y="447"/>
      <point x="642" y="443" type="qcurve" smooth="yes"/>
      <point x="640" y="441"/>
      <point x="628" y="415"/>
      <point x="618" y="389"/>
      <point x="618" y="386" type="qcurve" smooth="yes"/>
      <point x="618" y="379"/>
      <point x="612" y="359"/>
      <point x="608" y="355" type="qcurve" smooth="yes"/>
      <point x="606" y="349"/>
      <point x="592" y="301"/>
      <point x="574" y="236"/>
      <point x="554" y="175"/>
      <point x="546" y="155" type="qcurve" smooth="yes"/>
      <point x="546" y="148"/>
      <point x="536" y="127"/>
      <point x="536" y="119" type="qcurve" smooth="yes"/>
      <point x="532" y="107"/>
      <point x="520" y="71"/>
      <point x="520" y="66" type="qcurve" smooth="yes"/>
      <point x="515" y="43"/>
      <point x="504" y="-5"/>
      <point x="497" y="-40"/>
      <point x="497" y="-43" type="qcurve" smooth="yes"/>
      <point x="493" y="-47"/>
      <point x="477" y="-41"/>
      <point x="466" y="-37" type="qcurve" smooth="yes"/>
      <point x="447" y="-26"/>
      <point x="440" y="-1"/>
      <point x="451" y="22" type="qcurve" smooth="yes"/>
      <point x="456" y="30"/>
      <point x="471" y="93"/>
      <point x="479" y="124" type="qcurve" smooth="yes"/>
      <point x="485" y="139"/>
      <point x="499" y="190"/>
      <point x="513" y="243"/>
      <point x="523" y="280"/>
      <point x="525" y="282" type="qcurve" smooth="yes"/>
      <point x="525" y="286"/>
      <point x="525" y="292"/>
      <point x="525" y="292" type="qcurve" smooth="yes"/>
      <point x="523" y="294"/>
      <point x="477" y="297"/>
      <point x="409" y="296"/>
      <point x="336" y="293"/>
      <point x="307" y="289" type="qcurve" smooth="yes"/>
      <point x="296" y="289"/>
      <point x="268" y="289"/>
      <point x="260" y="289" type="qcurve" smooth="yes"/>
      <point x="249" y="289"/>
      <point x="234" y="289"/>
      <point x="234" y="289" type="qcurve" smooth="yes"/>
      <point x="233" y="286"/>
      <point x="221" y="250"/>
      <point x="205" y="199"/>
      <point x="188" y="146"/>
      <point x="177" y="103"/>
      <point x="175" y="94" type="qcurve" smooth="yes"/>
      <point x="171" y="76"/>
      <point x="158" y="22"/>
      <point x="143" y="-35"/>
      <point x="132" y="-77"/>
    </contour>
  </outline>
</glyph>
<glyph name="J" format="2">
  <advance width="306"/>
  <unicode hex="004A"/>
  <anchor x="398" y="785" name="Anchor-4"/>
  <outline>
    <contour>
      <point x="89" y="-181" type="qcurve" smooth="yes"/>
      <point x="72" y="-189"/>
      <point x="29" y="-186"/>
      <point x="-13" y="-165"/>
      <point x="-29" y="-148" type="qcurve" smooth="yes"/>
      <point x="-36" y="-140"/>
      <point x="-40" y="-125"/>
      <point x="-36" y="-112" type="qcurve" smooth="yes"/>
      <point x="-31" y="-94"/>
      <point x="-23" y="-94" type="qcurve" smooth="yes"/>
      <point x="-12" y="-94"/>
      <point x="2" y="-113" type="qcurve"/>
      <point x="30" y="-138"/>
      <point x="85" y="-116"/>
      <point x="116" y="-68" type="qcurve" smooth="yes"/>
      <point x="122" y="-53"/>
      <point x="148" y="3"/>
      <point x="177" y="67"/>
      <point x="201" y="122"/>
      <point x="205" y="134" type="qcurve" smooth="yes"/>
      <point x="205" y="134"/>
      <point x="206" y="141"/>
      <point x="210" y="145" type="qcurve" smooth="yes"/>
      <point x="211" y="149"/>
      <point x="219" y="173"/>
      <point x="223" y="189" type="qcurve" smooth="yes"/>
      <point x="227" y="200"/>
      <point x="242" y="244"/>
      <point x="259" y="292"/>
      <point x="265" y="308" type="qcurve" smooth="yes"/>
      <point x="270" y="329"/>
      <point x="285" y="378"/>
      <point x="290" y="391" type="qcurve" smooth="yes"/>
      <point x="294" y="399"/>
      <point x="310" y="448"/>
      <point x="320" y="477" type="qcurve" smooth="yes"/>
      <point x="332" y="516"/>
      <point x="354" y="583"/>
      <point x="367" y="626"/>
      <point x="365" y="629" type="qcurve" smooth="yes"/>
      <point x="365" y="629"/>
      <point x="330" y="623"/>
      <point x="309" y="619" type="qcurve" smooth="yes"/>
      <point x="292" y="612"/>
      <point x="259" y="617"/>
      <point x="260" y="621" type="qcurve" smooth="yes"/>
      <point x="260" y="625"/>
      <point x="260" y="626"/>
      <point x="260" y="626" type="qcurve"/>
      <point x="257" y="624"/>
      <point x="247" y="631"/>
      <point x="239" y="644"/>
      <point x="239" y="649" type="qcurve" smooth="yes"/>
      <point x="239" y="657"/>
      <point x="279" y="670"/>
      <point x="310" y="674" type="qcurve" smooth="yes"/>
      <point x="330" y="677"/>
      <point x="369" y="682"/>
      <point x="382" y="684" type="qcurve" smooth="yes"/>
      <point x="386" y="687"/>
      <point x="407" y="681"/>
      <point x="430" y="671"/>
      <point x="435" y="665" type="qcurve" smooth="yes"/>
      <point x="441" y="657"/>
      <point x="444" y="639"/>
      <point x="436" y="607"/>
      <point x="415" y="548"/>
      <point x="396" y="497" type="qcurve" smooth="yes"/>
      <point x="374" y="435"/>
      <point x="340" y="334"/>
      <point x="326" y="301" type="qcurve" smooth="yes"/>
      <point x="323" y="290"/>
      <point x="308" y="248"/>
      <point x="294" y="205"/>
      <point x="290" y="191" type="qcurve" smooth="yes"/>
      <point x="282" y="172"/>
      <point x="268" y="128"/>
      <point x="264" y="115" type="qcurve" smooth="yes"/>
      <point x="264" y="107"/>
      <point x="256" y="87"/>
      <point x="251" y="82" type="qcurve" smooth="yes"/>
      <point x="251" y="82"/>
      <point x="237" y="47"/>
      <point x="227" y="23" type="qcurve" smooth="yes"/>
      <point x="219" y="3"/>
      <point x="200" y="-46"/>
      <point x="192" y="-59" type="qcurve" smooth="yes"/>
      <point x="187" y="-71"/>
      <point x="173" y="-92"/>
      <point x="173" y="-96" type="qcurve" smooth="yes"/>
      <point x="173" y="-96"/>
      <point x="172" y="-102"/>
      <point x="168" y="-102" type="qcurve" smooth="yes"/>
      <point x="168" y="-102"/>
      <point x="162" y="-107"/>
      <point x="162" y="-112" type="qcurve" smooth="yes"/>
      <point x="160" y="-118"/>
      <point x="143" y="-138"/>
      <point x="120" y="-160"/>
      <point x="97" y="-177"/>
    </contour>
  </outline>
</glyph>
<glyph name="N" format="2">
  <advance width="599"/>
  <unicode hex="004E"/>
  <anchor x="546" y="785" name="Anchor-4"/>
  <anchor x="302" y="-110" name="Anchor-1"/>
  <outline>
    <contour>
      <point x="97" y="-62" type="qcurve" smooth="yes"/>
      <point x="87" y="-51"/>
      <point x="81" y="-36"/>
      <point x="86" y="-15"/>
      <point x="91" y="4" type="qcurve" smooth="yes"/>
      <point x="99" y="36"/>
      <point x="118" y="79"/>
      <point x="137" y="126"/>
      <point x="144" y="163" type="qcurve"/>
      <point x="160" y="200"/>
      <point x="185" y="266"/>
      <point x="199" y="308"/>
      <point x="199" y="308" type="qcurve" smooth="yes"/>
      <point x="200" y="312"/>
      <point x="216" y="346"/>
      <point x="241" y="395"/>
      <point x="252" y="420" type="qcurve" smooth="yes"/>
      <point x="269" y="468"/>
      <point x="290" y="537"/>
      <point x="312" y="593"/>
      <point x="330" y="620" type="qcurve" smooth="yes"/>
      <point x="342" y="641"/>
      <point x="374" y="653"/>
      <point x="403" y="640"/>
      <point x="409" y="620" type="qcurve" smooth="yes"/>
      <point x="414" y="610"/>
      <point x="421" y="582"/>
      <point x="427" y="529"/>
      <point x="428" y="481" type="qcurve" smooth="yes"/>
      <point x="430" y="424"/>
      <point x="428" y="313"/>
      <point x="431" y="219"/>
      <point x="440" y="186" type="qcurve" smooth="yes"/>
      <point x="443" y="168"/>
      <point x="454" y="117"/>
      <point x="467" y="67"/>
      <point x="480" y="33"/>
      <point x="484" y="33" type="qcurve" smooth="yes"/>
      <point x="489" y="33"/>
      <point x="506" y="59"/>
      <point x="533" y="127"/>
      <point x="571" y="252"/>
      <point x="595" y="350" type="qcurve" smooth="yes"/>
      <point x="600" y="367"/>
      <point x="617" y="443"/>
      <point x="621" y="482" type="qcurve"/>
      <point x="628" y="507"/>
      <point x="642" y="567"/>
      <point x="653" y="613"/>
      <point x="653" y="616" type="qcurve" smooth="yes"/>
      <point x="653" y="623"/>
      <point x="654" y="633"/>
      <point x="653" y="638" type="qcurve"/>
      <point x="658" y="638"/>
      <point x="666" y="665"/>
      <point x="666" y="675" type="qcurve" smooth="yes"/>
      <point x="666" y="692"/>
      <point x="675" y="713"/>
      <point x="680" y="718" type="qcurve" smooth="yes"/>
      <point x="683" y="726"/>
      <point x="707" y="725"/>
      <point x="731" y="713"/>
      <point x="734" y="703" type="qcurve" smooth="yes"/>
      <point x="736" y="692"/>
      <point x="721" y="615"/>
      <point x="706" y="550" type="qcurve" smooth="yes"/>
      <point x="706" y="539"/>
      <point x="694" y="489"/>
      <point x="681" y="433"/>
      <point x="678" y="413" type="qcurve" smooth="yes"/>
      <point x="674" y="387"/>
      <point x="664" y="342"/>
      <point x="659" y="343" type="qcurve"/>
      <point x="633" y="230"/>
      <point x="576" y="71"/>
      <point x="554" y="21" type="qcurve" smooth="yes"/>
      <point x="530" y="-34"/>
      <point x="473" y="-57"/>
      <point x="441" y="-16" type="qcurve" smooth="yes"/>
      <point x="422" y="10"/>
      <point x="400" y="61"/>
      <point x="386" y="130"/>
      <point x="376" y="181" type="qcurve"/>
      <point x="361" y="222"/>
      <point x="358" y="306"/>
      <point x="366" y="395"/>
      <point x="368" y="443" type="qcurve" smooth="yes"/>
      <point x="367" y="491"/>
      <point x="361" y="523"/>
      <point x="344" y="488"/>
      <point x="325" y="435" type="qcurve" smooth="yes"/>
      <point x="318" y="416"/>
      <point x="295" y="362"/>
      <point x="273" y="309"/>
      <point x="257" y="270"/>
      <point x="255" y="265" type="qcurve" smooth="yes"/>
      <point x="249" y="253"/>
      <point x="233" y="214"/>
      <point x="228" y="192" type="qcurve" smooth="yes"/>
      <point x="192" y="98"/>
      <point x="157" y="-14"/>
      <point x="149" y="-36" type="qcurve" smooth="yes"/>
      <point x="139" y="-64"/>
      <point x="117" y="-83"/>
    </contour>
  </outline>
</glyph>
<glyph name="O" format="2">
  <advance width="496"/>
  <unicode hex="004F"/>
  <anchor x="533" y="785" name="Anchor-4"/>
  <anchor x="248" y="40" name="Anchor-2"/>
  <anchor x="208" y="-110" name="Anchor-1"/>
  <outline>
    <contour>
      <point x="175" y="-20" type="qcurve" smooth="yes"/>
      <point x="138" y="8"/>
      <point x="118" y="39"/>
      <point x="116" y="61" type="qcurve" smooth="yes"/>
      <point x="114" y="79"/>
      <point x="119" y="141"/>
      <point x="127" y="201"/>
      <point x="130" y="216" type="qcurve" smooth="yes"/>
      <point x="135" y="221"/>
      <point x="134" y="238"/>
      <point x="134" y="238" type="qcurve" smooth="yes"/>
      <point x="133" y="243"/>
      <point x="149" y="286"/>
      <point x="156" y="320" type="qcurve"/>
      <point x="176" y="380"/>
      <point x="213" y="461"/>
      <point x="249" y="519"/>
      <point x="267" y="543" type="qcurve" smooth="yes"/>
      <point x="308" y="585"/>
      <point x="358" y="628"/>
      <point x="389" y="642" type="qcurve" smooth="yes"/>
      <point x="409" y="654"/>
      <point x="443" y="668"/>
      <point x="454" y="663" type="qcurve" smooth="yes"/>
      <point x="510" y="651"/>
      <point x="566" y="584"/>
      <point x="579" y="514" type="qcurve" smooth="yes"/>
      <point x="586" y="470"/>
      <point x="589" y="399"/>
      <point x="575" y="330"/>
      <point x="538" y="248"/>
      <point x="505" y="193" type="qcurve"/>
      <point x="470" y="124"/>
      <point x="383" y="22"/>
      <point x="292" y="-37"/>
      <point x="207" y="-45"/>
    </contour>
    <contour>
      <point x="239" y="9" type="qcurve" smooth="yes"/>
      <point x="262" y="12"/>
      <point x="304" y="34"/>
      <point x="350" y="77"/>
      <point x="379" y="110" type="qcurve" smooth="yes"/>
      <point x="405" y="140"/>
      <point x="438" y="181"/>
      <point x="461" y="223"/>
      <point x="482" y="283"/>
      <point x="496" y="331" type="qcurve" smooth="yes"/>
      <point x="504" y="361"/>
      <point x="512" y="401"/>
      <point x="514" y="436"/>
      <point x="513" y="482"/>
      <point x="513" y="518" type="qcurve" smooth="yes"/>
      <point x="512" y="535"/>
      <point x="500" y="572"/>
      <point x="492" y="581" type="qcurve" smooth="yes"/>
      <point x="482" y="592"/>
      <point x="446" y="601"/>
      <point x="424" y="591" type="qcurve" smooth="yes"/>
      <point x="412" y="586"/>
      <point x="374" y="551"/>
      <point x="332" y="505"/>
      <point x="295" y="457"/>
      <point x="272" y="420"/>
      <point x="272" y="413" type="qcurve" smooth="yes"/>
      <point x="272" y="413"/>
      <point x="271" y="403"/>
      <point x="267" y="398" type="qcurve" smooth="yes"/>
      <point x="254" y="384"/>
      <point x="223" y="312"/>
      <point x="195" y="221"/>
      <point x="176" y="132"/>
      <point x="174" y="99" type="qcurve" smooth="yes"/>
      <point x="172" y="72"/>
      <point x="172" y="52"/>
      <point x="180" y="41"/>
      <point x="189" y="26" type="qcurve" smooth="yes"/>
      <point x="195" y="16"/>
      <point x="224" y="6"/>
    </contour>
  </outline>
</glyph>
<glyph name="Q" format="2">
  <advance width="502"/>
  <unicode hex="0051"/>
  <outline>
    <contour>
      <point x="231" y="-71" type="qcurve" smooth="yes"/>
      <point x="216" y="-68"/>
      <point x="180" y="-50"/>
      <point x="150" y="-23"/>
      <point x="143" y="-9" type="qcurve" smooth="yes"/>
      <point x="118" y="42"/>
      <point x="113" y="157"/>
      <point x="130" y="239" type="qcurve" smooth="yes"/>
      <point x="135" y="256"/>
      <point x="152" y="314"/>
      <point x="172" y="372"/>
      <point x="188" y="412"/>
      <point x="190" y="412" type="qcurve" smooth="yes"/>
      <point x="193" y="415"/>
      <point x="193" y="429" type="qcurve" smooth="yes"/>
      <point x="193" y="434"/>
      <point x="210" y="467"/>
      <point x="237" y="509"/>
      <point x="266" y="548"/>
      <point x="279" y="559" type="qcurve" smooth="yes"/>
      <point x="299" y="585"/>
      <point x="350" y="622"/>
      <point x="375" y="635" type="qcurve" smooth="yes"/>
      <point x="381" y="639"/>
      <point x="404" y="649"/>
      <point x="432" y="657"/>
      <point x="443" y="658" type="qcurve" smooth="yes"/>
      <point x="493" y="661"/>
      <point x="543" y="631"/>
      <point x="562" y="592" type="qcurve"/>
      <point x="582" y="570"/>
      <point x="586" y="530"/>
      <point x="590" y="501" type="qcurve" smooth="yes"/>
      <point x="590" y="474"/>
      <point x="579" y="401"/>
      <point x="561" y="330"/>
      <point x="539" y="283"/>
      <point x="529" y="283" type="qcurve" smooth="yes"/>
      <point x="529" y="283"/>
      <point x="523" y="282"/>
      <point x="523" y="277" type="qcurve" smooth="yes"/>
      <point x="525" y="270"/>
      <point x="513" y="221"/>
      <point x="498" y="192" type="qcurve"/>
      <point x="466" y="102"/>
      <point x="379" y="-19"/>
      <point x="281" y="-77"/>
    </contour>
    <contour>
      <point x="437" y="-126" type="qcurve" smooth="yes"/>
      <point x="421" y="-127"/>
      <point x="389" y="-102"/>
      <point x="385" y="-89" type="qcurve"/>
      <point x="378" y="-83"/>
      <point x="378" y="-72"/>
      <point x="376" y="-70" type="qcurve" smooth="yes"/>
      <point x="372" y="-68"/>
      <point x="358" y="-51"/>
      <point x="355" y="-40" type="qcurve" smooth="yes"/>
      <point x="348" y="-26"/>
      <point x="321" y="27"/>
      <point x="291" y="84"/>
      <point x="268" y="127"/>
      <point x="266" y="130" type="qcurve" smooth="yes"/>
      <point x="258" y="138"/>
      <point x="268" y="150" type="qcurve" smooth="yes"/>
      <point x="273" y="162"/>
      <point x="286" y="166"/>
      <point x="305" y="161" type="qcurve"/>
      <point x="328" y="161"/>
      <point x="347" y="113" type="qcurve" smooth="yes"/>
      <point x="348" y="108"/>
      <point x="364" y="70"/>
      <point x="384" y="33"/>
      <point x="390" y="28" type="qcurve" smooth="yes"/>
      <point x="395" y="17"/>
      <point x="407" y="-11"/>
      <point x="414" y="-20" type="qcurve"/>
      <point x="417" y="-31"/>
      <point x="437" y="-57"/>
      <point x="441" y="-71" type="qcurve"/>
      <point x="464" y="-107"/>
      <point x="463" y="-127"/>
    </contour>
    <contour>
      <point x="239" y="-13" type="qcurve" smooth="yes"/>
      <point x="281" y="-8"/>
      <point x="364" y="77"/>
      <point x="439" y="216"/>
      <point x="469" y="301" type="qcurve" smooth="yes"/>
      <point x="478" y="326"/>
      <point x="504" y="387"/>
      <point x="524" y="461"/>
      <point x="524" y="502" type="qcurve"/>
      <point x="530" y="546"/>
      <point x="512" y="588"/>
      <point x="488" y="599" type="qcurve" smooth="yes"/>
      <point x="456" y="611"/>
      <point x="379" y="578"/>
      <point x="305" y="492"/>
      <point x="276" y="422" type="qcurve" smooth="yes"/>
      <point x="235" y="335"/>
      <point x="187" y="197"/>
      <point x="173" y="87"/>
      <point x="183" y="42" type="qcurve"/>
      <point x="185" y="11"/>
      <point x="214" y="-20"/>
    </contour>
  </outline>
</glyph>
<glyph name="R" format="2">
  <advance width="537"/>
  <unicode hex="0052"/>
  <anchor x="551" y="785" name="Anchor-4"/>
  <anchor x="286" y="-110" name="Anchor-1"/>
  <outline>
    <contour>
      <point x="140" y="-60" type="qcurve" smooth="yes"/>
      <point x="136" y="-70"/>
      <point x="115" y="-72"/>
      <point x="98" y="-59" type="qcurve" smooth="yes"/>
      <point x="86" y="-47"/>
      <point x="79" y="-34"/>
      <point x="93" y="-3"/>
      <point x="110" y="36" type="qcurve"/>
      <point x="114" y="60"/>
      <point x="134" y="109"/>
      <point x="139" y="119" type="qcurve" smooth="yes"/>
      <point x="143" y="133"/>
      <point x="168" y="198"/>
      <point x="201" y="278"/>
      <point x="231" y="349"/>
      <point x="238" y="367" type="qcurve" smooth="yes"/>
      <point x="255" y="407"/>
      <point x="291" y="495"/>
      <point x="322" y="562" type="qcurve" smooth="yes"/>
      <point x="326" y="572"/>
      <point x="327" y="594"/>
      <point x="310" y="594" type="qcurve"/>
      <point x="300" y="605"/>
      <point x="298" y="628"/>
      <point x="309" y="633" type="qcurve" smooth="yes"/>
      <point x="361" y="654" type="line"/>
      <point x="408" y="665"/>
      <point x="507" y="656"/>
      <point x="551" y="633" type="qcurve" smooth="yes"/>
      <point x="599" y="605"/>
      <point x="639" y="548"/>
      <point x="640" y="490"/>
      <point x="629" y="462" type="qcurve" smooth="yes"/>
      <point x="621" y="441"/>
      <point x="576" y="391"/>
      <point x="517" y="341"/>
      <point x="454" y="300"/>
      <point x="427" y="289" type="qcurve" smooth="yes"/>
      <point x="402" y="277"/>
      <point x="348" y="259"/>
      <point x="319" y="250" type="qcurve" smooth="yes"/>
      <point x="303" y="246"/>
      <point x="259" y="246"/>
      <point x="248" y="250" type="qcurve"/>
      <point x="231" y="203" type="line" smooth="yes"/>
      <point x="221" y="167"/>
      <point x="172" y="25"/>
    </contour>
    <contour>
      <point x="537" y="-71" type="qcurve" smooth="yes"/>
      <point x="529" y="-74"/>
      <point x="508" y="-72"/>
      <point x="485" y="-57" type="qcurve" smooth="yes"/>
      <point x="441" y="-31"/>
      <point x="353" y="43"/>
      <point x="298" y="106" type="qcurve" smooth="yes"/>
      <point x="277" y="131"/>
      <point x="248" y="173"/>
      <point x="232" y="211" type="qcurve"/>
      <point x="218" y="265" type="line"/>
      <point x="245" y="280" type="line"/>
      <point x="281" y="244" type="line"/>
      <point x="297" y="209"/>
      <point x="348" y="145"/>
      <point x="370" y="120" type="qcurve" smooth="yes"/>
      <point x="388" y="99"/>
      <point x="450" y="40"/>
      <point x="520" y="-14"/>
      <point x="548" y="-28" type="qcurve" smooth="yes"/>
      <point x="554" y="-33"/>
      <point x="550" y="-53"/>
      <point x="541" y="-70"/>
    </contour>
    <contour>
      <point x="279" y="301" type="qcurve"/>
      <point x="302" y="303"/>
      <point x="364" y="322"/>
      <point x="395" y="335" type="qcurve" smooth="yes"/>
      <point x="424" y="349"/>
      <point x="489" y="388"/>
      <point x="545" y="436"/>
      <point x="580" y="488"/>
      <point x="578" y="514" type="qcurve" smooth="yes"/>
      <point x="578" y="527"/>
      <point x="558" y="555"/>
      <point x="530" y="577"/>
      <point x="517" y="581" type="qcurve" smooth="yes"/>
      <point x="477" y="591"/>
      <point x="425" y="597"/>
      <point x="397" y="584"/>
      <point x="392" y="564" type="qcurve" smooth="yes"/>
      <point x="392" y="561"/>
      <point x="376" y="527"/>
      <point x="353" y="477"/>
      <point x="342" y="449" type="qcurve" smooth="yes"/>
      <point x="313" y="390"/>
      <point x="283" y="329"/>
      <point x="275" y="305"/>
    </contour>
  </outline>
</glyph>
<glyph name="S" format="2">
  <advance width="486"/>
  <unicode hex="0053"/>
  <anchor x="576" y="785" name="Anchor-4"/>
  <anchor x="244" y="-110" name="Anchor-1"/>
  <outline>
    <contour>
      <point x="254" y="-50" type="qcurve"/>
      <point x="236" y="-45"/>
      <point x="214" y="-38"/>
      <point x="214" y="-38" type="qcurve"/>
      <point x="216" y="-33"/>
      <point x="209" y="-25"/>
      <point x="198" y="-24" type="qcurve"/>
      <point x="183" y="-15"/>
      <point x="158" y="12"/>
      <point x="142" y="38"/>
      <point x="138" y="47" type="qcurve" smooth="yes"/>
      <point x="131" y="62"/>
      <point x="132" y="69"/>
      <point x="143" y="74" type="qcurve" smooth="yes"/>
      <point x="154" y="82"/>
      <point x="165" y="76"/>
      <point x="173" y="59" type="qcurve" smooth="yes"/>
      <point x="186" y="36"/>
      <point x="249" y="12"/>
      <point x="328" y="15"/>
      <point x="364" y="31" type="qcurve" smooth="yes"/>
      <point x="401" y="46"/>
      <point x="420" y="79"/>
      <point x="403" y="105" type="qcurve" smooth="yes"/>
      <point x="400" y="113"/>
      <point x="392" y="123"/>
      <point x="375" y="139"/>
      <point x="356" y="157" type="qcurve"/>
      <point x="341" y="164"/>
      <point x="316" y="176"/>
      <point x="302" y="183" type="qcurve" smooth="yes"/>
      <point x="286" y="191"/>
      <point x="241" y="222"/>
      <point x="201" y="260"/>
      <point x="192" y="276" type="qcurve"/>
      <point x="176" y="291"/>
      <point x="160" y="344"/>
      <point x="164" y="404"/>
      <point x="177" y="428" type="qcurve" smooth="yes"/>
      <point x="183" y="442"/>
      <point x="212" y="483"/>
      <point x="248" y="525"/>
      <point x="282" y="559"/>
      <point x="293" y="566" type="qcurve" smooth="yes"/>
      <point x="301" y="574"/>
      <point x="319" y="591"/>
      <point x="319" y="591" type="qcurve" smooth="yes"/>
      <point x="320" y="596"/>
      <point x="325" y="596"/>
      <point x="325" y="596" type="qcurve" smooth="yes"/>
      <point x="330" y="599"/>
      <point x="364" y="613"/>
      <point x="384" y="632" type="qcurve"/>
      <point x="451" y="664"/>
      <point x="535" y="694"/>
      <point x="562" y="694" type="qcurve"/>
      <point x="562" y="694" type="line"/>
      <point x="562" y="694" type="line"/>
      <point x="587" y="693"/>
      <point x="628" y="672"/>
      <point x="655" y="638"/>
      <point x="658" y="614" type="qcurve" smooth="yes"/>
      <point x="665" y="590"/>
      <point x="643" y="527"/>
      <point x="600" y="472"/>
      <point x="575" y="458" type="qcurve" smooth="yes"/>
      <point x="547" y="446"/>
      <point x="528" y="449"/>
      <point x="529" y="468" type="qcurve" smooth="yes"/>
      <point x="529" y="476"/>
      <point x="540" y="498"/>
      <point x="565" y="526" type="qcurve"/>
      <point x="597" y="573"/>
      <point x="611" y="629"/>
      <point x="591" y="632" type="qcurve" smooth="yes"/>
      <point x="585" y="634"/>
      <point x="554" y="630"/>
      <point x="517" y="623"/>
      <point x="491" y="616"/>
      <point x="491" y="614" type="qcurve" smooth="yes"/>
      <point x="491" y="614"/>
      <point x="491" y="608"/>
      <point x="487" y="609" type="qcurve" smooth="yes"/>
      <point x="485" y="609"/>
      <point x="455" y="593"/>
      <point x="413" y="567"/>
      <point x="371" y="541"/>
      <point x="342" y="522"/>
      <point x="341" y="520" type="qcurve" smooth="yes"/>
      <point x="339" y="509"/>
      <point x="318" y="500" type="qcurve" smooth="yes"/>
      <point x="298" y="488"/>
      <point x="265" y="442"/>
      <point x="245" y="408" type="qcurve" smooth="yes"/>
      <point x="228" y="385"/>
      <point x="214" y="332"/>
      <point x="221" y="316" type="qcurve" smooth="yes"/>
      <point x="226" y="300"/>
      <point x="278" y="250"/>
      <point x="317" y="227" type="qcurve" smooth="yes"/>
      <point x="351" y="208"/>
      <point x="405" y="171"/>
      <point x="440" y="137"/>
      <point x="446" y="124" type="qcurve" smooth="yes"/>
      <point x="458" y="107"/>
      <point x="469" y="72"/>
      <point x="470" y="40"/>
      <point x="466" y="27" type="qcurve" smooth="yes"/>
      <point x="459" y="11"/>
      <point x="424" y="-23"/>
      <point x="412" y="-22" type="qcurve" smooth="yes"/>
      <point x="401" y="-25"/>
      <point x="390" y="-33"/>
      <point x="383" y="-36" type="qcurve" smooth="yes"/>
      <point x="376" y="-40"/>
      <point x="331" y="-48"/>
      <point x="277" y="-51"/>
    </contour>
  </outline>
</glyph>
<glyph name="U" format="2">
  <advance width="482"/>
  <unicode hex="0055"/>
  <anchor x="518" y="785" name="Anchor-4"/>
  <anchor x="241" y="40" name="Anchor-2"/>
  <anchor x="201" y="-110" name="Anchor-1"/>
  <outline>
    <contour>
      <point x="220" y="-52" type="qcurve" smooth="yes"/>
      <point x="174" y="-35"/>
      <point x="125" y="38"/>
      <point x="122" y="171"/>
      <point x="144" y="275" type="qcurve" smooth="yes"/>
      <point x="151" y="310"/>
      <point x="177" y="400"/>
      <point x="212" y="495"/>
      <point x="251" y="584"/>
      <point x="270" y="618" type="qcurve" smooth="yes"/>
      <point x="293" y="659"/>
      <point x="318" y="680"/>
      <point x="328" y="678" type="qcurve" smooth="yes"/>
      <point x="347" y="673"/>
      <point x="364" y="646"/>
      <point x="359" y="615"/>
      <point x="342" y="604" type="qcurve"/>
      <point x="331" y="591"/>
      <point x="296" y="522"/>
      <point x="278" y="490" type="qcurve"/>
      <point x="258" y="432"/>
      <point x="228" y="343"/>
      <point x="208" y="265"/>
      <point x="200" y="222" type="qcurve" smooth="yes"/>
      <point x="191" y="180"/>
      <point x="182" y="126"/>
      <point x="179" y="91"/>
      <point x="179" y="65"/>
      <point x="179" y="51" type="qcurve"/>
      <point x="187" y="38"/>
      <point x="197" y="18"/>
      <point x="205" y="16" type="qcurve" smooth="yes"/>
      <point x="222" y="8"/>
      <point x="265" y="16"/>
      <point x="286" y="28" type="qcurve"/>
      <point x="291" y="38"/>
      <point x="307" y="46"/>
      <point x="307" y="46" type="qcurve"/>
      <point x="309" y="41"/>
      <point x="314" y="46"/>
      <point x="315" y="50" type="qcurve" smooth="yes"/>
      <point x="314" y="54"/>
      <point x="320" y="61"/>
      <point x="324" y="65" type="qcurve" smooth="yes"/>
      <point x="332" y="68"/>
      <point x="363" y="103"/>
      <point x="396" y="147"/>
      <point x="419" y="183"/>
      <point x="419" y="187" type="qcurve" smooth="yes"/>
      <point x="419" y="192"/>
      <point x="427" y="200"/>
      <point x="432" y="206" type="qcurve" smooth="yes"/>
      <point x="437" y="211"/>
      <point x="468" y="266"/>
      <point x="505" y="340"/>
      <point x="520" y="371" type="qcurve" smooth="yes"/>
      <point x="523" y="382"/>
      <point x="539" y="431"/>
      <point x="558" y="495"/>
      <point x="576" y="560"/>
      <point x="591" y="611"/>
      <point x="593" y="623" type="qcurve" smooth="yes"/>
      <point x="595" y="636"/>
      <point x="603" y="653"/>
      <point x="604" y="657" type="qcurve" smooth="yes"/>
      <point x="609" y="659"/>
      <point x="623" y="653"/>
      <point x="638" y="645"/>
      <point x="644" y="642" type="qcurve" smooth="yes"/>
      <point x="650" y="634"/>
      <point x="648" y="610"/>
      <point x="637" y="561"/>
      <point x="627" y="515" type="qcurve" smooth="yes"/>
      <point x="606" y="433"/>
      <point x="547" y="295"/>
      <point x="513" y="218" type="qcurve"/>
      <point x="513" y="218"/>
      <point x="513" y="217"/>
      <point x="513" y="212" type="qcurve"/>
      <point x="501" y="205"/>
      <point x="494" y="191" type="qcurve" smooth="yes"/>
      <point x="489" y="182"/>
      <point x="482" y="169"/>
      <point x="477" y="166" type="qcurve" smooth="yes"/>
      <point x="474" y="157"/>
      <point x="468" y="143"/>
      <point x="468" y="143" type="qcurve" smooth="yes"/>
      <point x="467" y="138"/>
      <point x="455" y="130"/>
      <point x="449" y="126" type="qcurve" smooth="yes"/>
      <point x="444" y="124"/>
      <point x="442" y="112"/>
      <point x="439" y="108" type="qcurve" smooth="yes"/>
      <point x="417" y="75"/>
      <point x="361" y="11"/>
      <point x="302" y="-36"/>
      <point x="275" y="-46" type="qcurve" smooth="yes"/>
      <point x="257" y="-53"/>
      <point x="234" y="-55"/>
    </contour>
  </outline>
</glyph>
<glyph name="X" format="2">
  <advance width="524"/>
  <unicode hex="0058"/>
  <outline>
    <contour>
      <point x="633" y="643" type="qcurve" smooth="yes"/>
      <point x="653" y="642"/>
      <point x="665" y="611"/>
      <point x="649" y="557"/>
      <point x="625" y="523" type="qcurve"/>
      <point x="602" y="500"/>
      <point x="599" y="484" type="qcurve"/>
      <point x="592" y="475"/>
      <point x="563" y="442"/>
      <point x="530" y="405"/>
      <point x="505" y="377"/>
      <point x="501" y="374" type="qcurve" smooth="yes"/>
      <point x="487" y="362"/>
      <point x="452" y="330"/>
      <point x="425" y="303"/>
      <point x="421" y="298" type="qcurve" smooth="yes"/>
      <point x="414" y="291"/>
      <point x="402" y="276"/>
      <point x="397" y="274" type="qcurve" smooth="yes"/>
      <point x="396" y="270"/>
      <point x="386" y="259"/>
      <point x="384" y="254" type="qcurve" smooth="yes"/>
      <point x="382" y="253"/>
      <point x="360" y="233"/>
      <point x="333" y="208"/>
      <point x="312" y="188"/>
      <point x="311" y="186" type="qcurve" smooth="yes"/>
      <point x="300" y="176"/>
      <point x="254" y="127"/>
      <point x="198" y="67"/>
      <point x="146" y="10"/>
      <point x="111" y="-31"/>
      <point x="109" y="-36" type="qcurve" smooth="yes"/>
      <point x="105" y="-44"/>
      <point x="88" y="-49"/>
      <point x="80" y="-47" type="qcurve" smooth="yes"/>
      <point x="76" y="-49"/>
      <point x="67" y="-48"/>
      <point x="65" y="-47" type="qcurve" smooth="yes"/>
      <point x="65" y="-47"/>
      <point x="61" y="-37"/>
      <point x="59" y="-26" type="qcurve" smooth="yes"/>
      <point x="53" y="-16"/>
      <point x="59" y="2"/>
      <point x="63" y="13" type="qcurve" smooth="yes"/>
      <point x="70" y="26"/>
      <point x="84" y="44"/>
      <point x="118" y="75"/>
      <point x="153" y="108" type="qcurve" smooth="yes"/>
      <point x="169" y="124"/>
      <point x="202" y="153"/>
      <point x="203" y="156" type="qcurve" smooth="yes"/>
      <point x="204" y="160"/>
      <point x="218" y="174"/>
      <point x="225" y="184" type="qcurve" smooth="yes"/>
      <point x="232" y="189"/>
      <point x="265" y="220"/>
      <point x="305" y="259"/>
      <point x="344" y="297"/>
      <point x="357" y="309" type="qcurve" smooth="yes"/>
      <point x="363" y="317"/>
      <point x="380" y="334"/>
      <point x="390" y="346" type="qcurve" smooth="yes"/>
      <point x="391" y="348"/>
      <point x="416" y="373"/>
      <point x="450" y="408"/>
      <point x="481" y="441"/>
      <point x="489" y="450" type="qcurve" smooth="yes"/>
      <point x="529" y="497"/>
      <point x="594" y="578"/>
      <point x="607" y="606" type="qcurve" smooth="yes"/>
      <point x="617" y="627"/>
      <point x="625" y="642"/>
    </contour>
    <contour>
      <point x="492" y="-27" type="qcurve" smooth="yes"/>
      <point x="473" y="-25"/>
      <point x="435" y="10"/>
      <point x="412" y="51" type="qcurve"/>
      <point x="375" y="102"/>
      <point x="319" y="247"/>
      <point x="308" y="331" type="qcurve" smooth="yes"/>
      <point x="303" y="366"/>
      <point x="291" y="417"/>
      <point x="289" y="419" type="qcurve" smooth="yes"/>
      <point x="288" y="423"/>
      <point x="293" y="426"/>
      <point x="293" y="426" type="qcurve" smooth="yes"/>
      <point x="296" y="429"/>
      <point x="292" y="436"/>
      <point x="290" y="441" type="qcurve" smooth="yes"/>
      <point x="290" y="441"/>
      <point x="280" y="487"/>
      <point x="277" y="521" type="qcurve" smooth="yes"/>
      <point x="273" y="557"/>
      <point x="268" y="610"/>
      <point x="266" y="618" type="qcurve" smooth="yes"/>
      <point x="263" y="620"/>
      <point x="263" y="628"/>
      <point x="263" y="628" type="qcurve" smooth="yes"/>
      <point x="265" y="634"/>
      <point x="273" y="643"/>
      <point x="276" y="646" type="qcurve" smooth="yes"/>
      <point x="291" y="657"/>
      <point x="320" y="644"/>
      <point x="339" y="607"/>
      <point x="339" y="582" type="qcurve" smooth="yes"/>
      <point x="339" y="556"/>
      <point x="345" y="550" type="qcurve" smooth="yes"/>
      <point x="344" y="548"/>
      <point x="345" y="522"/>
      <point x="348" y="489"/>
      <point x="352" y="461"/>
      <point x="353" y="456" type="qcurve" smooth="yes"/>
      <point x="349" y="444"/>
      <point x="353" y="439" type="qcurve" smooth="yes"/>
      <point x="354" y="431"/>
      <point x="358" y="404"/>
      <point x="357" y="399" type="qcurve" smooth="yes"/>
      <point x="356" y="394"/>
      <point x="363" y="369"/>
      <point x="366" y="356" type="qcurve" smooth="yes"/>
      <point x="392" y="266" type="line" smooth="yes"/>
      <point x="400" y="234"/>
      <point x="414" y="185"/>
      <point x="434" y="138"/>
      <point x="448" y="109" type="qcurve" smooth="yes"/>
      <point x="459" y="85"/>
      <point x="489" y="44"/>
      <point x="501" y="37" type="qcurve" smooth="yes"/>
      <point x="503" y="35"/>
      <point x="520" y="34"/>
      <point x="522" y="37" type="qcurve" smooth="yes"/>
      <point x="533" y="40"/>
      <point x="544" y="27"/>
      <point x="549" y="8"/>
      <point x="549" y="-2" type="qcurve" smooth="yes"/>
      <point x="551" y="-9"/>
      <point x="534" y="-22"/>
      <point x="507" y="-29"/>
    </contour>
  </outline>
</glyph>
<glyph name="Y" format="2">
  <advance width="504"/>
  <unicode hex="0059"/>
  <anchor x="488" y="785" name="Anchor-4"/>
  <outline>
    <contour>
      <point x="330" y="267" type="line"/>
      <point x="295" y="311" type="line" smooth="yes"/>
      <point x="275" y="341"/>
      <point x="251" y="393"/>
      <point x="246" y="431" type="qcurve" smooth="yes"/>
      <point x="239" y="455"/>
      <point x="235" y="497"/>
      <point x="236" y="552"/>
      <point x="237" y="593" type="qcurve" smooth="yes"/>
      <point x="238" y="631"/>
      <point x="253" y="665"/>
      <point x="257" y="673" type="qcurve" smooth="yes"/>
      <point x="267" y="685"/>
      <point x="284" y="667"/>
      <point x="295" y="624"/>
      <point x="294" y="595" type="qcurve" smooth="yes"/>
      <point x="297" y="488"/>
      <point x="322" y="362"/>
      <point x="344" y="348" type="qcurve" smooth="yes"/>
      <point x="356" y="345"/>
      <point x="375" y="354"/>
      <point x="412" y="393"/>
      <point x="449" y="433" type="qcurve" smooth="yes"/>
      <point x="476" y="462"/>
      <point x="533" y="528"/>
      <point x="584" y="588"/>
      <point x="625" y="631"/>
      <point x="637" y="638" type="qcurve" smooth="yes"/>
      <point x="641" y="644"/>
      <point x="650" y="650"/>
      <point x="658" y="651"/>
      <point x="658" y="651" type="qcurve" smooth="yes"/>
      <point x="666" y="649"/>
      <point x="668" y="628"/>
      <point x="675" y="618" type="qcurve" smooth="yes"/>
      <point x="677" y="614"/>
      <point x="679" y="605"/>
      <point x="678" y="600" type="qcurve" smooth="yes"/>
      <point x="678" y="597"/>
      <point x="670" y="588"/>
      <point x="661" y="579"/>
      <point x="656" y="574" type="qcurve" smooth="yes"/>
      <point x="643" y="563"/>
      <point x="588" y="508"/>
      <point x="530" y="445"/>
      <point x="510" y="420" type="qcurve" smooth="yes"/>
      <point x="466" y="369"/>
      <point x="397" y="295"/>
      <point x="389" y="288" type="qcurve" smooth="yes"/>
      <point x="388" y="286"/>
      <point x="362" y="262"/>
      <point x="357" y="254" type="qcurve"/>
    </contour>
    <contour>
      <point x="259" y="-68" type="qcurve" smooth="yes"/>
      <point x="255" y="-67"/>
      <point x="239" y="-56"/>
      <point x="229" y="-49" type="qcurve" smooth="yes"/>
      <point x="222" y="-41"/>
      <point x="219" y="-27"/>
      <point x="227" y="-1"/>
      <point x="234" y="26" type="qcurve"/>
      <point x="235" y="49"/>
      <point x="252" y="115"/>
      <point x="264" y="137" type="qcurve"/>
      <point x="264" y="148"/>
      <point x="274" y="186"/>
      <point x="289" y="227"/>
      <point x="295" y="242" type="qcurve" smooth="yes"/>
      <point x="313" y="294" type="line"/>
      <point x="353" y="328" type="line"/>
      <point x="381" y="297" type="line"/>
      <point x="377" y="291"/>
      <point x="371" y="275"/>
      <point x="361" y="237"/>
      <point x="351" y="197" type="qcurve" smooth="yes"/>
      <point x="343" y="170"/>
      <point x="324" y="108"/>
      <point x="308" y="54"/>
      <point x="302" y="37" type="qcurve" smooth="yes"/>
      <point x="290" y="-8"/>
      <point x="278" y="-56"/>
      <point x="269" y="-71"/>
    </contour>
  </outline>
</glyph>
<glyph name="Z" format="2">
  <advance width="522"/>
  <unicode hex="005A"/>
  <anchor x="504" y="785" name="Anchor-4"/>
  <anchor x="220" y="-110" name="Anchor-1"/>
  <outline>
    <contour>
      <point x="122" y="-36" type="qcurve" smooth="yes"/>
      <point x="101" y="-34"/>
      <point x="67" y="-27"/>
      <point x="63" y="-7" type="qcurve" smooth="yes"/>
      <point x="61" y="7"/>
      <point x="72" y="36"/>
      <point x="82" y="46" type="qcurve" smooth="yes"/>
      <point x="99" y="64"/>
      <point x="140" y="108"/>
      <point x="197" y="164"/>
      <point x="278" y="241"/>
      <point x="336" y="292" type="qcurve" smooth="yes"/>
      <point x="376" y="326"/>
      <point x="424" y="371"/>
      <point x="462" y="409"/>
      <point x="485" y="433" type="qcurve" smooth="yes"/>
      <point x="520" y="469"/>
      <point x="573" y="537"/>
      <point x="578" y="557" type="qcurve" smooth="yes"/>
      <point x="584" y="577"/>
      <point x="567" y="594"/>
      <point x="524" y="601"/>
      <point x="489" y="603" type="qcurve" smooth="yes"/>
      <point x="427" y="608"/>
      <point x="332" y="597"/>
      <point x="288" y="589" type="qcurve" smooth="yes"/>
      <point x="281" y="587"/>
      <point x="262" y="598"/>
      <point x="262" y="602" type="qcurve" smooth="yes"/>
      <point x="266" y="607"/>
      <point x="266" y="617"/>
      <point x="258" y="623" type="qcurve"/>
      <point x="254" y="633"/>
      <point x="262" y="645"/>
      <point x="266" y="649" type="qcurve" smooth="yes"/>
      <point x="274" y="653"/>
      <point x="310" y="656"/>
      <point x="333" y="660" type="qcurve" smooth="yes"/>
      <point x="348" y="663"/>
      <point x="407" y="665"/>
      <point x="468" y="665"/>
      <point x="486" y="663" type="qcurve" smooth="yes"/>
      <point x="522" y="660"/>
      <point x="588" y="653"/>
      <point x="636" y="635"/>
      <point x="645" y="613" type="qcurve" smooth="yes"/>
      <point x="656" y="590"/>
      <point x="643" y="554"/>
      <point x="632" y="524" type="qcurve" smooth="yes"/>
      <point x="620" y="502"/>
      <point x="563" y="429"/>
      <point x="490" y="350"/>
      <point x="452" y="315" type="qcurve" smooth="yes"/>
      <point x="396" y="263"/>
      <point x="307" y="182"/>
      <point x="263" y="144" type="qcurve" smooth="yes"/>
      <point x="235" y="120"/>
      <point x="179" y="69"/>
      <point x="151" y="43" type="qcurve" smooth="yes"/>
      <point x="141" y="30"/>
      <point x="154" y="17"/>
      <point x="195" y="19" type="qcurve" smooth="yes"/>
      <point x="218" y="20"/>
      <point x="244" y="26"/>
      <point x="274" y="32"/>
      <point x="301" y="33" type="qcurve" smooth="yes"/>
      <point x="353" y="36"/>
      <point x="445" y="42"/>
      <point x="473" y="42" type="qcurve" smooth="yes"/>
      <point x="481" y="42"/>
      <point x="492" y="38"/>
      <point x="502" y="24" type="qcurve"/>
      <point x="511" y="21"/>
      <point x="516" y="10"/>
      <point x="510" y="-2"/>
      <point x="501" y="-9" type="qcurve"/>
      <point x="494" y="-9"/>
      <point x="459" y="-16"/>
      <point x="418" y="-21"/>
      <point x="402" y="-20" type="qcurve" smooth="yes"/>
      <point x="389" y="-19"/>
      <point x="316" y="-24"/>
      <point x="274" y="-29" type="qcurve" smooth="yes"/>
      <point x="237" y="-35"/>
      <point x="149" y="-37"/>
    </contour>
  </outline>
</glyph>
<glyph name="bracketleft" format="2">
  <advance width="330"/>
  <unicode hex="005B"/>
  <outline>
    <contour>
      <point x="81" y="-129" type="qcurve" smooth="yes"/>
      <point x="64" y="-121"/>
      <point x="56" y="-96"/>
      <point x="68" y="-79" type="qcurve" smooth="yes"/>
      <point x="73" y="-76"/>
      <point x="81" y="-60"/>
      <point x="81" y="-53" type="qcurve" smooth="yes"/>
      <point x="81" y="-46"/>
      <point x="92" y="2"/>
      <point x="109" y="66"/>
      <point x="127" y="128"/>
      <point x="142" y="173"/>
      <point x="145" y="177" type="qcurve" smooth="yes"/>
      <point x="145" y="182"/>
      <point x="159" y="216"/>
      <point x="176" y="242" type="qcurve"/>
      <point x="192" y="293"/>
      <point x="235" y="412"/>
      <point x="281" y="524"/>
      <point x="320" y="611"/>
      <point x="332" y="629" type="qcurve"/>
      <point x="335" y="642"/>
      <point x="340" y="660"/>
      <point x="340" y="664" type="qcurve" smooth="yes"/>
      <point x="340" y="684"/>
      <point x="360" y="701"/>
      <point x="389" y="701" type="qcurve" smooth="yes"/>
      <point x="418" y="705"/>
      <point x="459" y="707"/>
      <point x="502" y="716"/>
      <point x="536" y="727" type="qcurve" smooth="yes"/>
      <point x="551" y="730"/>
      <point x="581" y="744"/>
      <point x="585" y="744" type="qcurve" smooth="yes"/>
      <point x="597" y="747"/>
      <point x="609" y="744"/>
      <point x="617" y="731" type="qcurve" smooth="yes"/>
      <point x="631" y="715"/>
      <point x="628" y="701"/>
      <point x="606" y="692" type="qcurve" smooth="yes"/>
      <point x="589" y="687"/>
      <point x="535" y="673"/>
      <point x="478" y="661"/>
      <point x="455" y="658" type="qcurve" smooth="yes"/>
      <point x="436" y="653"/>
      <point x="409" y="645"/>
      <point x="406" y="641" type="qcurve" smooth="yes"/>
      <point x="404" y="638"/>
      <point x="390" y="612"/>
      <point x="373" y="579"/>
      <point x="361" y="554"/>
      <point x="361" y="552" type="qcurve" smooth="yes"/>
      <point x="359" y="550"/>
      <point x="343" y="519"/>
      <point x="323" y="478"/>
      <point x="307" y="441"/>
      <point x="305" y="432" type="qcurve" smooth="yes"/>
      <point x="303" y="426"/>
      <point x="286" y="385"/>
      <point x="268" y="341"/>
      <point x="264" y="329" type="qcurve" smooth="yes"/>
      <point x="260" y="319"/>
      <point x="249" y="284"/>
      <point x="238" y="251"/>
      <point x="234" y="242" type="qcurve" smooth="yes"/>
      <point x="234" y="239"/>
      <point x="229" y="215"/>
      <point x="224" y="207" type="qcurve" smooth="yes"/>
      <point x="220" y="200"/>
      <point x="209" y="173"/>
      <point x="206" y="162" type="qcurve" smooth="yes"/>
      <point x="202" y="155"/>
      <point x="194" y="142"/>
      <point x="194" y="138" type="qcurve" smooth="yes"/>
      <point x="194" y="135"/>
      <point x="193" y="123"/>
      <point x="189" y="112" type="qcurve" smooth="yes"/>
      <point x="186" y="108"/>
      <point x="185" y="98"/>
      <point x="185" y="98" type="qcurve" smooth="yes"/>
      <point x="181" y="94"/>
      <point x="173" y="58"/>
      <point x="164" y="36" type="qcurve" smooth="yes"/>
      <point x="156" y="11"/>
      <point x="145" y="-32"/>
      <point x="145" y="-40" type="qcurve" smooth="yes"/>
      <point x="140" y="-68" type="line"/>
      <point x="170" y="-62" type="line" smooth="yes"/>
      <point x="188" y="-59"/>
      <point x="243" y="-52"/>
      <point x="295" y="-47"/>
      <point x="310" y="-47" type="qcurve" smooth="yes"/>
      <point x="328" y="-43"/>
      <point x="343" y="-42"/>
      <point x="353" y="-48"/>
      <point x="361" y="-57" type="qcurve" smooth="yes"/>
      <point x="365" y="-65"/>
      <point x="369" y="-76"/>
      <point x="366" y="-79" type="qcurve" smooth="yes"/>
      <point x="364" y="-82"/>
      <point x="326" y="-90"/>
      <point x="276" y="-99"/>
      <point x="255" y="-102" type="qcurve" smooth="yes"/>
      <point x="239" y="-102"/>
      <point x="218" y="-102"/>
      <point x="218" y="-102" type="qcurve"/>
      <point x="218" y="-111"/>
      <point x="185" y="-111" type="qcurve"/>
      <point x="174" y="-117"/>
      <point x="138" y="-125"/>
      <point x="131" y="-129" type="qcurve" smooth="yes"/>
      <point x="109" y="-138"/>
      <point x="92" y="-138"/>
    </contour>
  </outline>
</glyph>
<glyph name="bracketright" format="2">
  <advance width="330"/>
  <unicode hex="005D"/>
  <outline>
    <contour>
      <point x="120" y="-111" type="qcurve" smooth="yes"/>
      <point x="116" y="-111"/>
      <point x="97" y="-111"/>
      <point x="87" y="-109" type="qcurve" smooth="yes"/>
      <point x="80" y="-110"/>
      <point x="47" y="-111"/>
      <point x="30" y="-108" type="qcurve" smooth="yes"/>
      <point x="15" y="-109"/>
      <point x="-13" y="-103"/>
      <point x="-18" y="-104" type="qcurve" smooth="yes"/>
      <point x="-18" y="-104"/>
      <point x="-28" y="-98"/>
      <point x="-33" y="-92" type="qcurve" smooth="yes"/>
      <point x="-47" y="-82" type="line"/>
      <point x="-35" y="-77" type="line" smooth="yes"/>
      <point x="-31" y="-72"/>
      <point x="2" y="-62"/>
      <point x="45" y="-55"/>
      <point x="80" y="-51"/>
      <point x="85" y="-53" type="qcurve" smooth="yes"/>
      <point x="88" y="-53"/>
      <point x="108" y="-56"/>
      <point x="119" y="-55" type="qcurve" smooth="yes"/>
      <point x="155" y="-52" type="line"/>
      <point x="165" y="-25" type="line" smooth="yes"/>
      <point x="167" y="-13"/>
      <point x="170" y="12"/>
      <point x="170" y="16" type="qcurve" smooth="yes"/>
      <point x="176" y="21"/>
      <point x="183" y="37"/>
      <point x="182" y="43" type="qcurve" smooth="yes"/>
      <point x="185" y="51"/>
      <point x="196" y="88"/>
      <point x="202" y="107" type="qcurve" smooth="yes"/>
      <point x="204" y="123"/>
      <point x="224" y="178"/>
      <point x="228" y="203" type="qcurve" smooth="yes"/>
      <point x="234" y="223"/>
      <point x="251" y="270"/>
      <point x="253" y="282" type="qcurve" smooth="yes"/>
      <point x="255" y="297"/>
      <point x="269" y="329"/>
      <point x="270" y="344" type="qcurve" smooth="yes"/>
      <point x="279" y="372"/>
      <point x="310" y="465"/>
      <point x="345" y="571"/>
      <point x="359" y="617" type="qcurve"/>
      <point x="370" y="639"/>
      <point x="381" y="680"/>
      <point x="381" y="680" type="qcurve"/>
      <point x="381" y="680"/>
      <point x="342" y="677"/>
      <point x="313" y="675" type="qcurve" smooth="yes"/>
      <point x="250" y="671"/>
      <point x="196" y="668"/>
      <point x="185" y="669"/>
      <point x="184" y="671" type="qcurve" smooth="yes"/>
      <point x="181" y="674"/>
      <point x="179" y="675"/>
      <point x="176" y="675" type="qcurve" smooth="yes"/>
      <point x="172" y="674"/>
      <point x="164" y="683"/>
      <point x="163" y="690" type="qcurve" smooth="yes"/>
      <point x="163" y="699"/>
      <point x="196" y="713"/>
      <point x="253" y="724"/>
      <point x="289" y="728" type="qcurve" smooth="yes"/>
      <point x="333" y="733"/>
      <point x="358" y="730"/>
      <point x="361" y="730" type="qcurve" smooth="yes"/>
      <point x="372" y="733"/>
      <point x="407" y="739"/>
      <point x="440" y="741"/>
      <point x="447" y="736" type="qcurve" smooth="yes"/>
      <point x="450" y="736"/>
      <point x="463" y="725"/>
      <point x="463" y="715" type="qcurve"/>
      <point x="471" y="701"/>
      <point x="471" y="694"/>
      <point x="465" y="686" type="qcurve" smooth="yes"/>
      <point x="461" y="680"/>
      <point x="444" y="649"/>
      <point x="427" y="613"/>
      <point x="416" y="585"/>
      <point x="417" y="582" type="qcurve" smooth="yes"/>
      <point x="417" y="579"/>
      <point x="415" y="574"/>
      <point x="410" y="573" type="qcurve" smooth="yes"/>
      <point x="410" y="573"/>
      <point x="405" y="571"/>
      <point x="405" y="566" type="qcurve" smooth="yes"/>
      <point x="407" y="558"/>
      <point x="397" y="529"/>
      <point x="393" y="529" type="qcurve" smooth="yes"/>
      <point x="393" y="529"/>
      <point x="388" y="527"/>
      <point x="388" y="522" type="qcurve" smooth="yes"/>
      <point x="388" y="518"/>
      <point x="383" y="498"/>
      <point x="378" y="484" type="qcurve" smooth="yes"/>
      <point x="368" y="449"/>
      <point x="348" y="403"/>
      <point x="348" y="400" type="qcurve" smooth="yes"/>
      <point x="348" y="400"/>
      <point x="342" y="386"/>
      <point x="340" y="379" type="qcurve" smooth="yes"/>
      <point x="336" y="371"/>
      <point x="328" y="334"/>
      <point x="326" y="318" type="qcurve"/>
      <point x="317" y="305"/>
      <point x="303" y="268"/>
      <point x="301" y="262" type="qcurve" smooth="yes"/>
      <point x="298" y="252"/>
      <point x="295" y="234"/>
      <point x="295" y="234" type="qcurve" smooth="yes"/>
      <point x="295" y="231"/>
      <point x="286" y="194"/>
      <point x="273" y="154"/>
      <point x="268" y="144" type="qcurve" smooth="yes"/>
      <point x="268" y="140"/>
      <point x="258" y="100"/>
      <point x="250" y="74" type="qcurve" smooth="yes"/>
      <point x="246" y="51"/>
      <point x="236" y="9"/>
      <point x="234" y="4" type="qcurve" smooth="yes"/>
      <point x="234" y="1"/>
      <point x="225" y="-6"/>
      <point x="225" y="-11" type="qcurve" smooth="yes"/>
      <point x="225" y="-15"/>
      <point x="225" y="-28"/>
      <point x="220" y="-32" type="qcurve" smooth="yes"/>
      <point x="217" y="-37"/>
      <point x="217" y="-48"/>
      <point x="217" y="-48" type="qcurve"/>
      <point x="220" y="-48"/>
      <point x="218" y="-52"/>
      <point x="218" y="-52" type="qcurve" smooth="yes"/>
      <point x="215" y="-52"/>
      <point x="214" y="-66"/>
      <point x="214" y="-72" type="qcurve" smooth="yes"/>
      <point x="214" y="-93"/>
      <point x="207" y="-111"/>
      <point x="182" y="-113"/>
      <point x="155" y="-111" type="qcurve" smooth="yes"/>
      <point x="131" y="-108"/>
      <point x="119" y="-109"/>
      <point x="123" y="-112"/>
      <point x="127" y="-113"/>
    </contour>
  </outline>
</glyph>
<glyph name="asciicircum" format="2">
  <advance width="446"/>
  <unicode hex="005E"/>
  <outline>
    <contour>
      <point x="134" y="302" type="qcurve" smooth="yes"/>
      <point x="129" y="306"/>
      <point x="128" y="325"/>
      <point x="136" y="355"/>
      <point x="143" y="374" type="qcurve" smooth="yes"/>
      <point x="160" y="408"/>
      <point x="175" y="440"/>
      <point x="186" y="453" type="qcurve" smooth="yes"/>
      <point x="195" y="469"/>
      <point x="228" y="505"/>
      <point x="267" y="537"/>
      <point x="306" y="557"/>
      <point x="321" y="555" type="qcurve" smooth="yes"/>
      <point x="330" y="554"/>
      <point x="355" y="518"/>
      <point x="383" y="463"/>
      <point x="410" y="401"/>
      <point x="433" y="346"/>
      <point x="440" y="329" type="qcurve" smooth="yes"/>
      <point x="445" y="317"/>
      <point x="437" y="297"/>
      <point x="420" y="286"/>
      <point x="404" y="289"/>
      <point x="401" y="301" type="qcurve" smooth="yes"/>
      <point x="396" y="316"/>
      <point x="389" y="334"/>
      <point x="372" y="370"/>
      <point x="353" y="411" type="qcurve" smooth="yes"/>
      <point x="337" y="438"/>
      <point x="319" y="477"/>
      <point x="306" y="496"/>
      <point x="296" y="493" type="qcurve" smooth="yes"/>
      <point x="283" y="489"/>
      <point x="247" y="455"/>
      <point x="206" y="395"/>
      <point x="185" y="349" type="qcurve" smooth="yes"/>
      <point x="174" y="316"/>
      <point x="149" y="294"/>
    </contour>
  </outline>
</glyph>
<glyph name="underscore" format="2">
  <advance width="446"/>
  <unicode hex="005F"/>
  <outline>
    <contour>
      <point x="117" y="-8" type="qcurve" smooth="yes"/>
      <point x="111" y="-8"/>
      <point x="93" y="-7"/>
      <point x="82" y="-3" type="qcurve"/>
      <point x="67" y="-3"/>
      <point x="57" y="4"/>
      <point x="53" y="11" type="qcurve" smooth="yes"/>
      <point x="42" y="26"/>
      <point x="60" y="37"/>
      <point x="97" y="41" type="qcurve" smooth="yes"/>
      <point x="114" y="45"/>
      <point x="181" y="50"/>
      <point x="259" y="53"/>
      <point x="329" y="55"/>
      <point x="349" y="55" type="qcurve" smooth="yes"/>
      <point x="375" y="55"/>
      <point x="393" y="51"/>
      <point x="404" y="40" type="qcurve" smooth="yes"/>
      <point x="419" y="25"/>
      <point x="411" y="-2"/>
      <point x="388" y="2" type="qcurve" smooth="yes"/>
      <point x="383" y="2"/>
      <point x="362" y="0"/>
      <point x="337" y="-2"/>
      <point x="325" y="-3" type="qcurve" smooth="yes"/>
      <point x="319" y="-3"/>
      <point x="265" y="-5"/>
      <point x="194" y="-7"/>
      <point x="131" y="-8"/>
    </contour>
  </outline>
</glyph>
<glyph name="a" format="2">
  <advance width="437"/>
  <unicode hex="0061"/>
  <anchor x="452" y="40" name="Anchor-2"/>
  <anchor x="423" y="560" name="Anchor-0"/>
  <outline>
    <contour>
      <point x="107" y="36" type="qcurve"/>
      <point x="103" y="44"/>
      <point x="91" y="53"/>
      <point x="91" y="57" type="qcurve" smooth="yes"/>
      <point x="91" y="61"/>
      <point x="90" y="70"/>
      <point x="86" y="74" type="qcurve" smooth="yes"/>
      <point x="81" y="80"/>
      <point x="93" y="123"/>
      <point x="121" y="186"/>
      <point x="140" y="221" type="qcurve" smooth="yes"/>
      <point x="148" y="229"/>
      <point x="164" y="255"/>
      <point x="168" y="259" type="qcurve" smooth="yes"/>
      <point x="168" y="263"/>
      <point x="174" y="270"/>
      <point x="178" y="270" type="qcurve"/>
      <point x="178" y="276" type="line" smooth="yes"/>
      <point x="178" y="281"/>
      <point x="197" y="305"/>
      <point x="225" y="334"/>
      <point x="255" y="361"/>
      <point x="265" y="367" type="qcurve" smooth="yes"/>
      <point x="286" y="381"/>
      <point x="331" y="387"/>
      <point x="347" y="374" type="qcurve" smooth="yes"/>
      <point x="350" y="371"/>
      <point x="364" y="357"/>
      <point x="383" y="340"/>
      <point x="393" y="331" type="qcurve" smooth="yes"/>
      <point x="430" y="298" type="line"/>
      <point x="412" y="248" type="line" smooth="yes"/>
      <point x="399" y="208"/>
      <point x="412" y="148"/>
      <point x="425" y="126" type="qcurve" smooth="yes"/>
      <point x="430" y="115"/>
      <point x="461" y="95"/>
      <point x="475" y="93" type="qcurve" smooth="yes"/>
      <point x="483" y="92"/>
      <point x="497" y="82"/>
      <point x="497" y="71" type="qcurve" smooth="yes"/>
      <point x="497" y="61"/>
      <point x="489" y="49"/>
      <point x="479" y="47" type="qcurve" smooth="yes"/>
      <point x="446" y="43"/>
      <point x="389" y="83"/>
      <point x="365" y="129" type="qcurve" smooth="yes"/>
      <point x="361" y="135"/>
      <point x="348" y="168"/>
      <point x="347" y="173" type="qcurve"/>
      <point x="343" y="168"/>
      <point x="321" y="141"/>
      <point x="315" y="135" type="qcurve" smooth="yes"/>
      <point x="244" y="63"/>
      <point x="141" y="14"/>
    </contour>
    <contour>
      <point x="143" y="92" type="qcurve" smooth="yes"/>
      <point x="143" y="85"/>
      <point x="186" y="100"/>
      <point x="211" y="120" type="qcurve" smooth="yes"/>
      <point x="245" y="149"/>
      <point x="314" y="219"/>
      <point x="335" y="249" type="qcurve" smooth="yes"/>
      <point x="357" y="285" type="line"/>
      <point x="347" y="308"/>
      <point x="324" y="325"/>
      <point x="316" y="325" type="qcurve" smooth="yes"/>
      <point x="303" y="325"/>
      <point x="252" y="277"/>
      <point x="194" y="197"/>
      <point x="168" y="149" type="qcurve" smooth="yes"/>
      <point x="158" y="129"/>
      <point x="143" y="92"/>
    </contour>
  </outline>
</glyph>
<glyph name="b" format="2">
  <advance width="435"/>
  <unicode hex="0062"/>
  <outline>
    <contour>
      <point x="211" y="17" type="qcurve" smooth="yes"/>
      <point x="191" y="19"/>
      <point x="182" y="25"/>
      <point x="176" y="38" type="qcurve" smooth="yes"/>
      <point x="168" y="47"/>
      <point x="165" y="57"/>
      <point x="166" y="61" type="qcurve"/>
      <point x="171" y="61"/>
      <point x="179" y="62"/>
      <point x="180" y="65" type="qcurve" smooth="yes"/>
      <point x="180" y="68"/>
      <point x="187" y="70"/>
      <point x="191" y="69" type="qcurve" smooth="yes"/>
      <point x="210" y="68"/>
      <point x="269" y="95"/>
      <point x="338" y="144"/>
      <point x="371" y="174" type="qcurve"/>
      <point x="397" y="208"/>
      <point x="421" y="247"/>
      <point x="425" y="272"/>
      <point x="420" y="281" type="qcurve" smooth="yes"/>
      <point x="416" y="289"/>
      <point x="366" y="286"/>
      <point x="335" y="266" type="qcurve" smooth="yes"/>
      <point x="292" y="239"/>
      <point x="240" y="193"/>
      <point x="218" y="164" type="qcurve" smooth="yes"/>
      <point x="210" y="154"/>
      <point x="195" y="126"/>
      <point x="185" y="106"/>
      <point x="185" y="106" type="qcurve" smooth="yes"/>
      <point x="185" y="102"/>
      <point x="162" y="90"/>
      <point x="154" y="90" type="qcurve" smooth="yes"/>
      <point x="150" y="92"/>
      <point x="137" y="103"/>
      <point x="135" y="112" type="qcurve"/>
      <point x="128" y="117"/>
      <point x="122" y="123"/>
      <point x="121" y="127" type="qcurve" smooth="yes"/>
      <point x="120" y="133"/>
      <point x="128" y="159"/>
      <point x="135" y="187" type="qcurve" smooth="yes"/>
      <point x="141" y="213"/>
      <point x="156" y="269"/>
      <point x="170" y="309"/>
      <point x="173" y="311" type="qcurve" smooth="yes"/>
      <point x="173" y="311"/>
      <point x="181" y="329"/>
      <point x="181" y="341" type="qcurve" smooth="yes"/>
      <point x="183" y="353"/>
      <point x="192" y="371"/>
      <point x="192" y="375" type="qcurve" smooth="yes"/>
      <point x="196" y="378"/>
      <point x="212" y="420"/>
      <point x="224" y="454" type="qcurve" smooth="yes"/>
      <point x="224" y="457"/>
      <point x="238" y="490"/>
      <point x="258" y="535"/>
      <point x="279" y="584"/>
      <point x="286" y="603" type="qcurve"/>
      <point x="298" y="620"/>
      <point x="311" y="649"/>
      <point x="318" y="652" type="qcurve" smooth="yes"/>
      <point x="323" y="653"/>
      <point x="338" y="650"/>
      <point x="353" y="642"/>
      <point x="358" y="634" type="qcurve" smooth="yes"/>
      <point x="361" y="629"/>
      <point x="363" y="621"/>
      <point x="355" y="600"/>
      <point x="332" y="551"/>
      <point x="310" y="505" type="qcurve" smooth="yes"/>
      <point x="282" y="445"/>
      <point x="246" y="351"/>
      <point x="222" y="279"/>
      <point x="212" y="253" type="qcurve" smooth="yes"/>
      <point x="207" y="231" type="line"/>
      <point x="232" y="255" type="line" smooth="yes"/>
      <point x="247" y="266"/>
      <point x="283" y="298"/>
      <point x="297" y="310" type="qcurve" smooth="yes"/>
      <point x="305" y="316"/>
      <point x="332" y="329"/>
      <point x="358" y="339"/>
      <point x="364" y="340" type="qcurve" smooth="yes"/>
      <point x="367" y="341"/>
      <point x="391" y="345"/>
      <point x="408" y="345" type="qcurve" smooth="yes"/>
      <point x="430" y="345"/>
      <point x="457" y="325"/>
      <point x="470" y="303" type="qcurve" smooth="yes"/>
      <point x="481" y="282"/>
      <point x="477" y="229"/>
      <point x="463" y="206" type="qcurve" smooth="yes"/>
      <point x="458" y="202"/>
      <point x="448" y="189"/>
      <point x="448" y="185" type="qcurve" smooth="yes"/>
      <point x="447" y="178"/>
      <point x="413" y="135"/>
      <point x="396" y="116" type="qcurve" smooth="yes"/>
      <point x="378" y="97"/>
      <point x="326" y="60"/>
      <point x="275" y="31"/>
      <point x="257" y="25" type="qcurve" smooth="yes"/>
      <point x="249" y="24"/>
      <point x="219" y="19"/>
    </contour>
  </outline>
</glyph>
<glyph name="c" format="2">
  <advance width="355"/>
  <unicode hex="0063"/>
  <anchor x="169" y="-110" name="Anchor-1"/>
  <anchor x="379" y="560" name="Anchor-0"/>
  <outline>
    <contour>
      <point x="209" y="11" type="qcurve" smooth="yes"/>
      <point x="180" y="6"/>
      <point x="132" y="23"/>
      <point x="103" y="64"/>
      <point x="103" y="96" type="qcurve" smooth="yes"/>
      <point x="100" y="126"/>
      <point x="120" y="205"/>
      <point x="159" y="285"/>
      <point x="182" y="314" type="qcurve" smooth="yes"/>
      <point x="202" y="338"/>
      <point x="242" y="378"/>
      <point x="258" y="385" type="qcurve" smooth="yes"/>
      <point x="272" y="391"/>
      <point x="297" y="394"/>
      <point x="305" y="394" type="qcurve" smooth="yes"/>
      <point x="321" y="390"/>
      <point x="358" y="369"/>
      <point x="358" y="357" type="qcurve"/>
      <point x="358" y="357"/>
      <point x="363" y="352"/>
      <point x="363" y="352" type="qcurve"/>
      <point x="369" y="352"/>
      <point x="378" y="326"/>
      <point x="380" y="293"/>
      <point x="374" y="282" type="qcurve" smooth="yes"/>
      <point x="370" y="263"/>
      <point x="350" y="235"/>
      <point x="342" y="235" type="qcurve" smooth="yes"/>
      <point x="338" y="235"/>
      <point x="331" y="234"/>
      <point x="331" y="229" type="qcurve" smooth="yes"/>
      <point x="331" y="224"/>
      <point x="320" y="226"/>
      <point x="308" y="237"/>
      <point x="305" y="245" type="qcurve" smooth="yes"/>
      <point x="305" y="250"/>
      <point x="313" y="274"/>
      <point x="317" y="293" type="qcurve" smooth="yes"/>
      <point x="323" y="321"/>
      <point x="309" y="338"/>
      <point x="289" y="330" type="qcurve" smooth="yes"/>
      <point x="264" y="316"/>
      <point x="219" y="266"/>
      <point x="181" y="187"/>
      <point x="166" y="128" type="qcurve" smooth="yes"/>
      <point x="160" y="105"/>
      <point x="163" y="71"/>
      <point x="166" y="70" type="qcurve" smooth="yes"/>
      <point x="180" y="66"/>
      <point x="228" y="71"/>
      <point x="239" y="77" type="qcurve" smooth="yes"/>
      <point x="255" y="85"/>
      <point x="295" y="112"/>
      <point x="310" y="123" type="qcurve" smooth="yes"/>
      <point x="315" y="126"/>
      <point x="329" y="140"/>
      <point x="337" y="144" type="qcurve"/>
      <point x="345" y="156"/>
      <point x="357" y="160"/>
      <point x="369" y="160" type="qcurve" smooth="yes"/>
      <point x="377" y="158"/>
      <point x="391" y="150"/>
      <point x="396" y="142"/>
      <point x="390" y="139" type="qcurve" smooth="yes"/>
      <point x="386" y="139"/>
      <point x="385" y="134"/>
      <point x="385" y="134" type="qcurve" smooth="yes"/>
      <point x="387" y="130"/>
      <point x="366" y="105"/>
      <point x="334" y="75"/>
      <point x="305" y="54"/>
      <point x="299" y="54" type="qcurve" smooth="yes"/>
      <point x="289" y="54"/>
      <point x="289" y="48" type="qcurve" smooth="yes"/>
      <point x="289" y="46"/>
      <point x="260" y="30"/>
      <point x="223" y="14"/>
    </contour>
  </outline>
</glyph>
<glyph name="e" format="2">
  <advance width="325"/>
  <unicode hex="0065"/>
  <anchor x="242" y="40" name="Anchor-2"/>
  <anchor x="179" y="-110" name="Anchor-1"/>
  <anchor x="365" y="560" name="Anchor-0"/>
  <outline>
    <contour>
      <point x="276" y="35" type="qcurve" smooth="yes"/>
      <point x="255" y="17"/>
      <point x="200" y="11"/>
      <point x="148" y="34"/>
      <point x="131" y="58" type="qcurve" smooth="yes"/>
      <point x="114" y="80"/>
      <point x="104" y="137"/>
      <point x="108" y="183" type="qcurve" smooth="yes"/>
      <point x="111" y="222"/>
      <point x="155" y="301"/>
      <point x="218" y="363"/>
      <point x="249" y="375" type="qcurve" smooth="yes"/>
      <point x="264" y="385"/>
      <point x="285" y="384"/>
      <point x="307" y="382" type="qcurve" smooth="yes"/>
      <point x="330" y="379"/>
      <point x="353" y="367"/>
      <point x="360" y="357" type="qcurve" smooth="yes"/>
      <point x="375" y="342"/>
      <point x="385" y="313"/>
      <point x="385" y="299" type="qcurve" smooth="yes"/>
      <point x="381" y="277"/>
      <point x="330" y="214"/>
      <point x="289" y="194" type="qcurve" smooth="yes"/>
      <point x="267" y="187"/>
      <point x="215" y="189"/>
      <point x="198" y="201" type="qcurve"/>
      <point x="179" y="209"/>
      <point x="167" y="188"/>
      <point x="162" y="148" type="qcurve" smooth="yes"/>
      <point x="158" y="110"/>
      <point x="178" y="75"/>
      <point x="195" y="72" type="qcurve" smooth="yes"/>
      <point x="215" y="68"/>
      <point x="238" y="65"/>
      <point x="255" y="75" type="qcurve" smooth="yes"/>
      <point x="271" y="85"/>
      <point x="279" y="88"/>
      <point x="284" y="93"/>
      <point x="294" y="103" type="qcurve" smooth="yes"/>
      <point x="301" y="110"/>
      <point x="309" y="117"/>
      <point x="314" y="117" type="qcurve" smooth="yes"/>
      <point x="319" y="117"/>
      <point x="327" y="108"/>
      <point x="331" y="106" type="qcurve" smooth="yes"/>
      <point x="341" y="106"/>
      <point x="330" y="82"/>
      <point x="298" y="49"/>
    </contour>
    <contour>
      <point x="275" y="247" type="qcurve" smooth="yes"/>
      <point x="286" y="252"/>
      <point x="310" y="271"/>
      <point x="327" y="294"/>
      <point x="327" y="302" type="qcurve" smooth="yes"/>
      <point x="327" y="316"/>
      <point x="301" y="335"/>
      <point x="275" y="328" type="qcurve" smooth="yes"/>
      <point x="264" y="325"/>
      <point x="236" y="302"/>
      <point x="211" y="274"/>
      <point x="196" y="252"/>
      <point x="198" y="250" type="qcurve" smooth="yes"/>
      <point x="201" y="245"/>
      <point x="229" y="240"/>
      <point x="264" y="242"/>
    </contour>
  </outline>
</glyph>
<glyph name="g" format="2">
  <advance width="355"/>
  <unicode hex="0067"/>
  <anchor x="381" y="560" name="Anchor-0"/>
  <outline>
    <contour>
      <point x="205" y="-191" type="qcurve" smooth="yes"/>
      <point x="177" y="-202"/>
      <point x="116" y="-173"/>
      <point x="94" y="-142" type="qcurve" smooth="yes"/>
      <point x="90" y="-136"/>
      <point x="79" y="-111"/>
      <point x="70" y="-85"/>
      <point x="68" y="-65"/>
      <point x="71" y="-63" type="qcurve" smooth="yes"/>
      <point x="74" y="-60"/>
      <point x="88" y="-62"/>
      <point x="101" y="-70"/>
      <point x="103" y="-76" type="qcurve" smooth="yes"/>
      <point x="106" y="-83"/>
      <point x="119" y="-105"/>
      <point x="135" y="-123"/>
      <point x="139" y="-124" type="qcurve" smooth="yes"/>
      <point x="158" y="-133"/>
      <point x="176" y="-131"/>
      <point x="183" y="-126" type="qcurve" smooth="yes"/>
      <point x="200" y="-113"/>
      <point x="222" y="-71"/>
      <point x="236" y="-27" type="qcurve" smooth="yes"/>
      <point x="247" y="10"/>
      <point x="270" y="93"/>
      <point x="279" y="116" type="qcurve" smooth="yes"/>
      <point x="282" y="128"/>
      <point x="291" y="145"/>
      <point x="295" y="149" type="qcurve"/>
      <point x="301" y="149" type="line"/>
      <point x="279" y="135"/>
      <point x="245" y="99"/>
      <point x="219" y="88" type="qcurve"/>
      <point x="213" y="81"/>
      <point x="166" y="78"/>
      <point x="144" y="85" type="qcurve" smooth="yes"/>
      <point x="130" y="93"/>
      <point x="117" y="101"/>
      <point x="110" y="115"/>
      <point x="104" y="130" type="qcurve" smooth="yes"/>
      <point x="97" y="145"/>
      <point x="107" y="213"/>
      <point x="120" y="247" type="qcurve" smooth="yes"/>
      <point x="132" y="272"/>
      <point x="178" y="330"/>
      <point x="230" y="377"/>
      <point x="251" y="383" type="qcurve" smooth="yes"/>
      <point x="259" y="387"/>
      <point x="278" y="390"/>
      <point x="296" y="385" type="qcurve" smooth="yes"/>
      <point x="313" y="383"/>
      <point x="331" y="372"/>
      <point x="351" y="355" type="qcurve" smooth="yes"/>
      <point x="364" y="342"/>
      <point x="381" y="316"/>
      <point x="386" y="302" type="qcurve" smooth="yes"/>
      <point x="393" y="287"/>
      <point x="390" y="262"/>
      <point x="380" y="249" type="qcurve" smooth="yes"/>
      <point x="371" y="236"/>
      <point x="351" y="210"/>
      <point x="346" y="187" type="qcurve" smooth="yes"/>
      <point x="341" y="157"/>
      <point x="319" y="82"/>
      <point x="311" y="50" type="qcurve" smooth="yes"/>
      <point x="295" y="-12" type="line" smooth="yes"/>
      <point x="270" y="-97"/>
      <point x="225" y="-180"/>
    </contour>
    <contour>
      <point x="169" y="129" type="qcurve"/>
      <point x="189" y="130"/>
      <point x="225" y="144"/>
      <point x="259" y="177"/>
      <point x="276" y="203" type="qcurve" smooth="yes"/>
      <point x="293" y="227"/>
      <point x="307" y="280"/>
      <point x="305" y="305" type="qcurve" smooth="yes"/>
      <point x="304" y="321"/>
      <point x="296" y="331"/>
      <point x="283" y="329" type="qcurve" smooth="yes"/>
      <point x="264" y="326"/>
      <point x="218" y="291"/>
      <point x="198" y="265" type="qcurve" smooth="yes"/>
      <point x="183" y="245"/>
      <point x="173" y="217" type="qcurve" smooth="yes"/>
      <point x="163" y="187"/>
      <point x="159" y="133"/>
    </contour>
  </outline>
</glyph>
<glyph name="i" format="2">
  <advance width="187"/>
  <unicode hex="0069"/>
  <anchor x="107" y="40" name="Anchor-2"/>
  <anchor x="52" y="-110" name="Anchor-1"/>
  <outline>
    <contour>
      <point x="111" y="32" type="qcurve" smooth="yes"/>
      <point x="103" y="40"/>
      <point x="96" y="64"/>
      <point x="98" y="88"/>
      <point x="102" y="96" type="qcurve" smooth="yes"/>
      <point x="102" y="104"/>
      <point x="107" y="113"/>
      <point x="106" y="117" type="qcurve" smooth="yes"/>
      <point x="105" y="121"/>
      <point x="111" y="141"/>
      <point x="114" y="150" type="qcurve" smooth="yes"/>
      <point x="121" y="166"/>
      <point x="137" y="211"/>
      <point x="151" y="255"/>
      <point x="161" y="287"/>
      <point x="162" y="291" type="qcurve" smooth="yes"/>
      <point x="162" y="303"/>
      <point x="178" y="304" type="qcurve" smooth="yes"/>
      <point x="190" y="308"/>
      <point x="202" y="301"/>
      <point x="212" y="285" type="qcurve" smooth="yes"/>
      <point x="220" y="277"/>
      <point x="216" y="245"/>
      <point x="205" y="221" type="qcurve" smooth="yes"/>
      <point x="201" y="213"/>
      <point x="190" y="183"/>
      <point x="188" y="171" type="qcurve" smooth="yes"/>
      <point x="184" y="163"/>
      <point x="173" y="134"/>
      <point x="169" y="121" type="qcurve" smooth="yes"/>
      <point x="167" y="116"/>
      <point x="163" y="97"/>
      <point x="157" y="76"/>
      <point x="152" y="68" type="qcurve" smooth="yes"/>
      <point x="143" y="27"/>
      <point x="128" y="13"/>
    </contour>
    <contour>
      <point x="208" y="438" type="qcurve" smooth="yes"/>
      <point x="203" y="443"/>
      <point x="195" y="462"/>
      <point x="193" y="479"/>
      <point x="196" y="479" type="qcurve" smooth="yes"/>
      <point x="204" y="480"/>
      <point x="226" y="512"/>
      <point x="224" y="524" type="qcurve" smooth="yes"/>
      <point x="224" y="528"/>
      <point x="230" y="535"/>
      <point x="234" y="536" type="qcurve" smooth="yes"/>
      <point x="246" y="544"/>
      <point x="269" y="533"/>
      <point x="279" y="517" type="qcurve" smooth="yes"/>
      <point x="288" y="498"/>
      <point x="280" y="473"/>
      <point x="262" y="451" type="qcurve" smooth="yes"/>
      <point x="247" y="431"/>
      <point x="222" y="427"/>
    </contour>
  </outline>
</glyph>
<glyph name="m" format="2">
  <advance width="560"/>
  <unicode hex="006D"/>
  <outline>
    <contour>
      <point x="551" y="42" type="qcurve" smooth="yes"/>
      <point x="546" y="44"/>
      <point x="526" y="60"/>
      <point x="512" y="99"/>
      <point x="512" y="134" type="qcurve" smooth="yes"/>
      <point x="513" y="164"/>
      <point x="514" y="198"/>
      <point x="506" y="198" type="qcurve" smooth="yes"/>
      <point x="498" y="198"/>
      <point x="453" y="167"/>
      <point x="395" y="115"/>
      <point x="365" y="83" type="qcurve" smooth="yes"/>
      <point x="355" y="72"/>
      <point x="336" y="53"/>
      <point x="318" y="48"/>
      <point x="306" y="57" type="qcurve" smooth="yes"/>
      <point x="295" y="66" type="line" smooth="yes"/>
      <point x="290" y="71"/>
      <point x="288" y="82"/>
      <point x="290" y="89" type="qcurve" smooth="yes"/>
      <point x="313" y="155" type="line" smooth="yes"/>
      <point x="329" y="191"/>
      <point x="341" y="224"/>
      <point x="341" y="233"/>
      <point x="338" y="232" type="qcurve" smooth="yes"/>
      <point x="330" y="231"/>
      <point x="298" y="214"/>
      <point x="293" y="206" type="qcurve" smooth="yes"/>
      <point x="289" y="206"/>
      <point x="273" y="188"/>
      <point x="261" y="180" type="qcurve"/>
      <point x="254" y="168"/>
      <point x="213" y="130"/>
      <point x="193" y="110" type="qcurve" smooth="yes"/>
      <point x="180" y="99"/>
      <point x="155" y="67"/>
      <point x="138" y="43"/>
      <point x="135" y="43" type="qcurve" smooth="yes"/>
      <point x="122" y="43"/>
      <point x="101" y="57"/>
      <point x="96" y="73" type="qcurve" smooth="yes"/>
      <point x="88" y="90"/>
      <point x="104" y="151"/>
      <point x="114" y="200" type="qcurve" smooth="yes"/>
      <point x="118" y="215"/>
      <point x="120" y="229"/>
      <point x="125" y="244"/>
      <point x="138" y="276"/>
      <point x="152" y="308" type="qcurve" smooth="yes"/>
      <point x="159" y="327"/>
      <point x="162" y="346"/>
      <point x="162" y="350" type="qcurve" smooth="yes"/>
      <point x="162" y="360"/>
      <point x="173" y="374"/>
      <point x="189" y="380"/>
      <point x="196" y="378" type="qcurve" smooth="yes"/>
      <point x="207" y="376"/>
      <point x="224" y="358"/>
      <point x="225" y="342" type="qcurve" smooth="yes"/>
      <point x="226" y="330"/>
      <point x="220" y="311"/>
      <point x="217" y="303" type="qcurve" smooth="yes"/>
      <point x="206" y="276" type="line" smooth="yes"/>
      <point x="201" y="265"/>
      <point x="185" y="223"/>
      <point x="173" y="188"/>
      <point x="173" y="185" type="qcurve" smooth="yes"/>
      <point x="174" y="182"/>
      <point x="186" y="191"/>
      <point x="205" y="208"/>
      <point x="215" y="216" type="qcurve" smooth="yes"/>
      <point x="236" y="236"/>
      <point x="289" y="273"/>
      <point x="337" y="299"/>
      <point x="350" y="303" type="qcurve"/>
      <point x="367" y="303"/>
      <point x="380" y="291"/>
      <point x="396" y="275" type="qcurve" smooth="yes"/>
      <point x="403" y="268"/>
      <point x="405" y="246"/>
      <point x="403" y="236" type="qcurve" smooth="yes"/>
      <point x="402" y="232"/>
      <point x="392" y="201"/>
      <point x="383" y="173"/>
      <point x="383" y="173" type="qcurve"/>
      <point x="383" y="173"/>
      <point x="406" y="193"/>
      <point x="434" y="216"/>
      <point x="441" y="222" type="qcurve" smooth="yes"/>
      <point x="480" y="252"/>
      <point x="538" y="268"/>
      <point x="556" y="239" type="qcurve"/>
      <point x="568" y="228"/>
      <point x="569" y="202"/>
      <point x="569" y="170" type="qcurve" smooth="yes"/>
      <point x="570" y="157"/>
      <point x="572" y="121"/>
      <point x="575" y="92"/>
      <point x="577" y="89" type="qcurve" smooth="yes"/>
      <point x="580" y="85"/>
      <point x="597" y="80"/>
      <point x="611" y="78" type="qcurve" smooth="yes"/>
      <point x="626" y="76"/>
      <point x="632" y="54"/>
      <point x="616" y="44" type="qcurve" smooth="yes"/>
      <point x="601" y="35"/>
      <point x="565" y="37"/>
    </contour>
  </outline>
</glyph>
<glyph name="n" format="2">
  <advance width="450"/>
  <unicode hex="006E"/>
  <anchor x="184" y="-110" name="Anchor-1"/>
  <anchor x="429" y="560" name="Anchor-0"/>
  <outline>
    <contour>
      <point x="454" y="46" type="qcurve"/>
      <point x="434" y="46"/>
      <point x="408" y="63"/>
      <point x="399" y="83" type="qcurve" smooth="yes"/>
      <point x="395" y="97"/>
      <point x="390" y="132"/>
      <point x="390" y="163"/>
      <point x="393" y="168" type="qcurve" smooth="yes"/>
      <point x="397" y="172"/>
      <point x="396" y="193"/>
      <point x="396" y="205" type="qcurve" smooth="yes"/>
      <point x="395" y="225"/>
      <point x="378" y="230"/>
      <point x="362" y="221" type="qcurve" smooth="yes"/>
      <point x="344" y="210"/>
      <point x="286" y="173"/>
      <point x="223" y="129"/>
      <point x="195" y="105" type="qcurve" smooth="yes"/>
      <point x="173" y="81"/>
      <point x="164" y="56"/>
      <point x="156" y="56" type="qcurve" smooth="yes"/>
      <point x="148" y="52"/>
      <point x="137" y="59"/>
      <point x="127" y="67" type="qcurve" smooth="yes"/>
      <point x="120" y="75"/>
      <point x="106" y="90"/>
      <point x="104" y="94" type="qcurve" smooth="yes"/>
      <point x="104" y="99"/>
      <point x="110" y="131"/>
      <point x="119" y="163"/>
      <point x="121" y="168" type="qcurve"/>
      <point x="126" y="168"/>
      <point x="133" y="188"/>
      <point x="141" y="200" type="qcurve"/>
      <point x="143" y="212"/>
      <point x="160" y="253"/>
      <point x="167" y="269" type="qcurve" smooth="yes"/>
      <point x="181" y="293"/>
      <point x="192" y="325"/>
      <point x="194" y="349" type="qcurve" smooth="yes"/>
      <point x="193" y="353"/>
      <point x="199" y="360"/>
      <point x="203" y="360" type="qcurve"/>
      <point x="203" y="360" type="line"/>
      <point x="203" y="360" type="line"/>
      <point x="211" y="368"/>
      <point x="233" y="361"/>
      <point x="242" y="349" type="qcurve" smooth="yes"/>
      <point x="260" y="325"/>
      <point x="253" y="274"/>
      <point x="224" y="227" type="qcurve" smooth="yes"/>
      <point x="217" y="211"/>
      <point x="210" y="194"/>
      <point x="210" y="189" type="qcurve"/>
      <point x="210" y="189"/>
      <point x="231" y="203"/>
      <point x="258" y="222"/>
      <point x="266" y="227" type="qcurve" smooth="yes"/>
      <point x="271" y="232"/>
      <point x="307" y="258"/>
      <point x="348" y="283"/>
      <point x="358" y="285" type="qcurve" smooth="yes"/>
      <point x="366" y="289"/>
      <point x="384" y="296"/>
      <point x="388" y="296" type="qcurve" smooth="yes"/>
      <point x="396" y="296"/>
      <point x="421" y="279"/>
      <point x="443" y="256"/>
      <point x="445" y="248" type="qcurve" smooth="yes"/>
      <point x="445" y="244"/>
      <point x="446" y="236"/>
      <point x="447" y="232" type="qcurve" smooth="yes"/>
      <point x="451" y="219"/>
      <point x="452" y="175"/>
      <point x="448" y="139"/>
      <point x="443" y="136" type="qcurve"/>
      <point x="443" y="136"/>
      <point x="444" y="131"/>
      <point x="448" y="131" type="qcurve"/>
      <point x="448" y="127"/>
      <point x="448" y="126"/>
      <point x="448" y="126" type="qcurve"/>
      <point x="443" y="126"/>
      <point x="445" y="109"/>
      <point x="456" y="89"/>
      <point x="462" y="83" type="qcurve" smooth="yes"/>
      <point x="474" y="71"/>
      <point x="470" y="50"/>
    </contour>
  </outline>
</glyph>
<glyph name="q" format="2">
  <advance width="377"/>
  <unicode hex="0071"/>
  <outline>
    <contour>
      <point x="246" y="-220" type="qcurve" smooth="yes"/>
      <point x="234" y="-212"/>
      <point x="224" y="-197"/>
      <point x="219" y="-177" type="qcurve" smooth="yes"/>
      <point x="214" y="-150"/>
      <point x="223" y="-61"/>
      <point x="249" y="46"/>
      <point x="267" y="99" type="qcurve" smooth="yes"/>
      <point x="272" y="107"/>
      <point x="274" y="124"/>
      <point x="273" y="128" type="qcurve"/>
      <point x="226" y="106"/>
      <point x="178" y="87"/>
      <point x="161" y="87" type="qcurve" smooth="yes"/>
      <point x="148" y="87"/>
      <point x="120" y="109"/>
      <point x="102" y="142"/>
      <point x="102" y="158" type="qcurve" smooth="yes"/>
      <point x="102" y="174"/>
      <point x="136" y="236"/>
      <point x="156" y="264" type="qcurve" smooth="yes"/>
      <point x="164" y="278"/>
      <point x="202" y="314"/>
      <point x="244" y="346"/>
      <point x="257" y="354" type="qcurve" smooth="yes"/>
      <point x="265" y="359"/>
      <point x="281" y="366"/>
      <point x="289" y="370" type="qcurve" smooth="yes"/>
      <point x="297" y="375"/>
      <point x="311" y="381"/>
      <point x="315" y="381" type="qcurve" smooth="yes"/>
      <point x="331" y="385"/>
      <point x="372" y="385"/>
      <point x="384" y="381" type="qcurve" smooth="yes"/>
      <point x="396" y="373"/>
      <point x="418" y="337"/>
      <point x="422" y="317" type="qcurve" smooth="yes"/>
      <point x="422" y="307"/>
      <point x="420" y="290"/>
      <point x="409" y="262"/>
      <point x="395" y="232" type="qcurve"/>
      <point x="379" y="208"/>
      <point x="358" y="162"/>
      <point x="358" y="158" type="qcurve" smooth="yes"/>
      <point x="353" y="145"/>
      <point x="334" y="103"/>
      <point x="318" y="68"/>
      <point x="315" y="62" type="qcurve" smooth="yes"/>
      <point x="313" y="52"/>
      <point x="299" y="1"/>
      <point x="284" y="-60"/>
      <point x="278" y="-87" type="qcurve" smooth="yes"/>
      <point x="270" y="-131"/>
      <point x="270" y="-197"/>
      <point x="278" y="-209" type="qcurve" smooth="yes"/>
      <point x="282" y="-221"/>
      <point x="262" y="-228"/>
    </contour>
    <contour>
      <point x="163" y="149" type="line"/>
      <point x="196" y="139"/>
      <point x="263" y="179"/>
      <point x="294" y="209" type="qcurve" smooth="yes"/>
      <point x="311" y="225"/>
      <point x="342" y="273"/>
      <point x="359" y="316"/>
      <point x="356" y="324" type="qcurve" smooth="yes"/>
      <point x="352" y="332"/>
      <point x="302" y="313"/>
      <point x="270" y="289" type="qcurve" smooth="yes"/>
      <point x="234" y="261"/>
      <point x="186" y="206"/>
      <point x="174" y="178" type="qcurve" smooth="yes"/>
    </contour>
  </outline>
</glyph>
<glyph name="s" format="2">
  <advance width="341"/>
  <unicode hex="0073"/>
  <anchor x="131" y="-110" name="Anchor-1"/>
  <anchor x="389" y="603" name="Anchor-0"/>
  <outline>
    <contour>
      <point x="161" y="-4" type="qcurve" smooth="yes"/>
      <point x="142" y="4"/>
      <point x="108" y="31"/>
      <point x="103" y="40" type="qcurve"/>
      <point x="103" y="49"/>
      <point x="109" y="56"/>
      <point x="138" y="55"/>
      <point x="171" y="51" type="qcurve" smooth="yes"/>
      <point x="183" y="51"/>
      <point x="219" y="55"/>
      <point x="250" y="63"/>
      <point x="252" y="69" type="qcurve"/>
      <point x="257" y="69"/>
      <point x="251" y="76"/>
      <point x="247" y="80" type="qcurve" smooth="yes"/>
      <point x="243" y="80"/>
      <point x="233" y="87"/>
      <point x="229" y="87" type="qcurve"/>
      <point x="229" y="92"/>
      <point x="210" y="105"/>
      <point x="200" y="109" type="qcurve" smooth="yes"/>
      <point x="178" y="127"/>
      <point x="146" y="156"/>
      <point x="150" y="161" type="qcurve" smooth="yes"/>
      <point x="150" y="165"/>
      <point x="150" y="166"/>
      <point x="150" y="166" type="qcurve"/>
      <point x="143" y="166"/>
      <point x="126" y="206"/>
      <point x="126" y="222" type="qcurve" smooth="yes"/>
      <point x="126" y="234"/>
      <point x="140" y="271"/>
      <point x="164" y="311"/>
      <point x="177" y="324" type="qcurve" smooth="yes"/>
      <point x="195" y="341"/>
      <point x="249" y="380"/>
      <point x="302" y="411"/>
      <point x="320" y="416" type="qcurve" smooth="yes"/>
      <point x="338" y="423"/>
      <point x="369" y="423"/>
      <point x="381" y="416" type="qcurve" smooth="yes"/>
      <point x="391" y="411"/>
      <point x="408" y="392"/>
      <point x="421" y="373"/>
      <point x="423" y="366" type="qcurve" smooth="yes"/>
      <point x="423" y="354"/>
      <point x="419" y="325"/>
      <point x="412" y="303"/>
      <point x="405" y="303" type="qcurve" smooth="yes"/>
      <point x="405" y="303"/>
      <point x="400" y="302"/>
      <point x="400" y="297" type="qcurve" smooth="yes"/>
      <point x="400" y="287"/>
      <point x="385" y="274" type="qcurve" smooth="yes"/>
      <point x="366" y="261"/>
      <point x="338" y="256"/>
      <point x="335" y="269" type="qcurve" smooth="yes"/>
      <point x="332" y="273"/>
      <point x="330" y="279"/>
      <point x="326" y="279" type="qcurve" smooth="yes"/>
      <point x="326" y="279"/>
      <point x="320" y="285"/>
      <point x="320" y="292" type="qcurve" smooth="yes"/>
      <point x="320" y="296"/>
      <point x="326" y="303"/>
      <point x="326" y="303" type="qcurve" smooth="yes"/>
      <point x="331" y="303"/>
      <point x="347" y="326"/>
      <point x="360" y="353"/>
      <point x="360" y="358" type="qcurve" smooth="yes"/>
      <point x="360" y="364"/>
      <point x="357" y="366"/>
      <point x="349" y="366" type="qcurve" smooth="yes"/>
      <point x="335" y="360"/>
      <point x="295" y="340"/>
      <point x="260" y="321"/>
      <point x="252" y="313" type="qcurve" smooth="yes"/>
      <point x="248" y="306"/>
      <point x="246" y="303"/>
      <point x="242" y="303" type="qcurve"/>
      <point x="242" y="307"/>
      <point x="229" y="292"/>
      <point x="210" y="266"/>
      <point x="193" y="241"/>
      <point x="189" y="235" type="qcurve" smooth="yes"/>
      <point x="187" y="233"/>
      <point x="182" y="214"/>
      <point x="182" y="206" type="qcurve" smooth="yes"/>
      <point x="178" y="194"/>
      <point x="188" y="185"/>
      <point x="205" y="171" type="qcurve" smooth="yes"/>
      <point x="240" y="145"/>
      <point x="280" y="111"/>
      <point x="300" y="89"/>
      <point x="302" y="80" type="qcurve" smooth="yes"/>
      <point x="320" y="50"/>
      <point x="306" y="18"/>
      <point x="279" y="6" type="qcurve" smooth="yes"/>
      <point x="269" y="1"/>
      <point x="223" y="-5"/>
      <point x="175" y="-6"/>
    </contour>
  </outline>
</glyph>
<glyph name="u" format="2">
  <advance width="370"/>
  <unicode hex="0075"/>
  <anchor x="372" y="40" name="Anchor-2"/>
  <anchor x="145" y="-110" name="Anchor-1"/>
  <anchor x="390" y="560" name="Anchor-0"/>
  <outline>
    <contour>
      <point x="339" y="2" type="qcurve" smooth="yes"/>
      <point x="329" y="12"/>
      <point x="309" y="47"/>
      <point x="303" y="70" type="qcurve" smooth="yes"/>
      <point x="301" y="78"/>
      <point x="302" y="106"/>
      <point x="301" y="112" type="qcurve"/>
      <point x="298" y="105"/>
      <point x="285" y="90"/>
      <point x="279" y="85" type="qcurve" smooth="yes"/>
      <point x="275" y="81"/>
      <point x="247" y="58"/>
      <point x="233" y="51" type="qcurve" smooth="yes"/>
      <point x="200" y="30"/>
      <point x="157" y="26"/>
      <point x="138" y="50" type="qcurve"/>
      <point x="122" y="63"/>
      <point x="109" y="95"/>
      <point x="115" y="123" type="qcurve"/>
      <point x="117" y="158"/>
      <point x="133" y="225"/>
      <point x="158" y="281" type="qcurve" smooth="yes"/>
      <point x="179" y="322"/>
      <point x="201" y="361"/>
      <point x="204" y="365" type="qcurve" smooth="yes"/>
      <point x="219" y="370"/>
      <point x="239" y="359"/>
      <point x="241" y="345" type="qcurve"/>
      <point x="247" y="335"/>
      <point x="232" y="287"/>
      <point x="214" y="252" type="qcurve" smooth="yes"/>
      <point x="200" y="218"/>
      <point x="177" y="150"/>
      <point x="173" y="102"/>
      <point x="187" y="97" type="qcurve" smooth="yes"/>
      <point x="196" y="92"/>
      <point x="241" y="108"/>
      <point x="298" y="172"/>
      <point x="325" y="237" type="qcurve" smooth="yes"/>
      <point x="333" y="257"/>
      <point x="341" y="288"/>
      <point x="342" y="307" type="qcurve" smooth="yes"/>
      <point x="340" y="319"/>
      <point x="347" y="338"/>
      <point x="359" y="345" type="qcurve" smooth="yes"/>
      <point x="363" y="350"/>
      <point x="377" y="359"/>
      <point x="379" y="354" type="qcurve"/>
      <point x="395" y="355" type="line" smooth="yes"/>
      <point x="399" y="356"/>
      <point x="402" y="345"/>
      <point x="407" y="341" type="qcurve" smooth="yes"/>
      <point x="418" y="332"/>
      <point x="408" y="272"/>
      <point x="385" y="218" type="qcurve" smooth="yes"/>
      <point x="366" y="177"/>
      <point x="353" y="135"/>
      <point x="352" y="115" type="qcurve" smooth="yes"/>
      <point x="352" y="97"/>
      <point x="366" y="65"/>
      <point x="381" y="52" type="qcurve" smooth="yes"/>
      <point x="392" y="45"/>
      <point x="395" y="27"/>
      <point x="394" y="15" type="qcurve" smooth="yes"/>
      <point x="392" y="6"/>
      <point x="373" y="-5"/>
      <point x="349" y="-5"/>
    </contour>
  </outline>
</glyph>
<glyph name="v" format="2">
  <advance width="331"/>
  <unicode hex="0076"/>
  <outline>
    <contour>
      <point x="183" y="61" type="qcurve" smooth="yes"/>
      <point x="176" y="67"/>
      <point x="155" y="127"/>
      <point x="136" y="208"/>
      <point x="130" y="242" type="qcurve" smooth="yes"/>
      <point x="126" y="262"/>
      <point x="117" y="290"/>
      <point x="114" y="299" type="qcurve" smooth="yes"/>
      <point x="109" y="317"/>
      <point x="113" y="341"/>
      <point x="125" y="348" type="qcurve" smooth="yes"/>
      <point x="130" y="351"/>
      <point x="145" y="354"/>
      <point x="149" y="353" type="qcurve" smooth="yes"/>
      <point x="161" y="349"/>
      <point x="181" y="284"/>
      <point x="189" y="231" type="qcurve" smooth="yes"/>
      <point x="193" y="200"/>
      <point x="205" y="156"/>
      <point x="205" y="152" type="qcurve" smooth="yes"/>
      <point x="209" y="144"/>
      <point x="220" y="129"/>
      <point x="228" y="137" type="qcurve" smooth="yes"/>
      <point x="232" y="141"/>
      <point x="257" y="169"/>
      <point x="269" y="185" type="qcurve" smooth="yes"/>
      <point x="290" y="213"/>
      <point x="315" y="249"/>
      <point x="331" y="269" type="qcurve" smooth="yes"/>
      <point x="338" y="279"/>
      <point x="356" y="303"/>
      <point x="375" y="324"/>
      <point x="383" y="326" type="qcurve" smooth="yes"/>
      <point x="407" y="330"/>
      <point x="411" y="302"/>
      <point x="391" y="274" type="qcurve" smooth="yes"/>
      <point x="383" y="262"/>
      <point x="374" y="241"/>
      <point x="370" y="237" type="qcurve" smooth="yes"/>
      <point x="362" y="221"/>
      <point x="328" y="172"/>
      <point x="296" y="131"/>
      <point x="290" y="125" type="qcurve" smooth="yes"/>
      <point x="286" y="121"/>
      <point x="259" y="99"/>
      <point x="247" y="82" type="qcurve" smooth="yes"/>
      <point x="223" y="59"/>
      <point x="195" y="49"/>
    </contour>
  </outline>
</glyph>
<glyph name="z" format="2">
  <advance width="315"/>
  <unicode hex="007A"/>
  <anchor x="157" y="-110" name="Anchor-1"/>
  <anchor x="343" y="560" name="Anchor-0"/>
  <outline>
    <contour>
      <point x="140" y="28" type="qcurve" smooth="yes"/>
      <point x="102" y="23"/>
      <point x="64" y="20"/>
      <point x="45" y="28"/>
      <point x="34" y="38" type="qcurve" smooth="yes"/>
      <point x="25" y="46"/>
      <point x="30" y="68"/>
      <point x="61" y="100" type="qcurve" smooth="yes"/>
      <point x="80" y="123"/>
      <point x="120" y="164"/>
      <point x="136" y="177" type="qcurve" smooth="yes"/>
      <point x="143" y="183"/>
      <point x="161" y="196"/>
      <point x="201" y="224"/>
      <point x="240" y="250" type="qcurve" smooth="yes"/>
      <point x="259" y="265"/>
      <point x="281" y="281"/>
      <point x="296" y="292"/>
      <point x="304" y="298" type="qcurve"/>
      <point x="297" y="299"/>
      <point x="250" y="303"/>
      <point x="230" y="301" type="qcurve" smooth="yes"/>
      <point x="202" y="301"/>
      <point x="186" y="302"/>
      <point x="178" y="304" type="qcurve" smooth="yes"/>
      <point x="163" y="304" type="line" smooth="yes"/>
      <point x="158" y="304"/>
      <point x="132" y="313"/>
      <point x="110" y="327"/>
      <point x="109" y="334" type="qcurve"/>
      <point x="109" y="334"/>
      <point x="121" y="341"/>
      <point x="125" y="345" type="qcurve" smooth="yes"/>
      <point x="133" y="350"/>
      <point x="142" y="356"/>
      <point x="146" y="352" type="qcurve"/>
      <point x="146" y="352"/>
      <point x="184" y="353"/>
      <point x="208" y="354" type="qcurve" smooth="yes"/>
      <point x="266" y="353"/>
      <point x="321" y="348"/>
      <point x="348" y="336"/>
      <point x="361" y="324" type="qcurve" smooth="yes"/>
      <point x="377" y="308"/>
      <point x="371" y="278"/>
      <point x="360" y="266" type="qcurve" smooth="yes"/>
      <point x="356" y="262"/>
      <point x="349" y="253"/>
      <point x="346" y="253" type="qcurve" smooth="yes"/>
      <point x="346" y="253"/>
      <point x="318" y="235"/>
      <point x="298" y="222" type="qcurve" smooth="yes"/>
      <point x="279" y="209"/>
      <point x="242" y="187"/>
      <point x="238" y="182" type="qcurve" smooth="yes"/>
      <point x="231" y="178"/>
      <point x="211" y="165"/>
      <point x="207" y="161" type="qcurve" smooth="yes"/>
      <point x="204" y="157"/>
      <point x="183" y="137"/>
      <point x="171" y="129" type="qcurve" smooth="yes"/>
      <point x="162" y="121"/>
      <point x="137" y="97"/>
      <point x="119" y="79"/>
      <point x="119" y="79" type="qcurve"/>
      <point x="119" y="79"/>
      <point x="159" y="84"/>
      <point x="219" y="89"/>
      <point x="248" y="87" type="qcurve" smooth="yes"/>
      <point x="295" y="88"/>
      <point x="350" y="91"/>
      <point x="379" y="90"/>
      <point x="387" y="86" type="qcurve" smooth="yes"/>
      <point x="394" y="84"/>
      <point x="405" y="72"/>
      <point x="410" y="59"/>
      <point x="408" y="56" type="qcurve" smooth="yes"/>
      <point x="404" y="56"/>
      <point x="350" y="51"/>
      <point x="315" y="49" type="qcurve" smooth="yes"/>
      <point x="269" y="45"/>
      <point x="183" y="33"/>
    </contour>
  </outline>
</glyph>
<glyph name="bar" format="2">
  <advance width="330"/>
  <unicode hex="007C"/>
  <outline>
    <contour>
      <point x="150" y="-140" type="qcurve" smooth="yes"/>
      <point x="131" y="-145"/>
      <point x="108" y="-119"/>
      <point x="104" y="-65"/>
      <point x="112" y="-28" type="qcurve" smooth="yes"/>
      <point x="117" y="-16"/>
      <point x="123" y="7"/>
      <point x="123" y="14" type="qcurve" smooth="yes"/>
      <point x="125" y="22"/>
      <point x="141" y="77"/>
      <point x="164" y="149"/>
      <point x="187" y="220"/>
      <point x="204" y="269"/>
      <point x="206" y="272" type="qcurve" smooth="yes"/>
      <point x="210" y="272"/>
      <point x="216" y="286"/>
      <point x="216" y="293" type="qcurve" smooth="yes"/>
      <point x="216" y="301"/>
      <point x="223" y="321"/>
      <point x="227" y="325" type="qcurve" smooth="yes"/>
      <point x="227" y="330"/>
      <point x="232" y="343"/>
      <point x="232" y="347" type="qcurve" smooth="yes"/>
      <point x="232" y="351"/>
      <point x="237" y="359"/>
      <point x="237" y="363" type="qcurve" smooth="yes"/>
      <point x="243" y="374"/>
      <point x="268" y="435"/>
      <point x="301" y="518"/>
      <point x="335" y="607"/>
      <point x="365" y="687"/>
      <point x="383" y="739"/>
      <point x="383" y="743" type="qcurve" smooth="yes"/>
      <point x="383" y="751"/>
      <point x="391" y="759"/>
      <point x="399" y="759" type="qcurve" smooth="yes"/>
      <point x="402" y="762"/>
      <point x="411" y="764"/>
      <point x="415" y="764" type="qcurve" smooth="yes"/>
      <point x="415" y="764"/>
      <point x="423" y="756"/>
      <point x="431" y="748" type="qcurve" smooth="yes"/>
      <point x="439" y="741"/>
      <point x="442" y="723"/>
      <point x="442" y="711" type="qcurve" smooth="yes"/>
      <point x="442" y="698"/>
      <point x="436" y="678"/>
      <point x="418" y="640"/>
      <point x="399" y="600" type="qcurve" smooth="yes"/>
      <point x="396" y="592"/>
      <point x="378" y="552"/>
      <point x="357" y="502"/>
      <point x="336" y="455"/>
      <point x="323" y="423"/>
      <point x="323" y="421" type="qcurve" smooth="yes"/>
      <point x="323" y="417"/>
      <point x="316" y="401"/>
      <point x="312" y="389" type="qcurve" smooth="yes"/>
      <point x="308" y="381"/>
      <point x="294" y="350"/>
      <point x="279" y="315"/>
      <point x="269" y="290"/>
      <point x="269" y="288" type="qcurve" smooth="yes"/>
      <point x="269" y="284"/>
      <point x="268" y="276"/>
      <point x="264" y="272" type="qcurve" smooth="yes"/>
      <point x="260" y="272"/>
      <point x="259" y="261"/>
      <point x="259" y="261" type="qcurve" smooth="yes"/>
      <point x="259" y="251"/>
      <point x="243" y="208" type="qcurve" smooth="yes"/>
      <point x="236" y="186"/>
      <point x="216" y="118"/>
      <point x="193" y="41"/>
      <point x="173" y="-31"/>
      <point x="160" y="-86"/>
      <point x="160" y="-97" type="qcurve" smooth="yes"/>
      <point x="160" y="-121"/>
      <point x="158" y="-136"/>
    </contour>
  </outline>
</glyph>
<glyph name="exclamdown" format="2">
  <advance width="210"/>
  <unicode hex="00A1"/>
  <outline>
    <contour>
      <point x="25" y="-227" type="qcurve" smooth="yes"/>
      <point x="25" y="-227"/>
      <point x="18" y="-219"/>
      <point x="11" y="-211" type="qcurve" smooth="yes"/>
      <point x="4" y="-203"/>
      <point x="1" y="-186"/>
      <point x="1" y="-174" type="qcurve" smooth="yes"/>
      <point x="3" y="-154"/>
      <point x="28" y="-106"/>
      <point x="44" y="-78" type="qcurve" smooth="yes"/>
      <point x="54" y="-59"/>
      <point x="73" y="-25"/>
      <point x="73" y="-21" type="qcurve" smooth="yes"/>
      <point x="73" y="-17"/>
      <point x="81" y="-1"/>
      <point x="86" y="11" type="qcurve" smooth="yes"/>
      <point x="92" y="21"/>
      <point x="107" y="49"/>
      <point x="117" y="73"/>
      <point x="117" y="75" type="qcurve" smooth="yes"/>
      <point x="119" y="79"/>
      <point x="121" y="87"/>
      <point x="125" y="91" type="qcurve" smooth="yes"/>
      <point x="129" y="91"/>
      <point x="130" y="102"/>
      <point x="130" y="102" type="qcurve" smooth="yes"/>
      <point x="130" y="106"/>
      <point x="139" y="135"/>
      <point x="149" y="155" type="qcurve" smooth="yes"/>
      <point x="168" y="208"/>
      <point x="185" y="271"/>
      <point x="186" y="293" type="qcurve" smooth="yes"/>
      <point x="188" y="317"/>
      <point x="192" y="325"/>
      <point x="199" y="329" type="qcurve" smooth="yes"/>
      <point x="228" y="334"/>
      <point x="245" y="270"/>
      <point x="231" y="214" type="qcurve" smooth="yes"/>
      <point x="225" y="202"/>
      <point x="217" y="180"/>
      <point x="217" y="172" type="qcurve" smooth="yes"/>
      <point x="214" y="159"/>
      <point x="200" y="124"/>
      <point x="186" y="94"/>
      <point x="183" y="88" type="qcurve" smooth="yes"/>
      <point x="179" y="88"/>
      <point x="170" y="75"/>
      <point x="170" y="67" type="qcurve" smooth="yes"/>
      <point x="170" y="59"/>
      <point x="164" y="39"/>
      <point x="159" y="35" type="qcurve" smooth="yes"/>
      <point x="159" y="31"/>
      <point x="151" y="19"/>
      <point x="151" y="14" type="qcurve" smooth="yes"/>
      <point x="151" y="10"/>
      <point x="146" y="5"/>
      <point x="146" y="0" type="qcurve" smooth="yes"/>
      <point x="137" y="-16"/>
      <point x="108" y="-79"/>
      <point x="79" y="-149"/>
      <point x="59" y="-203"/>
      <point x="59" y="-209" type="qcurve" smooth="yes"/>
      <point x="58" y="-217"/>
      <point x="49" y="-224"/>
      <point x="41" y="-223" type="qcurve" smooth="yes"/>
      <point x="37" y="-226"/>
      <point x="29" y="-227"/>
    </contour>
    <contour>
      <point x="239" y="406" type="qcurve" smooth="yes"/>
      <point x="209" y="425"/>
      <point x="216" y="471"/>
      <point x="253" y="489" type="qcurve" smooth="yes"/>
      <point x="272" y="497"/>
      <point x="297" y="495"/>
      <point x="312" y="484" type="qcurve" smooth="yes"/>
      <point x="331" y="466"/>
      <point x="318" y="429"/>
      <point x="292" y="411" type="qcurve" smooth="yes"/>
      <point x="274" y="400"/>
      <point x="257" y="399"/>
    </contour>
  </outline>
</glyph>
<glyph name="cent" format="2">
  <advance width="450"/>
  <unicode hex="00A2"/>
  <outline>
    <contour>
      <point x="214" y="-54" type="qcurve" smooth="yes"/>
      <point x="186" y="-60"/>
      <point x="181" y="4"/>
      <point x="197" y="59" type="qcurve"/>
      <point x="206" y="72"/>
      <point x="213" y="96"/>
      <point x="214" y="103" type="qcurve" smooth="yes"/>
      <point x="217" y="113"/>
      <point x="243" y="166"/>
      <point x="274" y="227"/>
      <point x="299" y="274"/>
      <point x="302" y="278" type="qcurve" smooth="yes"/>
      <point x="306" y="278"/>
      <point x="316" y="292"/>
      <point x="317" y="299" type="qcurve" smooth="yes"/>
      <point x="317" y="307"/>
      <point x="324" y="327"/>
      <point x="329" y="330" type="qcurve"/>
      <point x="329" y="335"/>
      <point x="338" y="347"/>
      <point x="338" y="351" type="qcurve" smooth="yes"/>
      <point x="339" y="354"/>
      <point x="344" y="359"/>
      <point x="344" y="363" type="qcurve" smooth="yes"/>
      <point x="351" y="374"/>
      <point x="378" y="426"/>
      <point x="413" y="495"/>
      <point x="449" y="568"/>
      <point x="480" y="633"/>
      <point x="499" y="676"/>
      <point x="499" y="680" type="qcurve" smooth="yes"/>
      <point x="505" y="696"/>
      <point x="519" y="693" type="qcurve"/>
      <point x="525" y="699"/>
      <point x="535" y="695" type="qcurve"/>
      <point x="535" y="695"/>
      <point x="542" y="688"/>
      <point x="549" y="681" type="qcurve" smooth="yes"/>
      <point x="554" y="672"/>
      <point x="557" y="653"/>
      <point x="556" y="642" type="qcurve" smooth="yes"/>
      <point x="554" y="629"/>
      <point x="544" y="610"/>
      <point x="522" y="574"/>
      <point x="501" y="536" type="qcurve" smooth="yes"/>
      <point x="496" y="527"/>
      <point x="472" y="489"/>
      <point x="446" y="447"/>
      <point x="427" y="417"/>
      <point x="427" y="415" type="qcurve" smooth="yes"/>
      <point x="427" y="410"/>
      <point x="411" y="384" type="qcurve" smooth="yes"/>
      <point x="407" y="376"/>
      <point x="390" y="346"/>
      <point x="373" y="314"/>
      <point x="360" y="290"/>
      <point x="360" y="288" type="qcurve" smooth="yes"/>
      <point x="360" y="281"/>
      <point x="351" y="272" type="qcurve" smooth="yes"/>
      <point x="347" y="272"/>
      <point x="345" y="261"/>
      <point x="345" y="261" type="qcurve" smooth="yes"/>
      <point x="345" y="257"/>
      <point x="335" y="231"/>
      <point x="324" y="214" type="qcurve"/>
      <point x="313" y="186"/>
      <point x="283" y="119"/>
      <point x="253" y="53"/>
      <point x="232" y="1"/>
      <point x="230" y="-13" type="qcurve" smooth="yes"/>
      <point x="229" y="-37"/>
      <point x="223" y="-52"/>
    </contour>
    <contour>
      <point x="334" y="186" type="qcurve" smooth="yes"/>
      <point x="321" y="180"/>
      <point x="287" y="182"/>
      <point x="258" y="192" type="qcurve" smooth="yes"/>
      <point x="255" y="192"/>
      <point x="243" y="200"/>
      <point x="230" y="213"/>
      <point x="226" y="221" type="qcurve" smooth="yes"/>
      <point x="210" y="244"/>
      <point x="216" y="334"/>
      <point x="241" y="397" type="qcurve" smooth="yes"/>
      <point x="248" y="412"/>
      <point x="277" y="458"/>
      <point x="306" y="497"/>
      <point x="312" y="500" type="qcurve" smooth="yes"/>
      <point x="312" y="500"/>
      <point x="334" y="508"/>
      <point x="351" y="517" type="qcurve" smooth="yes"/>
      <point x="356" y="519"/>
      <point x="369" y="523"/>
      <point x="383" y="525"/>
      <point x="388" y="524" type="qcurve" smooth="yes"/>
      <point x="408" y="523"/>
      <point x="451" y="496"/>
      <point x="479" y="461"/>
      <point x="474" y="448" type="qcurve" smooth="yes"/>
      <point x="474" y="446"/>
      <point x="463" y="435"/>
      <point x="450" y="424"/>
      <point x="446" y="419" type="qcurve" smooth="yes"/>
      <point x="441" y="413"/>
      <point x="424" y="415"/>
      <point x="411" y="430"/>
      <point x="410" y="442" type="qcurve" smooth="yes"/>
      <point x="408" y="450"/>
      <point x="383" y="464"/>
      <point x="383" y="464" type="qcurve" smooth="yes"/>
      <point x="375" y="464"/>
      <point x="346" y="435"/>
      <point x="332" y="415" type="qcurve"/>
      <point x="314" y="397"/>
      <point x="288" y="348"/>
      <point x="273" y="305"/>
      <point x="270" y="296" type="qcurve" smooth="yes"/>
      <point x="266" y="286"/>
      <point x="272" y="250"/>
      <point x="276" y="246" type="qcurve" smooth="yes"/>
      <point x="280" y="244"/>
      <point x="313" y="246"/>
      <point x="359" y="253"/>
      <point x="403" y="263"/>
      <point x="417" y="269" type="qcurve" smooth="yes"/>
      <point x="436" y="281"/>
      <point x="464" y="285"/>
      <point x="471" y="283" type="qcurve" smooth="yes"/>
      <point x="482" y="279"/>
      <point x="486" y="265"/>
      <point x="472" y="248"/>
      <point x="455" y="239" type="qcurve" smooth="yes"/>
      <point x="439" y="231"/>
      <point x="414" y="212"/>
      <point x="414" y="207" type="qcurve"/>
      <point x="410" y="207"/>
      <point x="401" y="202"/>
      <point x="398" y="203" type="qcurve" smooth="yes"/>
      <point x="396" y="203"/>
      <point x="368" y="197"/>
      <point x="339" y="189"/>
    </contour>
  </outline>
</glyph>
